<svg version="1.2" xmlns="http://www.w3.org/2000/svg" viewBox="0 0 514 514" width="514" height="514">
	<defs>
		<clipPath clipPathUnits="userSpaceOnUse" id="cp1">
			<path d="m552 577.88h-1920v-1079.88h1920z"/>
		</clipPath>
	</defs>
	<style>
		tspan { white-space:pre } 
		.s0 { fill: #1d4e1a } 
		.s1 { fill: #1d1d1b } 
		.s2 { fill: #000000 } 
	</style>
	<g id="BACKGROUND">
	</g>
	<g id="OBJECTS" clip-path="url(#cp1)">
		<g id="&lt;Group&gt;" style="opacity: .9">
			<g id="&lt;Group&gt;">
			</g>
		</g>
		<g id="&lt;Group&gt;" style="opacity: .9">
			<g id="&lt;Group&gt;">
			</g>
		</g>
		<g id="&lt;Group&gt;" style="opacity: .9">
			<g id="&lt;Group&gt;">
			</g>
		</g>
		<g id="&lt;Group&gt;" style="opacity: .9">
			<g id="&lt;Group&gt;">
			</g>
		</g>
		<g id="&lt;Group&gt;" style="opacity: .6">
			<g id="&lt;Group&gt;">
			</g>
		</g>
		<g id="&lt;Group&gt;" style="opacity: .6">
			<g id="&lt;Group&gt;">
			</g>
		</g>
		<g id="&lt;Group&gt;">
			<path id="&lt;Compound Path&gt;" fill-rule="evenodd" class="s0" d="m-1064.83 207.84c-0.07-0.51-0.02-0.81-0.14-0.98-3.11-4.27-6.24-8.51-9.47-12.89-0.86 0.14-1.72 0.15-2.49 0.41q-4.71 1.61-9.37 3.35c-5.64 2.12-11.41 3.81-17.35 4.97 3.01-1.05 6.04-2.05 9.03-3.15 3-1.1 5.96-2.29 8.93-3.47q4.59-1.83 9.16-3.7c0.15-1.63-0.99-2.39-1.68-3.31-8.72-11.58-17.43-23.16-26.23-34.67-10.97-14.34-22.02-28.62-33.04-42.92-0.45-0.58-0.94-1.13-1.59-1.91-1.04-0.09-2.24-0.18-3.45-0.31-1.95-0.19-3.91-0.34-5.85-0.65-1.42-0.22-2.15-0.95-2-1.73 0.2-1.07 1.11-1.2 1.96-1.31 0.98-0.12 1.96-0.15 2.94-0.24 0.71-0.07 1.41-0.18 2.27-0.29-0.08-0.5-0.02-0.9-0.2-1.13-4.34-5.79-8.7-11.57-13.15-17.46-1.64 0.04-3.21 0.13-4.79 0.1-3.06-0.05-6.13-0.05-9.18-0.31-1.43-0.13-2.9-0.64-4.17-1.31-1.96-1.04-2.56-3.01-1.64-5.06 0.49-1.1 1.21-2.15 2.03-3.03 1.15-1.27 2.48-2.38 3.75-3.54 0.71-0.65 1.45-1.27 2.13-1.86-0.25-1.61-1.35-2.51-2.14-3.56-9.31-12.36-18.7-24.66-27.96-37.06-5.66-7.57-11.13-15.29-16.69-22.94-1.72-2.36-3.69-4.53-5.17-7.09-1.4-2.44-3.12-4.7-4.62-7.09-0.85-1.35-1.59-2.77-2.3-4.2-0.77-1.53-0.75-3.09 0.19-4.56 0.66-1.03 1.25-2.16 2.1-3 3.07-3.02 6.21-5.95 9.37-8.87 0.71-0.65 1.61-1.11 2.39-1.71 0.85-0.63 1.66-1.32 2.63-2.09 2.15 0.53 3.74 1.95 5.21 3.94 4.39 5.92 9.12 11.58 13.59 17.43 10.73 14.06 21.39 28.17 32.09 42.26 0.88 1.16 1.64 2.43 3.07 3.1 0.47 0.23 0.95 0.87 1.05 1.38 0.22 1.14 0.78 2.04 1.45 2.93q5.41 7.23 10.81 14.46c0.3 0.39 0.65 0.73 1.06 1.19 0.46-0.08 0.95-0.07 1.37-0.25 6.23-2.62 12.47-5.21 18.66-7.91 6.99-3.06 14.14-5.67 21.53-7.59 10.94-2.83 21.87-5.71 33.02-7.66 6.29-1.1 12.62-2 19.03-1.91 4.94 0.07 9.81 0.69 14.49 2.31 1.73 0.6 3.46 1.36 4.94 2.41 3.73 2.6 4.37 6.67 1.64 10.27-1.1 1.44-2.53 2.68-3.97 3.79-4.1 3.17-8.71 5.53-13.36 7.74-9.12 4.32-18.59 7.75-28.21 10.76-12.44 3.9-25.04 7.2-37.68 10.34-3.22 0.79-6.47 1.47-9.69 2.25-0.81 0.19-1.57 0.54-2.37 0.82 1.24 2.57 10.07 14.57 13.68 18.62 0.46-0.05 1.07-0.04 1.64-0.17 12.11-2.77 24.1-5.97 35.86-9.95 4.89-1.65 9.65-3.64 14.45-5.54 4.92-1.93 9.76-4.06 14.98-5.1 0.96-0.19 1.94-0.53 2.89-0.48 0.93 0.03 1.91 0.35 2.74 0.78 0.66 0.33 1.07 1.12 0.72 1.89-0.22 0.5-0.7 1.12-1.17 1.23-2.94 0.7-5.39 2.33-7.92 3.85-6.02 3.63-12.47 6.4-19.12 8.59-6.06 1.99-12.25 3.63-18.43 5.24-6.42 1.66-12.9 3.1-19.34 4.66-0.83 0.2-1.63 0.47-2.49 0.73-0.12 1.36 0.79 2.09 1.41 2.92q11.78 15.81 23.56 31.61 14.54 19.5 29.07 38.99c0.73 0.98 1.49 1.94 2.35 3.05 0.98-0.22 1.94-0.34 2.84-0.66 6.5-2.29 13.18-3.98 19.88-5.53 4.06-0.94 8.2-1.54 12.32-2.22 0.82-0.14 1.72-0.05 2.53 0.14 0.62 0.14 1 0.68 0.59 1.53-11.96 2.8-24.05 5.38-35.92 8.94 0.98 2.43 7.39 11.29 10.33 14.38 14.36-3.32 45.56-14.22 55.97-21.69-0.56-0.21-0.97-0.5-1.37-0.49q-3.13 0.09-6.25 0.32c-1.46 0.1-2.91 0.25-4.25-0.4-0.21-0.97 0.5-1.16 0.98-1.33 4.92-1.8 10.01-2.47 15.21-1.77 3.33 0.44 4.39 3.23 2.32 5.94-0.81 1.05-1.89 1.93-2.93 2.77-5.39 4.34-11.38 7.67-17.67 10.52-10.55 4.79-21.53 8.36-32.55 11.8q-1.91 0.61-3.84 1.26c-0.1 1.39 0.78 2.13 1.41 2.98q13.13 17.79 26.28 35.55 23.03 31.09 46.08 62.16c0.44 0.59 0.89 1.17 1.32 1.77 0.93 1.31 1.88 2.59 3.35 2.82 0.47 1.32 0.79 2.35 1.19 3.34 0.51 1.25 1.16 2.43 1.62 3.7 0.85 2.33 0.54 4.61-0.71 6.73-2.03 3.4-4.44 6.49-7.5 9.04q-2.58 2.14-5.87 2.96c-1.16 0.3-2.31 0.75-3.4 1.26-1.16 0.55-2.22 0.36-3.09-0.38-1.11-0.95-2.19-1.99-3.08-3.15-3.89-5.06-7.72-10.17-11.56-15.27-0.88-1.18-1.74-2.37-2.69-3.68-0.85 0.12-1.69 0.19-2.5 0.36-11.33 2.35-22.34 5.82-33.21 9.75-9.36 3.39-18.73 6.74-28.05 10.19-3.45 1.28-6.79 2.85-10.19 4.25q-1.5 0.64-3.15 0.92c2.87-1.38 5.65-2.89 8.66-3.99 3.23-1.17 6.33-2.66 9.52-3.95q4.61-1.86 9.27-3.61 4.82-1.84 9.67-3.59c3.12-1.12 6.28-2.16 9.41-3.25 3.13-1.09 6.23-2.26 9.39-3.3 3.26-1.07 6.6-1.95 9.86-3.03 3.11-1.04 6.43-1.43 9.45-2.81-2.54-5.64-64.97-92.45-71.12-98.9-0.95 0.21-2.02 0.42-3.07 0.71-14.13 3.76-28.24 7.61-42.4 11.25-7.13 1.84-14.33 3.48-21.68 4.27-3.3 0.35-6.61 0.44-9.91-0.1-2.08-0.34-4.08-0.91-5.84-2.12-3.24-2.21-3.91-5.82-1.61-8.96 1.41-1.94 3.22-3.39 5.72-3.67 0.33-0.03 0.68 0.14 0.98 0.21 0.41 0.86-0.32 1.13-0.67 1.53-0.9 1-1.99 1.86-2.74 2.96-1.37 2-0.85 3.58 1.44 4.24 1.51 0.43 3.13 0.6 4.71 0.63 4.7 0.08 9.28-0.9 13.84-1.91 10.32-2.28 20.48-5.21 30.62-8.17q11.14-3.26 22.27-6.59c1.03-0.31 2.02-0.73 2.97-1.07zm-61.9-130.92c1-0.19 1.61-0.27 2.2-0.41q7.51-1.87 15.01-3.75 21.82-5.48 43.02-13.04c7.87-2.8 15.62-5.92 22.96-9.96 2.89-1.59 5.6-3.52 8.33-5.38 1.09-0.74 2.16-1.61 2.52-3.09-1.1-1.42-2.68-1.79-4.18-2.24-5.35-1.6-10.85-1.99-16.4-1.65-7.01 0.42-13.9 1.62-20.74 3.12-6.12 1.35-12.19 2.92-18.29 4.31q-19.32 4.39-37.09 13.12c-2.63 1.29-5.23 2.66-7.84 4 0.11 0.55 0.08 0.98 0.27 1.24 3.36 4.54 6.74 9.05 10.23 13.73zm-81.85-71.16c0.96 1.36 1.42 2.08 1.94 2.75q5.23 6.9 10.48 13.78c2.53 3.31 5.09 6.61 7.63 9.93 0.69 0.91 1.45 1.53 2.72 1.59 5.51 0.3 11.02 0.7 16.53 1.04 0.56 0.03 1.15-0.12 2.05-0.22-1.48-2.75-3.36-4.83-4.95-7.09-1.56-2.21-3.17-4.37-4.76-6.56q-2.47-3.44-4.96-6.86c-1.66-2.27-3.34-4.52-4.93-6.68-7.17-0.55-14.1-1.09-21.75-1.68zm103.29 133.49c1.04 1.42 1.6 2.22 2.19 2.98q3.5 4.5 7 8.99c4.27 5.53 8.57 11.03 12.77 16.61 1.12 1.48 2.31 2.27 4.23 2.37 3.54 0.18 7.07 0.66 10.6 1.01 0.54 0.05 1.1 0.02 1.79 0.04-1.38-2.71-20.3-28.41-23.09-31.42-4.78-0.18-9.76-0.37-15.49-0.58zm142.18 170.91c-0.91-1.39-1.33-2.11-1.83-2.77q-7.11-9.61-14.23-19.21c-0.44-0.6-0.82-1.26-1.35-1.75-0.51-0.47-1.16-1.02-1.8-1.09-4.96-0.51-9.93-0.92-14.9-1.36-0.01 0.36-0.11 0.66 0 0.81 5.35 7.77 10.71 15.53 15.97 23.13 5.95 0.73 11.65 1.44 18.14 2.24zm-32.15-42.93c-0.42-0.87-0.56-1.33-0.84-1.7-6.28-8.46-12.58-16.91-18.75-25.2-5.91-0.35-11.57-0.13-13.9 0.57 5.98 8.31 11.91 16.55 17.61 24.48 5.39 0.63 10.36 1.21 15.88 1.85zm-118.39-159.73c-4.76 0.65-9.37 1.27-13.97 1.92-0.18 0.03-0.34 0.3-0.71 0.64 3.82 4.87 7.65 9.77 11.4 14.55 5.38 0.33 10.5 0.64 15.63 0.94 0.11 0.01 0.24-0.05 0.33-0.13 0.09-0.07 0.13-0.19 0.2-0.3-1.23-2.4-9.97-14.4-12.88-17.62zm-35.08-48.07c-1.57-2.14-2.9-3.89-4.16-5.69-0.71-1.02-1.62-1.3-2.82-1.38-5.02-0.31-10.04-0.73-15.05-1.08-0.69-0.05-1.39 0.04-2.64 0.09 2.04 3.01 4.04 5.44 6 7.9 1.95 2.45 3.56 5.23 6.08 7.39 4.15-2.39 8.17-4.69 12.59-7.23zm-59.65-82.21c-0.89 0.32-1.55 0.4-2.01 0.75q-5.25 4.02-10.43 8.12c-0.55 0.43-0.99 1.01-1.54 1.59 0.33 0.53 0.56 0.95 0.84 1.33 0.59 0.77 1.21 1.52 1.74 2.19 7.49 0.73 18.67 1.12 21.76 0.67-3.48-4.93-6.78-9.7-10.36-14.65zm51.31 94.98c1.73 3.2 4.96 7.35 7.09 9.15 9.59-1.02 12.4-1.61 14.82-3.08-2.34-3.93-7.2-10.38-9.21-12.23-3.71 1.14-10.6 4.48-12.7 6.16zm102.33 114.96c-3.61 1.14-7.27 1.91-10.7 3.5 1.49 2.75 7.85 11.37 10.32 14.05 3.14-0.38 8.26-1.95 10.72-3.28-1.05-2.38-6.58-10.06-10.34-14.27zm27.5 37.07c-2.38-4.07-9.73-13.75-11.75-15.58-4.92 0.93-8.73 2.2-10.73 3.66 2.7 3.92 5.56 7.72 8.42 11.48 4.65 0.15 9.15 0.29 14.06 0.44zm-156.82-186.29c2.54 3.25 4.59 5.84 6.61 8.45 0.57 0.74 1.3 1.04 2.22 1.06 5.39 0.16 10.78 0.35 16.17 0.49 0.4 0.02 0.8-0.27 1.46-0.51-1.69-2.33-3.23-4.38-4.69-6.49-0.78-1.11-1.79-1.5-3.11-1.6-5.37-0.4-10.75-0.89-16.12-1.34-0.58-0.04-1.16-0.03-2.54-0.06zm199.13 243c-1.86-3.27-3.93-5.51-5.62-8.02-0.84-1.25-1.91-1.67-3.38-1.75-4.02-0.2-8.03-0.58-12.04-0.85-0.32-0.02-0.66 0.18-0.98 0.27 0.01 0.27-0.07 0.56 0.04 0.72 1.75 2.49 3.51 4.97 5.2 7.35 5.53 0.75 10.84 1.47 16.78 2.28zm-231.13-284.77c1.28 1.7 2.2 2.82 3 4.03 0.68 1.04 1.6 1.41 2.76 1.48 5.97 0.34 11.94 0.71 17.91 1.04 0.53 0.02 1.23 0.32 1.69-0.75-1.37-1.63-2.31-3.75-3.73-4.91-7.3-0.3-14.1-0.58-21.63-0.89zm183.57 239.44q5.86 0.24 11.72 0.46 0.73 0.02 1.47-0.01c0.11 0 0.25-0.01 0.34-0.07 0.08-0.07 0.11-0.21 0.19-0.36-0.09-0.31-0.11-0.7-0.31-0.97-1.44-1.97-2.92-3.91-4.48-5.98-4.61-0.12-9.18-0.53-14.4-0.47 1.88 2.84 3.52 5.18 5.47 7.4zm-25.65-52.96c-1.24-2.57-2.91-4.21-4.14-6.14-0.82-1.29-1.87-1.68-3.38-1.69-3.43-0.02-6.85-0.26-10.27-0.4-0.59-0.03-1.24-0.17-1.61 0.85 1.53 2.02 3.15 4.14 4.74 6.23 4.8 0.38 9.43 0.74 14.66 1.15zm-34.24-46.67c-1.54-2.15-2.78-3.79-3.94-5.5-0.83-1.22-1.83-1.77-3.39-1.58q-6.02 0.72-12.08 0.29c-0.28-0.01-0.59 0.23-1.14 0.46 1.24 1.6 2.35 3.04 3.47 4.47 0.56 0.71 1.28 1.03 2.22 1.07 4.74 0.22 9.48 0.49 14.86 0.79zm-30.49-40.88c-0.7-1.91-1.98-3.08-2.89-4.48-0.66-1.04-1.57-1.39-2.78-1.42-4.39-0.1-8.79-0.3-13.19-0.46-0.81-0.03-1.63-0.03-2.84-0.06 0.98 1.99 2.2 3.29 3.28 4.56 5.83 0.69 11.53 1.36 17.23 2.03 0.23 0.02 0.48-0.07 1.19-0.17zm4.96 6.99c-0.53-2.24-1.73-2.72-3.39-2.78-4.89-0.18-9.78-0.46-14.67-0.68-0.18-0.01-0.37 0.24-0.65 0.44 0.67 1.58 1.97 2.73 2.93 4.12 0.63 0.92 1.5 1.2 2.55 1.07 1.46-0.18 2.92-0.35 4.37-0.59 2.88-0.49 5.76-1.02 8.86-1.58zm141.2 211.87c0.41 1.87 1.22 2.71 2.98 2.93 4.5 0.56 8.98 1.32 13.47 2 1.07 0.16 2.14 0.3 3.27 0.46-0.58-2.41-0.64-2.5-3.64-5.58-5.23-0.03-10.59-0.81-16.08 0.19zm4.33 7.64c1.6 2.67 2.82 4.74 4.07 6.8 0.44 0.71 0.96 1.37 1.42 2.03 3.18-1.43 6.04-4.24 7.81-7.72-4.27-0.35-8.45-0.7-13.3-1.11zm-201.25-240c4.02 1.65 7.45 1.13 10.83 1.05 0.92-0.03 1.96 0.23 2.67-0.91q-1.84-2.47-3.74-4.94c-0.21-0.28-0.55-0.44-0.96-0.75-2.92 1.43-5.57 3.27-8.8 5.55zm106.79 107.15c2.13-0.52 4.26-1.34 6.38-2.33-0.66-0.8-1.46-0.58-2.14-0.59-2.03-0.04-4.07 0.04-6.34 0.07 0.37 1.42 0.94 2.26 2.1 2.85zm-63.83-104.3c-1.52-1.73-2.55-1.71-6.07-0.16 2.01 0.3 3.79 0.5 6.07 0.16z"/>
			<path id="&lt;Compound Path&gt;" fill-rule="evenodd" class="s0" d="m-977.59 98.9c0.66 0.09 1.14 0.21 1.62 0.22 7.73 0.02 15.49 0.23 23.03-1.9 4.99-1.42 10.08-2.26 15.21-2.72 6.72-0.6 12.95 0.67 18.07 5.55q3.88 3.71 6.88 8.13c3.61 5.31 6.36 11.07 8.84 16.96 3.11 7.37 5.84 14.86 8.34 22.45 1.92 5.83 4.17 11.56 6.28 17.33 0.64 1.73 1.32 3.44 1.9 5.19q7.52 22.16 14.98 44.35c1.37 4.07 2.66 8.17 3.96 12.27 0.9 2.84 1.28 5.75 1.19 8.73-0.18 6.39-2.69 11.61-7.63 15.71q-7.54 6.3-16.5 10.31c-3.81 1.7-7.64 3.37-11.41 5.17-4.33 2.06-8.46 4.48-12.19 7.53-1.25 1.02-2.51 1.98-4.13 2.32-2.21 0.47-3.62-0.73-3.5-2.98 0.08-1.52 0.58-2.92 1.59-4.04 1.15-1.27 2.32-2.56 3.65-3.62q6.06-4.83 13.07-8.2c4.64-2.24 9.18-4.69 13.71-7.15 3.25-1.76 6.1-4.1 8.89-6.52 3.24-2.82 4.5-6.38 4.12-10.54-0.16-1.7-0.49-3.42-1.02-5.04-1.96-5.95-4.04-11.86-6.06-17.79-3.62-10.58-7.29-21.14-10.83-31.74-5.13-15.38-10.12-30.82-15.28-46.19-2.07-6.17-4.6-12.18-7.68-17.93q-2.8-5.23-6.99-9.45c-3.14-3.16-7.01-4.52-11.34-4.38-4.04 0.12-8.08 0.46-12.05 1.4-5.52 1.3-11.1 2.03-16.8 1.44-2.81-0.29-5.63-0.4-8.45-0.56-0.34-0.02-0.7 0.15-1.21 0.27 3.41 10.02 6.8 19.98 10.25 30.13 0.84-0.04 1.68 0.02 2.49-0.13 2.41-0.47 4.79-1.07 7.21-1.5 1.69-0.3 3.41-0.55 5.12-0.55 4.91 0.01 9.07 1.71 12.36 5.51 3.02 3.49 5.07 7.54 7.08 11.6q7.63 15.36 13.47 31.5c2.71 7.5 5.61 14.95 8.45 22.41q2.15 5.71 3.25 11.71c0.51 2.76 0.11 5.32-1.13 7.85-1.77 3.62-4.21 6.55-7.6 8.8-4.59 3.06-9.06 6.31-13.54 9.54-1.28 0.93-2.4 2.09-3.54 3.2-0.77 0.74-0.96 1.68-0.62 2.72q0.11 0.35 0.2 0.71c2.53 8.22 4.87 16.5 7.63 24.64 4.96 14.66 10.18 29.22 15.3 43.83 0.5 1.41 0.86 2.83 0.63 4.32-0.24 1.56-0.97 2.83-2.56 3.3-1.42 0.42-2.68-0.06-3.69-1.1-0.51-0.52-0.95-1.13-1.29-1.77-0.41-0.75-0.71-1.56-1-2.37-3.51-9.71-6.86-19.47-10.54-29.11-10.78-28.29-18.76-57.45-27.16-86.48q-11.46-39.66-23.12-79.27c-1.7-5.77-3.69-11.46-5.79-17.1-1.28-3.44-2.9-6.77-4.58-10.04-0.82-1.62-1.98-3.12-3.22-4.45-1.89-2.03-4.28-2.78-7.05-2.09q-2.32 0.59-4.68 1.02c-0.71 0.13-1.47 0.12-2.18-0.01-1.14-0.21-1.69-1.66-1.07-2.64q0.19-0.31 0.46-0.57c5.88-5.44 12.78-6.64 19.26-1.46 2.74 2.19 4.69 5 6.3 8.07 0.86 1.63 1.67 3.28 2.64 5.2zm43.99 140.4c3.27-2.46 6.53-4.8 9.66-7.29 2.4-1.91 4.81-3.85 6.91-6.07 2.9-3.07 4.61-6.74 3.25-11.09-1.51-4.8-3.09-9.58-4.86-14.29-2.81-7.47-5.85-14.85-8.72-22.29-4.01-10.43-8.3-20.74-13.09-30.83-0.95-1.99-2.06-3.92-3.29-5.74-1.83-2.74-4.51-4.11-7.79-4.18-1.47-0.04-2.94 0.08-4.41 0.16q-2.94 0.16-5.87 0.39c-0.56 0.05-1.12 0.23-1.82 0.38 9.79 33.4 19.52 66.62 29.27 99.82 0.09 0.31 0.4 0.56 0.76 1.03z"/>
			<path id="&lt;Path&gt;" class="s0" d="m-1165.42 129.79c1.57-0.16 3.14-0.38 4.72-0.44 0.77-0.03 1.4 0.45 1.65 1.24 0.24 0.77 0.03 1.51-0.6 1.98q-1.47 1.1-3.07 2c-6.64 3.66-10.42 10.31-10.08 17.89q0.47 10.15 2.98 20.01c5.09 20.01 10.85 39.82 17.02 59.52 9.23 29.42 18.62 58.79 27.93 88.19 4.34 13.7 8.64 27.41 12.99 41.11 1.26 3.98 2.63 7.93 3.94 11.9 0.46 1.39 1.05 2.78 1.29 4.22 0.28 1.68 0.37 3.41 0.31 5.11-0.06 1.67-0.75 3.15-2.46 3.78-1.88 0.68-3.43-0.15-4.59-1.52-1.03-1.2-1.86-2.58-2.66-3.94-0.42-0.73-0.63-1.6-0.89-2.42-3.71-11.45-7.52-22.87-11.09-34.37-7.8-25.1-15.44-50.25-23.22-75.37-7.34-23.7-14.67-47.41-21.11-71.38-2.39-8.9-4.46-17.88-6.46-26.87-1.22-5.52-1.59-11.17-1.62-16.84-0.03-7.82 2.99-14.3 8.44-19.77 1.86-1.87 4-3.24 6.58-4.03z"/>
			<path id="&lt;Path&gt;" class="s0" d="m-978.37 387.82c-11.59 3.06-23.53 5.88-35.63 8.03-8.95 1.58-17.9 3.11-26.96 3.93-12.71 1.16-25.45 1.68-38.23 1.48-7.35-0.11-14.37-1.65-21.03-4.73-1.22-0.56-2.42-1.23-3.46-2.06-0.47-0.38-0.67-1.27-0.71-1.95-0.04-0.72 0.89-1.32 1.94-1.33q1.29 0 2.55 0.26 2.71 0.54 5.38 1.24c5.02 1.3 10.12 1.85 15.31 1.79 14.98-0.18 29.91-1.15 44.74-3.37q20.42-3.08 40.39-8.26c5.95-1.54 11.9-3.06 17.77-4.86 10.5-3.2 20.4-7.76 29.62-13.76 8.72-5.68 16.26-12.65 22.69-20.81 1.75-2.23 3.41-4.53 5.91-5.99 0.94-0.55 1.93-1.1 2.97-1.38 1.81-0.47 3.55 0.56 3.97 2.36 0.21 0.92 0.19 1.96 0 2.89-0.47 2.3-1.32 4.5-2.8 6.35-1.68 2.11-3.35 4.25-5.21 6.19-10.96 11.35-23.56 20.32-38.1 26.56-6.79 2.92-13.72 5.36-21.11 7.42z"/>
			<path id="&lt;Path&gt;" class="s0" d="m-1160.62 107.84c0.36 1.7-0.38 2.46-1.35 3.09-0.9 0.58-1.88 0.51-2.83 0.24-1.49-0.42-2.51-1.48-3.35-2.71-2.15-3.16-3.74-6.59-4.82-10.24-0.49-1.64-0.85-3.32-1.17-5-0.18-0.95-0.22-1.94-0.21-2.91 0.01-1.71 0.6-2.69 1.68-2.92 1.46-0.31 2.39 0.6 2.95 1.69q1.7 3.24 3.05 6.65c0.84 2.16 1.43 4.41 2.18 6.61 0.78 2.32 1.4 4.75 3.87 5.5z"/>
			<path id="&lt;Path&gt;" class="s0" d="m-1022.43 63.72c0.12 0.49 0.52 1.79 0.69 3.11 0.16 1.22-0.57 2.29-1.54 2.65-1.04 0.39-1.92 0.05-2.72-0.61q-0.15-0.12-0.26-0.26c-2.91-4-5.39-8.18-5.81-13.27-0.12-1.42 0.01-2.74 1.41-3.49 1.06-0.57 2.43 0.09 3.63 1.77 2.03 2.83 3.15 6.07 4.6 10.1z"/>
			<path id="&lt;Path&gt;" class="s1" d="m-1068.6 343.06q1.15-0.34 2.31-0.69 0.04 0.13 0.09 0.26-1.16 0.35-2.32 0.7-0.04-0.14-0.08-0.27z"/>
			<path id="&lt;Path&gt;" class="s1" d="m-1072.82 345.1q0.94-0.28 1.88-0.56 0.03 0.13 0.07 0.26-0.93 0.28-1.87 0.56-0.04-0.13-0.08-0.26z"/>
			<path id="&lt;Path&gt;" class="s1" d="m-1076.87 347.08q0.93-0.28 1.86-0.55 0.05 0.14 0.1 0.28-0.92 0.32-1.83 0.64-0.07-0.18-0.13-0.37z"/>
			<path id="&lt;Path&gt;" class="s1" d="m-1080.1 349.83c-0.45-1.12 0.18-1.36 1.17-1.38q-0.61 0.71-1.18 1.37z"/>
			<path id="&lt;Path&gt;" class="s1" d="m-1080.11 349.82q-1.53 0.69-3.07 1.39l0.1 0.04c-0.02-0.87 0.58-1.18 1.28-1.31 0.55-0.1 1.13-0.08 1.7-0.11q0-0.01-0.01-0.01z"/>
			<path id="&lt;Path&gt;" class="s1" d="m-1083.18 351.21q-1.05 0.6-2.11 1.2l0.12 0.06c0.25-1.15 1.19-1.14 2.08-1.22 0.01 0-0.09-0.04-0.09-0.04z"/>
			<path id="&lt;Path&gt;" class="s1" d="m-1085.29 352.41c-0.09 0.19-0.16 0.39-0.27 0.57-0.04 0.07-0.18 0.08-0.28 0.12 0.02-0.14-0.01-0.35 0.07-0.41 0.17-0.12 0.39-0.15 0.6-0.22 0 0-0.12-0.06-0.12-0.06z"/>
		</g>
		<g id="&lt;Group&gt;">
			<path id="&lt;Compound Path&gt;" fill-rule="evenodd" class="s1" d="m-959.81-149.39c5.48 8.04 9.37 16.74 11.74 26.03 3.13 12.24 1.4 23.86-5.43 34.6-0.7 1.1-1.45 2.17-2.16 3.27-4.99 7.7-11.88 13.01-20.28 16.63-8.5 3.66-17.36 5.71-26.52 6.46-3.35 0.28-6.78 0.03-10.15-0.26-6.28-0.55-12.37-2.08-18.4-3.82-3.44-0.98-6.56-2.57-9.16-5.08-0.9-0.87-1.53-1.78-1.32-3.09 0.05-0.25 0.22-0.6 0.11-0.75-1.82-2.6-0.49-5.07 0.48-7.4 2.46-5.91 4.92-11.83 7.77-17.55 4.3-8.65 8.87-17.17 13.42-25.7 5.84-10.94 11.81-21.83 17.64-32.78 2.16-4.05 4.75-7.8 7.37-11.54 2.41-3.44 4.27-4.06 8.81-2.62 1.96 0.62 3.88 1.66 5.52 2.9 7.85 5.94 14.9 12.7 20.56 20.7zm-29.67-15.89c-1.08 1.18-1.64 2.42-1.81 3.85 1.04 1.25 2.17 2.35 3.02 3.65 3.78 5.8 7.15 11.85 9.85 18.24 1.26 2.99 1.13 5.89-1.81 8.07-0.12 0.09-0.09 0.39-0.17 0.78 1.31 0.19 2.59 0.34 3.85 0.56 2.47 0.41 4.83 1.11 6.97 2.47 2.15 1.35 3.37 3.24 3.33 5.82q-0.02 2.16-0.14 4.31c-0.26 4.95-2.34 9.05-5.98 12.35-2.39 2.17-5.13 3.57-8.46 3.52-0.61-0.01-1.21 0.04-2.21 0.08 0.8 1.35 1.43 2.3 1.93 3.32 0.64 1.28 1.35 2.57 1.68 3.94 0.9 3.67-0.21 6.01-3.53 7.18-4.44 1.56-9.01 2.61-13.63 3.44-3.2 0.58-5.86-0.78-8.01-3.17-0.46-0.52-0.89-1.08-1.65-2-0.28 1.66-0.46 2.79-0.65 3.92-0.45 2.56-1.81 4.14-4.47 4.8-3.44 0.85-6.89 1.38-10.44 1.32-3.62-0.06-6.98-0.85-10.03-2.85-1.08-0.7-2.26-1.25-3.59-1.98-0.93 1.61-1.78 3.06-2.6 4.52-0.38 0.67-0.72 1.36-1.09 2.08 8.05 2.07 16.14 2.9 23.39 2.48q5.28-0.31 10.57-0.45c2.75-0.07 5.48-0.32 8.11-1.17 2.61-0.83 5.24-1.62 7.78-2.65 3.62-1.47 7.39-2.71 10.49-5.21 5.32-4.3 9.77-9.43 13.51-15.12 2.54-3.88 4.19-8.3 3.77-12.96-0.61-6.77-1.7-13.5-4.75-19.7-3.87-7.87-8.44-15.32-13.45-22.51q-0.67-0.97-1.48-1.82c-1.35-1.42-2.78-2.76-4.1-4.21-1.4-1.53-2.7-3.14-4.2-4.9zm-29.18 93.85q-0.08 0.42-0.15 0.84c5.34 1.07 10.68 2.14 16.2 1.6 8.76-0.84 17.27-2.62 25.24-6.51 3.3-1.6 6.46-3.33 9.25-5.79 5.07-4.48 9.07-9.81 12.04-15.77 3.98-7.99 5.73-16.55 3.74-25.46-3.23-14.46-10.46-26.6-21.64-36.36-0.46-0.4-0.98-0.73-1.94-1.43 0.35 0.91 0.41 1.27 0.6 1.54 3.79 5.33 6.69 11.2 9.99 16.82 3.22 5.47 5.36 11.34 6.17 17.61 0.55 4.26 1.26 8.62 0.89 12.85-0.58 6.57-2.87 12.69-7.39 17.78-1.55 1.75-2.93 3.67-4.54 5.37-3.31 3.52-6.67 6.96-11.07 9.2-3.96 2.03-8.12 3.54-12.29 5.05-4.22 1.53-8.54 2.19-13.04 2.18-4.02-0.02-8.04 0.31-12.06 0.48zm35.76-20.13c0.3-2.45-0.8-4.52-1.98-6.56-2.06-3.54-4.88-6.46-7.77-9.29-3.45-3.37-7.14-6.51-10.57-9.91-2.13-2.1-4.02-4.45-5.92-6.77-0.32-0.39-0.4-1.33-0.15-1.79 0.44-0.83 1.26-0.55 2.04-0.26 2.55 0.95 4.31 2.9 6.16 4.73 4.75 4.67 9.57 9.26 14.95 13.21q1.1 0.82 2.23 1.6c2.2 1.51 4.43 1.47 6.55-0.08 1.26-0.92 2.47-1.95 3.5-3.1 2.87-3.24 3.38-7.24 3.48-11.36 0.04-1.47-0.53-2.44-1.82-3.16-2.33-1.29-4.82-1.99-7.44-2.27-8.84-0.97-17.66-1.95-26.57-1.82q-1.94 0.02-3.91 0.01c-1.38 1.26-1.79 2.71-1.04 4.54 0.43 1.08 0.56 2.27 0.82 3.42 1.67 7.38 3.31 14.78 5.01 22.15q0.65 2.87 1.64 5.64c1.75 4.83 4.05 6.11 9.02 5.06 2.55-0.54 5.08-1.2 7.62-1.78 1.55-0.36 2.98-0.93 4.15-2.21zm-28.52 6.33c0.24-1.2 0.59-2.32 0.66-3.47 0.18-2.72 0.44-5.48 0.28-8.19-0.45-7.55-1.34-15.06-2.77-22.49-0.11-0.6-0.36-1.17-0.7-2.24-2.79 3.84-4.66 7.65-6.79 11.3-2.22 3.83-4.44 7.67-6.54 11.57-2.01 3.74-4.32 7.33-5.89 11.27 6.16 3.79 11.06 4.83 21.75 2.25zm3.41-46.46c1.21-0.02 2.39-0.16 3.53-0.04 5.81 0.66 11.45-0.37 17.07-1.67q1.9-0.44 3.73-1.14c1.44-0.53 1.83-1.3 1.34-2.73q-0.91-2.59-2.05-5.09c-2-4.4-4.25-8.68-7.09-12.61-0.49-0.69-1.19-1.23-1.8-1.85-2.24 2.6-13.46 21.79-14.73 25.13z"/>
			<path id="&lt;Compound Path&gt;" fill-rule="evenodd" class="s1" d="m-1016.14-31.58c-0.25 0.88-0.49 2.46-1.12 3.85-1.49 3.26-4.19 4.28-7.4 2.82-1.4-0.64-2.71-1.56-3.91-2.54-2.45-2-4.47-4.46-5.68-7.36-1.71-4.07-3.12-8.26-4.56-12.43-0.33-0.95-0.41-2.06-0.33-3.07 0.15-1.92 2.17-3.19 4-2.58 0.73 0.25 1.44 0.65 2.05 1.11q5.48 4.08 10.9 8.24c1.88 1.43 3.38 3.22 4.54 5.3 1.05 1.86 1.41 3.89 1.51 6.66zm-17.1-14.18c1.52 4.31 2.57 7.77 4.47 10.86 1.08 1.74 2.43 3.34 3.8 4.88 0.84 0.95 1.85 1.85 3.27 1.81 0.24-0.16 0.52-0.26 0.64-0.46 0.26-0.43 0.53-0.9 0.62-1.38 0.65-3.43-0.12-6.45-2.77-8.83-2.79-2.51-5.88-4.62-10.03-6.88z"/>
			<path id="&lt;Compound Path&gt;" fill-rule="evenodd" class="s1" d="m-1066.12-21.94c0.06-3.17 0.86-6.19 2.08-9.08 2.75-6.45 6.74-12 12.24-16.42 0.4-0.32 0.8-0.67 1.23-0.96 2.5-1.7 3.83-1.1 4.07 1.86 0.07 0.91 0.18 1.84 0.05 2.73-0.7 5.01-0.96 10.1-2.28 15.02-0.95 3.55-2.29 6.91-4.35 9.96-1.43 2.1-3.27 3.71-5.63 4.67-2.88 1.17-5.09 0.31-6.48-2.46-0.75-1.5-0.99-2.89-0.93-5.32zm14.62-19.3c-0.91 0.65-1.25 0.82-1.48 1.08-2.73 3.18-5.23 6.55-7.05 10.32-1.12 2.33-1.91 4.85-2.63 7.34-0.44 1.49-0.41 3.1 0.2 4.62 0.53 1.32 1.48 1.71 2.8 1.22 1.94-0.71 3.43-2.01 4.3-3.8 1.03-2.1 1.96-4.28 2.59-6.52 1.24-4.43 1.08-9.02 1.27-14.26z"/>
			<path id="&lt;Path&gt;" class="s1" d="m-1066.91-54.52c-1.69 0.59-2.61 1.09-3.59 1.22-2.62 0.36-4.99 1.36-7.35 2.45-0.81 0.38-1.67 0.79-2.54 0.9-0.53 0.07-1.35-0.28-1.64-0.7-0.28-0.43-0.26-1.31 0-1.78 0.36-0.64 1.01-1.18 1.65-1.58 2.35-1.46 4.93-2.32 7.66-2.68 1.99-0.26 3.8 0.15 5.81 2.17z"/>
			<path id="&lt;Path&gt;" class="s1" d="m-985.69-115.62c-0.14-0.31-0.47-0.7-0.42-1.01 0.08-0.41 0.47-1.09 0.71-1.09 1.93 0.05 3.39 1.11 4.58 2.51 0.25 0.28 0.13 0.99-0.02 1.44-0.24 0.71-0.91 0.9-1.59 0.8-1.58-0.22-2.32-1.52-3.26-2.65z"/>
			<path id="&lt;Path&gt;" class="s1" d="m-996.75-124.29c0.24-0.07 0.66-0.31 0.98-0.21q1.85 0.55 3.62 1.32c0.25 0.11 0.47 0.64 0.43 0.95-0.04 0.32-0.36 0.77-0.64 0.85-1.59 0.43-3.07 0.1-4.43-0.81-0.62-0.41-0.66-1.72 0.04-2.1z"/>
			<path id="&lt;Path&gt;" class="s1" d="m-999.06-99c2 0.31 2.69 1.81 3.11 3.48 0.07 0.27-0.22 0.76-0.49 0.96-0.26 0.19-0.77 0.31-1.05 0.19-1.5-0.66-2.13-2.53-1.57-4.63z"/>
			<path id="&lt;Path&gt;" class="s1" d="m-996.53-104.1c2.02 1.35 3.86 2.8 5.17 5.09-0.55 0.13-0.98 0.39-1.16 0.27-1.98-1.39-3.04-2.71-4.01-5.36z"/>
			<path id="&lt;Path&gt;" class="s1" d="m-978.49-122.86c-0.17 0.27-0.33 0.79-0.68 1.01-0.7 0.47-1.76 0.17-1.92-0.53-0.08-0.38 0.18-1.03 0.5-1.26 0.65-0.49 1.63-0.14 2.1 0.78z"/>
			<path id="&lt;Path&gt;" class="s1" d="m-1016.8-100.01c1.12 1.56 0.75 5.23-0.79 6.4-0.52 0.39-1.45 0.44-2.15 0.34-0.8-0.12-1.33-0.78-1.36-1.65-0.07-2.01 0.77-3.73 1.93-5.3 0.49-0.68 1.87-0.5 2.37 0.21z"/>
			<path id="&lt;Path&gt;" class="s1" d="m-1014.13-111.82c0.75 1.85 1.03 3.47 0.11 5.04-0.2 0.34-0.84 0.61-1.26 0.6-0.43-0.02-1.03-0.33-1.25-0.69-0.8-1.35-0.38-4.01 0.83-4.92 0.35-0.27 1.08-0.03 1.57-0.03z"/>
			<path id="&lt;Path&gt;" class="s1" d="m-1025.47-89.39c-0.45-0.13-1.01-0.14-1.3-0.42-0.83-0.77-0.87-1.83-0.51-2.82 0.15-0.42 0.6-0.93 0.98-1 0.3-0.05 0.89 0.45 1.03 0.83 0.26 0.7 0.34 1.48 0.37 2.23 0.01 0.32-0.31 0.66-0.57 1.18z"/>
			<path id="&lt;Path&gt;" class="s1" d="m-996.02-136.81c-1.3 0.93-2.75 1.48-4.34 1.2-0.53-0.09-1.1-0.61-1.42-1.1-0.36-0.54 0.19-1.7 0.9-1.88q2.24-0.57 4.53-0.85c0.39-0.04 1.06 0.35 1.2 0.7 0.14 0.37-0.15 0.95-0.32 1.4-0.09 0.22-0.36 0.36-0.55 0.53z"/>
			<path id="&lt;Path&gt;" class="s1" d="m-992.53-145.63c-0.6 0.29-1.16 0.7-1.77 0.8-0.41 0.06-1.06-0.21-1.29-0.54-0.23-0.34-0.27-1.06-0.06-1.4 0.88-1.45 2.41-1.91 3.95-2.2 0.27-0.05 0.77 0.31 0.91 0.6 0.15 0.3 0.12 0.85-0.07 1.1-0.48 0.61-1.1 1.1-1.67 1.64z"/>
		</g>
		<g id="&lt;Group&gt;">
			<path id="&lt;Compound Path&gt;" fill-rule="evenodd" class="s0" d="m-911.63-335.06c0.55 7.42 0.82 15.2-0.87 22.92-2.53 11.61-5.65 23.04-10.47 33.96-2.7 6.12-5.8 12.01-9.91 17.31-7.82 10.06-17.97 16.67-30.08 20.42-4.56 1.41-9.25 2.15-13.93 2.89-7.04 1.12-14.1 2.08-21.13 3.21-5.69 0.92-11.36 1.99-17.03 2.97-3.3 0.57-5.94 2.09-7.59 5.1-1.01 1.85-2.54 3.13-4.46 4.01-3.19 1.46-6.01 3.55-8.98 5.41-2.48 1.56-4.76 3.34-7.06 5.14-0.61 0.48-1.31 0.9-2.04 1.17-1.22 0.45-2.64-0.79-2.34-2.06 0.17-0.75 0.52-1.49 0.95-2.13 0.75-1.13 1.6-2.19 2.43-3.27 3.44-4.47 5.75-9.44 6.79-14.99 0.78-4.23 1.59-8.44 2.34-12.67 2.38-13.5 5.81-26.71 10.56-39.58 3.58-9.7 8.1-18.91 14.51-27.09 6.2-7.89 13.4-14.68 22.25-19.58 4.18-2.32 8.63-3.92 13.15-5.38 6.84-2.2 13.02-5.67 18.83-9.86q1.51-1.08 2.96-2.26c5.36-4.36 11.63-6.39 18.38-7.12 3.18-0.35 6.32 0 9.4 0.86 4.26 1.18 7.43 3.72 9.46 7.66 2.04 3.96 3.2 8.19 3.88 12.96zm-121.77 113.62c1.61-0.77 3.17-1.65 4.82-2.29 2.2-0.86 3.85-2.21 5.06-4.26 1.49-2.52 3.75-4.24 6.52-5.14 3.01-0.97 6.04-1.96 9.13-2.58 8.86-1.79 17.76-3.4 26.65-5.07 4.89-0.92 9.77-1.92 14.44-3.65 10.79-3.98 19.59-10.65 26.28-20.03 3.5-4.89 6.35-10.14 8.82-15.62 4.56-10.12 8.15-20.58 11.39-31.19q2.9-9.47 3.04-19.35c0.06-4.29-0.19-8.54-1.4-12.75-1.64-5.71-5.28-8.74-11.09-9.35-0.67-0.07-1.35-0.16-2.02-0.13-6.82 0.22-13.15 1.87-18.65 6.15-2.14 1.66-4.34 3.33-6.76 4.5-5.78 2.8-11.56 5.65-17.73 7.6-2.14 0.68-4.24 1.55-6.29 2.49-7.76 3.55-14 9.03-19.43 15.53-6 7.19-10.39 15.33-13.78 24.01-3.88 9.89-7.2 19.98-9.88 30.27-1.97 7.56-3.12 15.27-4.42 22.95-1.02 6.02-2.04 12.04-4.7 17.91z"/>
			<path id="&lt;Compound Path&gt;" fill-rule="evenodd" class="s1" d="m-1008.13-398.92c0.79 7.94 0.87 15.82-0.46 23.69-1.17 6.94-3.9 13.21-8.26 18.73-1.81 2.3-3.81 4.47-5.86 6.57-2.84 2.92-5.81 5.7-8.71 8.55-1.37 1.35-2.68 2.77-4.05 4.11-4.5 4.36-7.39 9.64-9.19 15.6-1.11 3.67-2.41 7.29-3.59 10.94-0.48 1.51-0.84 3.04-0.37 4.65 0.13 0.42 0.1 0.91 0.04 1.34-0.2 1.28-1.57 2.15-2.8 1.68-0.72-0.27-1.44-0.68-1.99-1.21-0.97-0.94-1.89-1.96-2.68-3.05-5.05-6.97-8.34-14.72-10.09-23.13-0.68-3.24-0.63-6.51-0.29-9.79 0.35-3.49 0.76-6.97 0.97-10.46 0.46-7.51-0.48-14.9-2.14-22.21-1.66-7.27-3.69-14.46-4.82-21.85-1.62-10.58-1.9-21.15 0.08-31.71 0.42-2.22 1.02-4.4 1.68-6.56 1.17-3.81 3.47-6.84 6.77-9.06 5.45-3.67 11.42-5.94 18.03-6.26 4.54-0.23 8.75 0.98 12.48 3.58 6.39 4.45 11.77 9.86 15.61 16.71 3.17 5.65 5.51 11.64 7.13 17.9 0.96 3.71 1.68 7.49 2.51 11.24zm-41.39 89.11c1.75-6.39 3.38-12.02 4.8-17.71 0.7-2.8 1.79-5.35 3.58-7.58 2.89-3.62 5.85-7.18 8.75-10.79 3.04-3.78 6.24-7.46 9.03-11.42 4.31-6.11 6.7-13 7.53-20.44 1.42-12.77 0.09-25.26-3.83-37.47-1.8-5.61-4.16-10.98-7.46-15.89-2.61-3.87-5.68-7.31-9.45-10.09-2.72-2-5.74-3.18-9.14-3.07q-8.66 0.28-16.01 4.9c-2.77 1.74-4.78 4.14-5.82 7.25-0.71 2.14-1.4 4.31-1.81 6.52-2.28 12.16-1.92 24.3 1.01 36.3 1.49 6.14 3.42 12.17 5.16 18.24 2.06 7.19 3.77 14.44 3.97 21.95q0.09 4.06 0.04 8.13-0.05 5.46 1.39 10.72c1.75 6.33 4.14 12.42 7.01 18.32 0.24 0.49 0.55 0.94 1.25 2.13z"/>
			<path id="&lt;Path&gt;" class="s1" d="m-990.4-308.19c1.09 0.86 1.15 2.11 1.34 3.33q0.67 4.35 1.38 8.7c0.11 0.64 0.32 1.25 0.44 1.74 0.97 0.36 1.27-0.23 1.59-0.63 4.13-5.19 9.18-9.34 14.77-12.84 6.9-4.33 13.35-9.25 19.43-14.68 3.1-2.79 6.51-5.24 9.8-7.8 0.77-0.6 1.57-1.28 2.93-0.67-0.49 0.61-0.83 1.17-1.29 1.6-4.49 4.13-8.95 8.29-13.52 12.32-3.89 3.44-7.9 6.75-11.91 10.05-3.22 2.67-6.39 5.39-9 8.69-0.68 0.87-1.29 1.8-2.16 3.04 0.89 0.13 1.41 0.3 1.9 0.25q9.1-0.88 18.2-1.81c1.11-0.11 2.22-0.3 3.21-0.43 0.57 0.87 0.15 1.29-0.35 1.53-0.91 0.43-1.84 0.88-2.8 1.12-6.83 1.63-13.74 2.72-20.78 2.77-0.45 0.01-0.89 0.07-1.57 0.12-3.22 5.27-5.31 11.03-6.98 17.33 3.02 0.1 5.71 0.22 8.4 0.25 4.97 0.08 9.94 0.09 14.9 0.18 0.89 0.01 1.79 0.19 2.66 0.4 0.65 0.16 0.83 1.25 0.25 1.66-0.62 0.45-1.31 0.9-2.04 1.08-1.09 0.27-2.23 0.39-3.36 0.43-7.1 0.31-14.21 0.86-21.3-0.22-0.2-0.03-0.43 0.08-0.84 0.17-0.37 0.8-0.8 1.7-1.2 2.62-5.88 13.53-15.59 23.35-28.85 29.72-0.91 0.44-1.85 0.87-2.83 1.1-2.34 0.54-4.08-1.39-3.2-3.64 0.44-1.11 1.22-2.18 2.07-3.04 1.34-1.37 2.88-2.54 4.3-3.82 3.03-2.72 6.12-5.36 9.02-8.21 4.49-4.4 7.81-9.63 10.24-15.43 1.04-2.5 1.94-5.07 3-7.56 1.23-2.91 2.49-5.81 3.89-8.64 0.64-1.29 0.82-2.43 0.53-3.86q-1.01-4.98-1.6-10.03c-0.19-1.67 0-3.38 0.07-5.07 0.03-0.58 0.24-0.77 1.26-1.82z"/>
			<path id="&lt;Path&gt;" class="s1" d="m-934.73-313.15c-0.13 0.39-0.15 0.88-0.41 1.12-0.48 0.43-1.07 0.83-1.68 1.04-1.9 0.65-3.81 1.32-5.77 1.74-0.92 0.21-1.98-0.04-2.94-0.24-0.28-0.06-0.54-0.67-0.61-1.06-0.05-0.24 0.23-0.6 0.46-0.81 0.23-0.21 0.56-0.39 0.88-0.45q4.62-0.82 9.26-1.57c0.19-0.04 0.41 0.11 0.81 0.23z"/>
			<path id="&lt;Path&gt;" class="s1" d="m-946.72-279.96c-1.56 0.05-2.92 0.19-4.26 0.12-0.62-0.04-1.25-0.41-1.81-0.73-0.43-0.25-0.3-1.24 0.15-1.46 0.3-0.14 0.62-0.32 0.93-0.33q3.88-0.11 7.75-0.17c0.11 0 0.26 0.02 0.32 0.09 0.29 0.3 0.76 0.63 0.76 0.94-0.01 0.34-0.41 0.81-0.75 0.96-0.6 0.27-1.29 0.35-1.95 0.47-0.45 0.08-0.9 0.09-1.14 0.11z"/>
			<path id="&lt;Path&gt;" class="s1" d="m-1005.31-277.47c-0.75-0.41-1.41-0.6-1.8-1.04-1.55-1.79-2.62-3.87-3.34-6.13-0.06-0.2-0.08-0.47 0-0.65 0.13-0.28 0.32-0.62 0.57-0.73 0.25-0.09 0.65 0.01 0.89 0.17 0.26 0.17 0.45 0.49 0.58 0.79q1.52 3.16 2.97 6.36c0.13 0.27 0.07 0.62 0.13 1.23z"/>
			<path id="&lt;Path&gt;" class="s1" d="m-1050.95-336.51c-0.32-0.75-0.59-1.11-0.63-1.5-0.14-1.46-0.34-2.93-0.29-4.39 0.33-9.41 2.1-18.61 4.29-27.73 0.61-2.5 1.54-4.99 2.71-7.29 2.31-4.57 2.56-9.28 1.58-14.28-6.39-3.44-10.49-9.06-13.97-15.22-1.55-2.75-2.93-5.6-4.32-8.43-0.38-0.76-0.36-1.55 0.93-1.94 1.04 1.09 1.43 2.66 2.27 3.94 0.81 1.22 1.46 2.54 2.23 3.79q1.23 2.03 2.58 3.98 1.36 1.94 2.85 3.79c0.92 1.14 1.86 2.28 2.9 3.31 1.06 1.07 1.99 2.37 3.86 3.11-0.07-1-0.07-1.63-0.16-2.26-0.36-2.34-0.79-4.68-1.1-7.03-0.18-1.34-0.22-2.7-0.25-4.05-0.01-0.55 0.09-1.13 0.27-1.65 0.42-1.23 1.88-1.57 2.7-0.59 0.65 0.77 1.12 1.68 1.63 2.56 0.5 0.85 0.95 1.73 1.65 3 0.56-1.46 0.95-2.48 1.34-3.5 1.48-3.9 2.93-7.82 4.46-11.71 0.32-0.8 0.87-1.56 1.45-2.21 0.21-0.24 0.89-0.28 1.23-0.13 0.34 0.14 0.59 0.62 0.73 1.01 0.11 0.29 0.05 0.68-0.03 1-1.17 4.59-1.96 9.29-3.91 13.66-1.01 2.26-2.2 4.44-3.54 7.1 0.25 0.95 0.64 2.36 0.96 3.77 0.57 2.54 1.18 5.06 1.63 7.62 0.4 2.34 0.5 4.71 0.1 7.08-0.09 0.52-0.07 1.06-0.13 2.02 0.92-0.63 1.47-0.98 1.98-1.38 1.52-1.17 3.01-2.38 4.55-3.52 0.72-0.54 1.51-1.02 2.32-1.38 0.72-0.31 1.54-0.51 2.21 0.17 0.5 0.5 0.33 1.59-0.53 2.4-3.21 3.02-6.44 6.01-9.73 8.93-0.82 0.72-1.88 1.34-2.92 1.62-1.27 0.33-1.95 1.07-2.41 2.14q-1.41 3.26-2.74 6.56c-1.42 3.56-2.65 7.21-4.24 10.7-1.96 4.28-2.96 8.74-3.31 13.39-0.08 1.11 0.07 2.27-1.2 3.54z"/>
			<path id="&lt;Path&gt;" class="s1" d="m-1047.95-422.28c-0.72-0.27-1.36-0.32-1.69-0.66q-2.53-2.71-4.9-5.55c-0.32-0.39-0.38-1.04-0.45-1.58-0.07-0.63 0.82-1.23 1.43-1.02 0.21 0.07 0.47 0.11 0.61 0.26 1.98 2.14 3.9 4.35 5.06 7.07 0.15 0.34-0.02 0.82-0.06 1.48z"/>
			<path id="&lt;Path&gt;" class="s1" d="m-1061.77-388.86c2.14 0.09 3.99 0.44 5.58 1.64 0.21 0.15 0.33 0.62 0.26 0.87-0.08 0.26-0.46 0.64-0.68 0.62-1.79-0.16-3.58-0.33-5.35-0.65-0.49-0.08-1-0.69-0.75-1.31 0.19-0.46 0.65-0.82 0.94-1.17z"/>
			<path id="&lt;Path&gt;" class="s1" d="m-1024.08-403.02c0.11 0.87 0.3 1.32 0.2 1.7-0.4 1.56-1.35 2.79-2.52 3.86-0.57 0.51-1.23 0.48-1.83 0.03-0.61-0.47-0.78-1.16-0.39-1.78 1.03-1.59 2.32-2.92 4.54-3.81z"/>
			<path id="&lt;Path&gt;" class="s1" d="m-1042.16-423.71c-0.36-0.38-0.84-0.65-0.89-0.99-0.29-1.79-0.26-3.58 0.41-5.3 0.04-0.1 0.1-0.22 0.19-0.27 0.28-0.14 0.6-0.37 0.89-0.34 0.28 0.02 0.66 0.25 0.78 0.5 0.19 0.39 0.32 0.89 0.25 1.3-0.3 1.71 0.02 3.63-1.63 5.1z"/>
			<path id="&lt;Path&gt;" class="s1" d="m-1027.7-359.94c-1.04 1.12-1.76 1.94-2.55 2.69-0.17 0.16-0.66 0.16-0.9 0.03-0.24-0.13-0.44-0.49-0.49-0.78-0.06-0.3 0-0.68 0.16-0.95 0.69-1.23 1.35-1.43 3.78-0.99z"/>
		</g>
		<g id="&lt;Group&gt;">
			<path id="&lt;Compound Path&gt;" fill-rule="evenodd" class="s1" d="m-1249.12-206.34c0.17-7.93 2.83-14.81 8.72-20.26 5.36-4.96 11.76-7.99 18.81-9.8 6.96-1.78 13.54-0.9 19.91 2.32 1.93 0.97 4.01 1.65 6.02 2.47 2.11 0.86 4.27 1.62 6.31 2.62 1.18 0.58 2.17 1.54 3.24 2.34 0.74 0.55 1.46 1.14 2.21 1.68 6.15 4.48 9.98 10.41 11.25 17.94q0.28 1.69 0.25 3.4c-0.01 1.54-0.13 2.99 0.62 4.5 0.44 0.9 0.2 2.26-0.04 3.35q-1.33 6.09-3.79 11.82c-0.91 2.11-2.19 3.99-3.7 5.72-5.82 6.67-13.1 11.06-21.47 13.73-4.95 1.58-9.87 0.95-14.63-0.82-4.66-1.72-9.29-3.57-13.82-5.59-2.85-1.27-5.27-3.25-7.35-5.61-6.58-7.52-10.76-16.17-12.2-26.09-0.18-1.23-0.23-2.48-0.34-3.72zm71.57 11.39c2.89-4.35 3.24-8.21 2.28-12.35-1.61-6.93-5.41-12.33-11.61-15.79-7.99-4.47-16.62-5.87-25.56-3.94-8.5 1.83-14.8 6.7-18.21 14.95q-2.94 7.17-2.62 14.88c0.49 12.18 6.61 20.68 17.4 25.88 6.14 2.97 12.37 2.82 18.57-0.26 5.09-2.53 9.44-5.96 13.4-9.97 3.2-3.23 5.32-7.11 7.15-11.2 0.45-1.02-0.1-1.5-0.8-2.2zm-27.95-36.7c-0.63-0.37-0.86-0.57-1.13-0.66-3.42-1.04-6.91-1.45-10.45-0.93-6.04 0.88-11.63 3.04-16.63 6.56-4.14 2.9-7.53 6.51-9.41 11.32-1.49 3.82-2.13 7.74-1.55 11.88 0.65 4.63 1.35 9.22 3.27 13.54 2.04 4.57 4.66 8.79 7.58 12.83 0.98 1.36 2.11 2.57 3.66 3.29 0.39 0.17 0.86 0.16 1.75 0.32-0.99-1.17-1.65-1.95-2.32-2.74-3.31-3.85-5.6-8.24-6.6-13.21-1.84-9.12-0.93-17.94 3.28-26.33 2.19-4.36 5.3-7.91 9.42-10.53 4.91-3.14 10.25-4.93 16.09-5.18 0.88-0.04 1.76-0.09 3.04-0.16z"/>
			<g id="&lt;Group&gt;">
				<path id="&lt;Compound Path&gt;" fill-rule="evenodd" class="s1" d="m-1201.29-101.49q-0.37 3.55-0.74 7.1c-0.05 0.52-0.19 1.04-0.14 1.55 0.38 3.34-0.75 6.34-2.12 9.27-1.05 2.25-2.22 4.45-3.34 6.67-2.09 4.09-5.17 7.16-9.2 9.42-5.96 3.33-12.34 4.74-19.09 4.71-3.15-0.02-6.2-0.7-9.05-2.02-2.63-1.21-5.24-2.51-7.75-3.94-5.01-2.85-8.85-6.89-11.22-12.15-2.17-4.83-5.04-9.27-7.34-14.03-1.08-2.24-2.08-4.51-3.1-6.77-0.17-0.38-0.35-0.78-0.38-1.18-0.37-4.43-1.26-8.82-1.06-13.31 0.14-2.92 0.56-5.78 1.35-8.58 1.14-3.96 3.15-7.43 6.2-10.25 2.91-2.69 5.99-5.16 9.46-7.04 12.28-6.65 24.25-5.89 35.84 1.79 5.88 3.9 9.78 9.48 13.24 15.44 1.1 1.88 2.16 3.78 3.31 5.62 3.4 5.41 5.21 11.26 5.13 17.7zm-4.01 2.99q0.01-1.71-0.02-3.42c-0.27-11.4-9.2-22.22-16.52-25.9-4.57-2.29-9.28-3.01-14.19-1.85-7.86 1.87-14.66 5.73-20.06 11.79-5.28 5.92-7.21 12.91-6.11 20.77 0.55 3.93 1.82 7.63 3.43 11.25 4.01 9.09 11.33 14.08 20.63 16.41 5.66 1.42 11.31 0.6 16.84-1.19 4.66-1.5 8.23-4.25 10.65-8.52 1.23-2.16 2.56-4.26 3.81-6.41 0.71-1.23 1.65-2.42 0.84-4.02-0.15-0.3 0.01-0.83 0.14-1.21 0.86-2.51 0.65-5.12 0.56-7.7zm-23.11-37.45c-0.49-0.35-0.86-0.69-1.28-0.91-3.64-1.87-7.52-2.87-11.59-3.24-4.97-0.46-9.71 0.31-14.17 2.57-3.34 1.69-6.37 3.88-9.08 6.46-3.1 2.95-4.94 6.56-5.75 10.77-0.94 4.88-0.42 9.69 0.35 14.51 0.08 0.5 0.46 0.94 0.87 1.76 0.12-0.84 0.18-1.24 0.24-1.65 0.77-5.22 2.61-10.04 5.88-14.19 6.9-8.75 15.88-14.08 26.94-15.71 2.42-0.36 4.91-0.26 7.59-0.37z"/>
				<path id="&lt;Path&gt;" class="s1" d="m-1225.88-100.71c0.46-0.21 0.8-0.53 1.12-0.5 4.32 0.37 8.24 1.86 11.79 4.33 0.36 0.25 0.65 0.85 0.66 1.3 0.03 0.7-0.58 1.11-1.22 1.18q-1.69 0.16-3.39 0.13c-1.42-0.01-2.83-0.41-4.53-0.04 0.58 1.13 1.16 2.09 1.58 3.11 0.43 1.04 0.85 2.12 1.03 3.22 0.19 1.14-0.84 1.98-1.98 1.73-0.59-0.12-1.21-0.33-1.71-0.67q-1.91-1.3-3.72-2.76c-0.16-0.12-0.18-0.62-0.06-0.84 0.12-0.21 0.5-0.43 0.74-0.4 0.5 0.06 0.99 0.26 1.46 0.46 0.75 0.32 1.48 0.69 2.53 1.18-0.11-0.66-0.09-1.05-0.24-1.36-0.47-0.92-1.01-1.81-1.51-2.72-1.34-2.45-0.64-3.66 2.23-3.7 1.14-0.02 2.27 0.11 3.41 0.21 0.5 0.04 1 0.15 2.15 0.34-0.83-0.67-1.13-1.01-1.5-1.2-1.97-0.96-4.07-1.5-6.23-1.85-0.86-0.14-1.83-0.1-2.61-1.15z"/>
				<path id="&lt;Path&gt;" class="s1" d="m-1222.64-112c-0.5 0.15-0.89 0.22-1.25 0.37-0.76 0.32-1.41 0.07-2.01-0.38-0.77-0.56-1.47-1.57-2.27-3.18 1.26-1.28 2.18 0.3 3.4 0.46 0.47-0.6 0.91-1.29 1.47-1.85 0.99-1 2.4-0.78 3.11 0.46 0.25 0.44 0.41 0.94 0.54 1.43 0.78 2.83 0.19 5.49-1.03 8.07-0.13 0.27-0.29 0.6-0.54 0.73-0.33 0.18-0.76 0.28-1.12 0.24-0.18-0.03-0.43-0.46-0.43-0.71 0.01-1.13 0.11-2.25 0.14-3.38 0.03-0.7 0-1.39-0.01-2.26z"/>
				<path id="&lt;Path&gt;" class="s1" d="m-1241.62-108.21c0.31 1.12 0.55 1.77 0.66 2.45 0.21 1.14-0.25 2.16-1.32 2.49-1.16 0.36-2.41 0.5-3.62 0.6-0.48 0.04-1.02-0.27-1.11-0.88-0.1-0.6 0.26-0.99 0.77-1.19 0.93-0.36 1.89-0.66 2.97-1.04-0.59-1.23-1.13-2.22-1.56-3.25-0.52-1.26 0.28-2.28 1.65-2.19 0.2 0.01 0.41 0.01 0.61 0.07 3.84 1.14 7.14 3.09 9.69 6.04-0.2 0.91-0.63 1.12-1.17 0.83-0.82-0.43-1.58-0.97-2.37-1.46-1.49-0.91-2.95-1.87-5.2-2.47z"/>
				<path id="&lt;Path&gt;" class="s1" d="m-1238.68-84.08c-1.1-0.32-1.76-0.52-2.36-0.69-0.21-0.78 0.2-1.17 0.68-1.32 0.57-0.18 1.22-0.27 1.82-0.22 1.26 0.1 2.11 0.98 2.16 2.23 0.03 0.91-0.09 1.82-0.15 2.94 2.09-0.65 3.03-2.26 4.16-4.07 0.29 0.61 0.62 0.98 0.57 1.28-0.11 0.7-0.3 1.44-0.66 2.03-1.17 1.92-2.94 3.19-4.92 4.18-0.67 0.33-1.43 0.35-2.01-0.25-0.46-0.47-0.58-1.07-0.4-1.73 0.36-1.39 0.71-2.78 1.11-4.38z"/>
				<path id="&lt;Path&gt;" class="s1" d="m-1230.61-109.56c-0.4-0.05-0.62-0.04-0.79-0.12-1.4-0.6-2.22-1.94-2.09-3.39 0.07-0.75 0.57-1.32 1.31-1.49 0.7-0.16 1.61 0.12 1.81 0.77 0.3 1.06 0.51 2.16 0.56 3.25 0.02 0.34-0.56 0.71-0.8 0.98z"/>
				<path id="&lt;Path&gt;" class="s1" d="m-1226.43-78.07c0.21-0.36 0.55-1.09 1.06-1.69 0.55-0.65 1.58-0.62 2.22-0.09 0.54 0.44 0.66 1.24 0.22 1.95-0.38 0.6-0.78 1.22-1.31 1.68-0.33 0.28-0.99 0.47-1.36 0.34-0.37-0.14-0.58-0.73-0.81-1.14-0.09-0.16-0.02-0.41-0.02-1.05z"/>
				<path id="&lt;Path&gt;" class="s1" d="m-1243.08-93.46c-0.42-0.06-0.73-0.08-1.03-0.14-0.85-0.17-1.31-1.24-0.84-1.94 0.69-1.05 2.15-1.47 3.29-0.95 0.63 0.29 1.01 0.83 0.83 1.49-0.12 0.44-0.48 0.9-0.87 1.15-0.41 0.27-0.97 0.29-1.38 0.39z"/>
				<path id="&lt;Path&gt;" class="s1" d="m-1245.45-84.27c-1.23-0.04-1.76-0.91-1.43-1.6 0.45-0.98 1.19-1.69 2.23-2.02 0.65-0.21 1.29 0.08 1.56 0.69 0.18 0.41 0.22 1.04 0.02 1.42-0.58 1.12-1.65 1.48-2.38 1.51z"/>
				<path id="&lt;Path&gt;" class="s1" d="m-1212.66-102.96c-1.12 0.02-1.6-0.75-1.34-1.3q0.62-1.31 1.99-1.76c0.56-0.18 1.39 0.11 1.49 0.66 0.09 0.44 0.05 1.15-0.23 1.36-0.69 0.53-1.54 0.85-1.91 1.04z"/>
			</g>
			<path id="&lt;Path&gt;" class="s1" d="m-1215.28-210.91c0.85 1.03 1.79 1.98 2.52 3.09 0.91 1.37 0.06 2.97-1.58 3.19-1.09 0.14-1.51-0.52-1.06-1.7 0.07-0.19 0.13-0.38 0.23-0.68-0.98-1.24-2.07-2.48-2.96-3.85-0.55-0.84-0.93-1.84-1.16-2.83-0.21-0.94 0.81-1.77 1.79-1.57 0.4 0.08 0.82 0.19 1.15 0.42q4.43 3.11 8.81 6.28c0.16 0.12 0.2 0.61 0.09 0.82-0.11 0.22-0.54 0.48-0.73 0.42-0.96-0.32-1.96-0.62-2.81-1.15-1.39-0.85-2.67-1.88-4-2.84q-0.14 0.2-0.29 0.4z"/>
			<path id="&lt;Path&gt;" class="s1" d="m-1197.63-195.73c-1.66 1.17-1.26 2.86-1.84 4.06-0.61 0.19-0.87-0.08-0.93-0.54q-0.08-0.62-0.03-1.23c0.27-2.45 0.86-3.22 3.16-4.23-0.87-1.2-2.61-1.09-3.5-2.13 0.13-0.79 0.64-0.69 0.98-0.64q0.92 0.14 1.78 0.49c3.11 1.25 5.84 3.1 8.21 5.46 1.23 1.22 1.55 2.18 0.96 2.6-0.93 0.67-1.78 0.17-2.58-0.29-1.34-0.78-2.64-1.64-3.97-2.42-0.7-0.41-1.46-0.74-2.24-1.13z"/>
			<path id="&lt;Path&gt;" class="s1" d="m-1208.48-195.5c1.2 2.17-0.71 3.52-0.25 5.22 1.83-1.38 1.67-3.7 2.68-5.28 0.69-0.02 0.9 0.29 0.91 0.75 0.12 4.15-2.02 7.04-5.26 9.26-0.34 0.23-1.12 0.22-1.42-0.03-0.29-0.23-0.43-0.98-0.29-1.37 0.52-1.46 1.19-2.86 1.81-4.29 0.53-1.23 1.05-2.46 1.82-4.26z"/>
			<path id="&lt;Path&gt;" class="s1" d="m-1194.19-208.92c1.34-2.2 3.23-3.21 5.19-4.08 0.37-0.16 1.08-0.02 1.39 0.25 0.51 0.47 0.3 1.13-0.08 1.66-0.99 1.34-2.17 2.45-3.8 3.19-0.78-0.3-1.62-0.61-2.7-1.02z"/>
			<path id="&lt;Path&gt;" class="s1" d="m-1195.85-183.21c-0.6-0.25-1.24-0.32-1.48-0.67-0.77-1.09-1.43-2.25-2.03-3.44-0.13-0.26 0.08-0.85 0.33-1.07 0.25-0.23 0.79-0.36 1.13-0.26 1.72 0.52 2.67 1.83 3.24 3.46 0.06 0.18 0.07 0.46-0.04 0.6-0.33 0.46-0.72 0.88-1.15 1.38z"/>
			<path id="&lt;Path&gt;" class="s1" d="m-1216.79-195.26c-1-0.03-1.79 0.1-2.1-0.77-0.25-0.69 0.2-1.46 1.23-1.84 0.84-0.3 1.76-0.45 2.65-0.5 0.71-0.03 1.4 0.77 1.37 1.41-0.03 0.67-0.41 1.2-1.03 1.37-0.78 0.21-1.6 0.26-2.12 0.33z"/>
			<path id="&lt;Path&gt;" class="s1" d="m-1200.49-216.41c0.01 0.96-0.85 1.77-1.81 1.7-0.89-0.07-1.58-0.88-1.64-1.93-0.05-0.84 0.66-1.68 1.44-1.72 1-0.03 1.99 0.93 2.01 1.95z"/>
			<path id="&lt;Path&gt;" class="s1" d="m-1185.38-203.42c-1.72 1.04-1.72 1.04-4.51 0.81-0.27-0.98 0.45-1.28 1.12-1.43 1.15-0.25 2.36-0.52 3.39 0.62z"/>
		</g>
		<g id="&lt;Group&gt;">
			<path id="&lt;Compound Path&gt;" fill-rule="evenodd" class="s1" d="m-1129.16-31.51c-7.62 0.19-18.29-4.62-21.96-15.1-0.46-1.32-0.94-2.64-1.25-3.99-0.97-4.34-0.68-8.53 1.4-12.56 2.46-4.76 5.8-8.68 10.3-11.63 5.01-3.27 10.38-3.79 16.05-2.27 1.23 0.32 2.39 0.52 3.72 0.48 2.37-0.07 4.65 0.72 6.15 2.73 1.53 2.04 3.05 4.13 4.25 6.37 2.52 4.7 3.58 9.84 3.56 15.14-0.02 9.87-7.06 16.69-14.12 19.37-2.63 1-5.36 1.55-8.1 1.46zm1.75-43.18c-5-0.06-8.83 1.15-12.05 3.89-1.84 1.57-3.6 3.31-5.06 5.23-4.01 5.22-4.93 10.91-1.96 16.98q0.06 0.17 0.12 0.33c3.32 7.24 9.07 11 16.91 11.47 9.55 0.57 19.81-7.8 16.97-20.17-1.28-5.59-3.93-10.39-7.52-14.75-1.31-1.58-3-2.53-5.06-2.76-1.04-0.12-2.08-0.2-2.35-0.22z"/>
			<path id="&lt;Compound Path&gt;" fill-rule="evenodd" class="s1" d="m-1128.89-61.44c0.59 1.52 1.1 2.69 1.5 3.89 0.44 1.31 0.27 2.55-0.91 3.44-1.15 0.87-2.45 0.78-3.59 0.07-1.06-0.65-1.95-1.58-3.06-2.51-1.01 0.81-1.98 1.62-2.99 2.38-1.76 1.31-3.56 1.55-4.83 0.7-1.39-0.95-1.94-3-1.28-5.04 0.4-1.23 0.98-2.39 2.06-3.16 1.02-0.72 1.49-1.74 1.77-2.89 0.6-2.48 1.95-4.13 4.63-4.53 0.64-0.09 1.19-0.68 1.8-0.99 0.92-0.48 1.83-1.03 2.81-1.34 3.09-1 5.83 0.23 7.21 3.13 0.99 2.08 0.42 3.88-1.62 4.98-0.5 0.27-1.11 0.34-1.61 0.61-0.59 0.31-1.12 0.73-1.89 1.26zm-5.92 2.57c0.75 0.45 1.47 0.79 2.08 1.26 0.72 0.56 1.32 1.27 2.03 1.83 0.2 0.15 0.73 0.1 0.95-0.07 0.22-0.16 0.42-0.64 0.34-0.88-0.33-0.99-0.78-1.92-1.15-2.9-0.93-2.45-0.19-3.94 2.35-4.79 0.66-0.21 1.35-0.33 2-0.58 0.82-0.31 1.13-1.16 0.8-2.01-0.9-2.29-3.11-3.21-5.36-2.17-0.73 0.33-1.39 0.84-2.1 1.22-0.81 0.44-1.63 1.11-2.48 1.18-1.88 0.17-2.69 1.28-2.95 2.87-0.28 1.69-0.97 3.03-2.31 4.12-0.93 0.75-1.33 1.87-1.41 3.07-0.07 1.03 0.99 1.77 1.87 1.24 0.99-0.6 1.86-1.37 2.83-2 0.76-0.5 1.59-0.89 2.51-1.39z"/>
			<path id="&lt;Path&gt;" class="s1" d="m-1133.44-63.76c0.15 1.16-0.8 2.49-1.9 2.62-0.31 0.04-0.89-0.38-1-0.7-0.39-1.21 0.82-2.52 2.16-2.38 0.28 0.03 0.54 0.33 0.74 0.46z"/>
		</g>
		<g id="&lt;Group&gt;">
			<path id="&lt;Compound Path&gt;" fill-rule="evenodd" class="s1" d="m-959.2-408c-2.02-7.35 0.07-18.87 9.35-24.96 1.17-0.77 2.33-1.55 3.58-2.18 3.97-1.99 8.11-2.72 12.52-1.67 5.21 1.23 9.83 3.53 13.77 7.18 4.39 4.07 6.19 9.16 6.09 15.03-0.02 1.27 0.06 2.45 0.42 3.72 0.65 2.29 0.43 4.69-1.15 6.63-1.62 1.98-3.28 3.96-5.16 5.66-3.96 3.58-8.69 5.85-13.83 7.12-9.59 2.36-17.91-2.82-22.22-9.03-1.6-2.31-2.79-4.83-3.37-7.5zm42.33-8.74c-1.15-4.86-3.25-8.29-6.68-10.75-1.97-1.41-4.09-2.69-6.31-3.65-6.03-2.62-11.77-2.15-16.95 2.2q-0.14 0.1-0.28 0.2c-6.23 4.97-8.49 11.45-7.05 19.18 1.75 9.4 12.35 17.33 23.67 11.59 5.12-2.59 9.13-6.32 12.49-10.86 1.23-1.65 1.74-3.52 1.46-5.58-0.14-1.03-0.31-2.06-0.35-2.33z"/>
			<path id="&lt;Compound Path&gt;" fill-rule="evenodd" class="s1" d="m-930.08-414.98c-1.34 0.95-2.35 1.72-3.42 2.4-1.17 0.75-2.41 0.88-3.55-0.05-1.13-0.91-1.36-2.19-0.95-3.47 0.39-1.18 1.07-2.27 1.7-3.57-1.02-0.79-2.05-1.53-3.03-2.33-1.7-1.39-2.37-3.08-1.84-4.51 0.58-1.59 2.44-2.62 4.58-2.47 1.29 0.09 2.55 0.38 3.56 1.24 0.95 0.82 2.05 1.03 3.23 1.02 2.55-0.02 4.48 0.9 5.52 3.4 0.24 0.59 0.94 0.99 1.4 1.5 0.68 0.79 1.43 1.53 1.97 2.4 1.72 2.76 1.19 5.72-1.29 7.76-1.78 1.46-3.67 1.35-5.23-0.36-0.38-0.42-0.6-1-0.97-1.43-0.45-0.5-0.99-0.91-1.68-1.53zm-3.93-5.11c-0.25 0.83-0.41 1.61-0.72 2.32-0.37 0.83-0.92 1.58-1.28 2.41-0.1 0.23 0.08 0.73 0.29 0.91 0.21 0.17 0.72 0.24 0.94 0.11 0.88-0.55 1.68-1.22 2.53-1.81 2.16-1.5 3.78-1.14 5.22 1.12 0.37 0.59 0.65 1.23 1.04 1.8 0.5 0.72 1.4 0.81 2.15 0.29 2.01-1.43 2.36-3.8 0.81-5.73-0.5-0.63-1.15-1.14-1.69-1.74-0.62-0.68-1.47-1.31-1.75-2.12-0.61-1.79-1.89-2.31-3.5-2.17-1.71 0.13-3.17-0.21-4.55-1.25-0.96-0.71-2.14-0.84-3.32-0.63-1.02 0.18-1.48 1.39-0.75 2.12 0.82 0.81 1.78 1.48 2.63 2.26 0.66 0.62 1.24 1.34 1.95 2.11z"/>
			<path id="&lt;Path&gt;" class="s1" d="m-928.94-419.94c-1.08 0.41-2.61-0.18-3-1.22-0.11-0.29 0.15-0.96 0.44-1.14 1.08-0.67 2.65 0.19 2.83 1.52 0.04 0.29-0.19 0.61-0.27 0.84z"/>
		</g>
		<g id="&lt;Group&gt;">
			<path id="&lt;Compound Path&gt;" fill-rule="evenodd" class="s1" d="m-1071.05-264.09c0.53 8.39-6.33 20.06-18.26 22.94-6.92 1.67-12.94 0.17-18.02-4.78-4.56-4.46-7.93-9.65-8.9-16.11-0.14-0.92-0.27-1.87-0.18-2.78 0.64-6.93 2.86-13.26 7.49-18.56 3.82-4.37 8.63-6.56 14.54-5.84 0.53 0.07 1.12 0.03 1.57 0.26 3.06 1.55 6.53 2.22 9.37 4.21 2.18 1.52 4.27 3.17 6.38 4.79 1.72 1.33 3.06 2.98 3.8 5.03 1.28 3.52 2.26 7.1 2.21 10.84zm-14.73-18.98c-0.98 0.79-1.69 1.44-2.71 0.72q-0.81-0.59-1.67-1.08-8.24-4.47-14.9 2.13c-4.06 4-6.08 8.97-6.87 14.5-0.39 2.8-0.14 5.59 1.07 8.2 1.86 4.04 4.41 7.57 7.9 10.38 4.97 4 10.5 4.36 16.14 2 8.57-3.58 13.18-12.84 11.24-21.92-0.25-1.16-0.44-2.37-0.88-3.47-0.59-1.46-1.18-3.01-2.14-4.22-2.06-2.59-4.36-4.99-7.18-7.24z"/>
			<path id="&lt;Compound Path&gt;" fill-rule="evenodd" class="s1" d="m-1113.36-312.54c2.99 3.4 3.18 7.54 1.87 11.57-2.59 7.94-7.99 13.34-15.94 16.07-2.99 1.02-6 0.96-8.99-0.11q-4.75-1.7-8.64-4.88c-0.82-0.67-1.63-1.39-2.26-2.23-4.31-5.71-6.14-12.09-4.48-19.13 1.19-5.02 4.28-8.83 8.8-11.32 3.78-2.09 7.78-2.54 11.9-0.91 0.6 0.24 1.23 0.4 1.96 0.65 0.08-1.11 0.07-2.03 0.23-2.93 0.21-1.27 1.3-2.23 2.44-2.21 1.18 0.04 2 0.68 2.45 1.74 0.25 0.61 0.37 1.28 0.57 1.91 0.14 0.5 0.31 0.99 0.54 1.73 1.08-0.3 2.04-0.65 3.03-0.83 1.91-0.34 2.56 0.16 3.01 2.14 0.09 0.38 0.13 0.77 0.22 1.35 1.02 0.1 2.05 0.15 3.06 0.32 1.59 0.27 2.62 1.64 2.14 3.19-0.41 1.35-1.25 2.57-1.91 3.88zm-12.69-5.22c1.06 0.64 2.21 1.27 3.3 1.97q2.01 1.28 3.94 2.67c0.21 0.15 0.2 0.59 0.46 1.42-2.3-1.16-4.17-2.07-6-3.03-1.65-0.86-3.37-1.62-3.83-3.75-0.09-0.42-0.63-0.87-1.07-1.07-2.71-1.24-5.5-1.83-8.52-1.19-7.65 1.62-11.61 9.56-10.68 16.03 1.1 7.69 5.24 12.86 12.45 15.7 2.46 0.96 4.9 1.1 7.41 0.37 6.23-1.8 10.29-5.94 12.44-11.93 0.61-1.7 1.12-3.78 0.7-5.44-0.67-2.57-0.64-5.14-0.99-7.74 0.76-1.34 3.36-1.43 2.67-4.02-1.21 0-2.39 0.02-3.57-0.01-0.86-0.02-1.52-0.38-1.93-1.18-0.27-0.54-0.59-1.06-0.97-1.72-1.34 0.85-2.47 1.46-3.92 1.06-1.21-0.34-1.55 0.65-1.89 1.86z"/>
			<path id="&lt;Compound Path&gt;" fill-rule="evenodd" class="s1" d="m-1095.73-279.83c0.07-0.07 0.33-0.37 0.6-0.64 2.36-2.3 4.88-2.07 6.58 0.63 0.79 1.23 0.86 2.5 0.04 3.73-0.58 0.88-1.23 1.7-1.97 2.71 1.18 1.01 2.35 1.86 3.34 2.88 1.17 1.21 1.7 2.68 1.06 4.38-0.62 1.65-1.81 2.71-3.51 2.86-1 0.09-2.09-0.23-3.04-0.61-0.97-0.39-1.79-1.13-2.72-1.64-0.81-0.45-1.59-0.23-2.12 0.48-0.55 0.75-0.92 1.61-1.44 2.38-2.08 3.04-5.53 3.87-8.77 2.12-2.6-1.4-3.91-4.51-2.37-7.16 1.75-3.01 3.03-6.11 3.95-9.46 0.52-1.9 2.17-3.04 4.25-3.03 1.97 0.01 3.93 0.23 6.12 0.37zm-2.95 1.92c-1.07 0-2.25-0.04-3.43 0.02-1.04 0.05-1.75 0.69-2.04 1.64-0.3 1.01-0.46 2.06-0.6 3.11-0.22 1.61-0.68 3.1-1.81 4.33-0.35 0.39-0.71 0.79-0.98 1.24-1.05 1.76-0.78 3.65 0.63 4.63 1.9 1.31 4.08 1.15 5.36-0.49 0.57-0.72 0.92-1.61 1.42-2.39 1.53-2.39 3.7-2.99 6.13-1.65 0.93 0.5 1.77 1.17 2.69 1.68 0.94 0.51 1.98 0.24 2.43-0.56 0.44-0.8 0.26-1.58-0.37-2.16-0.88-0.8-1.9-1.46-2.76-2.27-1.2-1.13-1.46-2.58-0.66-3.98 0.58-1.02 1.36-1.93 2.05-2.88-0.21-0.44-0.29-0.87-0.55-1.14-1-1.08-1.96-0.93-2.35 0.33-0.08 0.25-0.09 0.53-0.18 0.77-0.37 1.09-0.2 2.65-1.64 2.92-1.8 0.36-1.76-1.62-2.61-2.49-0.09-0.1-0.2-0.18-0.73-0.66z"/>
			<path id="&lt;Path&gt;" class="s1" d="m-1099.59-274.18c1.11 0.07 2 0.99 2.01 2.06 0.01 1.26-1.02 2.23-2.31 2.17-1.25-0.06-2.17-1.2-1.97-2.46 0.18-1.09 1.15-1.85 2.27-1.77z"/>
		</g>
		<g id="&lt;Group&gt;">
			<path id="&lt;Compound Path&gt;" fill-rule="evenodd" class="s1" d="m-1275.86-442.13c2.11-3.31 5.12-5.28 8.96-5.97 2.79-0.5 5.59-0.55 8.35 0.02 5.89 1.2 11.25 3.51 15.61 7.79q1.18 1.16 2.42 2.24c4.77 4.17 9.93 7.73 15.78 10.24 3.86 1.66 7.65 3.44 11.14 5.83 7.39 5.05 13.17 11.62 17.97 19.09 4.98 7.73 8.2 16.22 10.55 25.06 3.13 11.73 5.06 23.65 6.04 35.74 0.3 3.79 0.67 7.57 1.01 11.36 0.45 4.97 2.08 9.55 4.74 13.77 0.64 1.01 1.31 2.02 1.87 3.07 0.32 0.61 0.57 1.29 0.67 1.96 0.15 1.14-1.2 2.12-2.24 1.62-0.62-0.29-1.2-0.73-1.7-1.2-1.87-1.77-3.74-3.53-5.8-5.11-2.45-1.88-4.76-3.95-7.46-5.51-1.62-0.93-2.86-2.18-3.6-3.9-1.2-2.79-3.4-4.34-6.26-5.11-4.92-1.34-9.82-2.75-14.76-4.03-6.1-1.58-12.24-3.01-18.34-4.57-4.07-1.05-8.14-2.09-12.04-3.71-10.36-4.3-18.76-10.96-24.81-20.47-3.19-5.01-5.43-10.45-7.31-16.07-3.34-10.02-5.14-20.34-6.42-30.78-0.84-6.94 0.04-13.77 1.14-20.26 0.99-4.15 2.36-7.78 4.49-11.1zm90.73 105.09c-0.51-6.88-0.88-13.77-2-20.59-1.51-9.28-3.6-18.45-6.19-27.48-2.28-7.93-5.47-15.46-10.17-22.29-4.24-6.18-9.28-11.52-15.83-15.29-1.73-0.99-3.5-1.94-5.33-2.71-5.27-2.23-10.13-5.21-14.99-8.16-2.03-1.23-3.84-2.89-5.58-4.52-4.5-4.23-9.94-6.2-15.93-6.97-0.59-0.07-1.19-0.06-1.79-0.05-5.17 0.06-8.62 2.43-10.54 7.33-1.42 3.61-1.98 7.33-2.29 11.12q-0.69 8.71 1.08 17.29c1.98 9.61 4.28 19.13 7.46 28.42 1.72 5.03 3.8 9.89 6.47 14.49 5.13 8.81 12.32 15.42 21.5 19.82 3.97 1.91 8.19 3.19 12.43 4.4 7.68 2.21 15.39 4.37 23.05 6.68 2.67 0.8 5.26 1.92 7.83 3.02 2.37 1.02 4.21 2.72 5.32 5.07 0.89 1.9 2.24 3.23 4.1 4.17 1.41 0.7 2.71 1.6 4.06 2.41-1.86-5.39-2.26-10.77-2.66-16.16z"/>
			<path id="&lt;Path&gt;" class="s1" d="m-1213.18-400.85c-1.03 0.66-1.19 1.76-1.45 2.82q-0.95 3.78-1.94 7.55c-0.15 0.55-0.38 1.08-0.53 1.49-0.89 0.24-1.1-0.3-1.35-0.68-3.21-4.91-7.32-8.98-11.95-12.53-5.72-4.39-10.99-9.25-15.9-14.55-2.51-2.7-5.31-5.14-8-7.68-0.62-0.58-1.27-1.25-2.52-0.82 0.38 0.58 0.63 1.1 1.01 1.51 3.61 4.01 7.19 8.04 10.89 11.98 3.15 3.34 6.4 6.59 9.66 9.83 2.62 2.62 5.19 5.28 7.21 8.4 0.53 0.82 0.99 1.69 1.65 2.85-0.79 0.04-1.26 0.16-1.69 0.08q-7.95-1.53-15.89-3.11c-0.97-0.19-1.93-0.44-2.79-0.64-0.57 0.72-0.24 1.12 0.18 1.37 0.77 0.46 1.55 0.93 2.38 1.22 5.88 2 11.88 3.53 18.08 4.16 0.39 0.04 0.78 0.14 1.37 0.24 2.4 4.9 3.76 10.15 4.71 15.84-2.66-0.17-5.04-0.28-7.42-0.47-4.38-0.34-8.76-0.74-13.14-1.08-0.78-0.06-1.59 0.02-2.37 0.14-0.59 0.08-0.83 1.03-0.37 1.44 0.52 0.45 1.09 0.9 1.72 1.12 0.93 0.33 1.93 0.52 2.92 0.66 6.23 0.86 12.45 1.93 18.78 1.56 0.18-0.01 0.38 0.11 0.73 0.22 0.26 0.74 0.56 1.57 0.84 2.41 4.07 12.4 11.81 21.85 22.96 28.56 0.76 0.47 1.56 0.92 2.41 1.2 2.01 0.68 3.71-0.88 3.11-2.93-0.3-1.02-0.89-2.02-1.57-2.86-1.06-1.31-2.32-2.47-3.47-3.72-2.44-2.64-4.95-5.22-7.27-7.97-3.59-4.26-6.09-9.14-7.74-14.45-0.72-2.28-1.3-4.62-2.02-6.9-0.85-2.67-1.72-5.33-2.72-7.94-0.45-1.18-0.52-2.2-0.14-3.44q1.3-4.3 2.23-8.71c0.31-1.45 0.28-2.97 0.36-4.46 0.02-0.52-0.14-0.71-0.96-1.71z"/>
			<path id="&lt;Path&gt;" class="s1" d="m-1261.81-409.82c0.08 0.35 0.06 0.79 0.27 1.01 0.39 0.43 0.87 0.83 1.39 1.06 1.62 0.73 3.25 1.48 4.94 2.02 0.79 0.25 1.75 0.12 2.61 0.02 0.25-0.03 0.53-0.54 0.63-0.88 0.05-0.2-0.16-0.55-0.34-0.75-0.19-0.21-0.47-0.39-0.74-0.47q-4.01-1.1-8.03-2.15c-0.16-0.05-0.37 0.06-0.73 0.14z"/>
			<path id="&lt;Path&gt;" class="s1" d="m-1254-379.59c1.38 0.18 2.56 0.4 3.75 0.45 0.55 0.02 1.13-0.25 1.66-0.49 0.4-0.18 0.36-1.07-0.02-1.29-0.25-0.15-0.51-0.34-0.79-0.37q-3.41-0.42-6.82-0.8c-0.09-0.01-0.22 0-0.28 0.06-0.28 0.24-0.72 0.49-0.75 0.77-0.02 0.29 0.29 0.74 0.58 0.9 0.51 0.29 1.11 0.42 1.69 0.57 0.38 0.11 0.78 0.16 0.98 0.2z"/>
			<path id="&lt;Path&gt;" class="s1" d="m-1202.58-372.56c0.69-0.3 1.29-0.41 1.67-0.76 1.52-1.45 2.63-3.2 3.45-5.13 0.07-0.17 0.11-0.4 0.05-0.57-0.09-0.26-0.23-0.58-0.44-0.69-0.21-0.1-0.58-0.05-0.8 0.07-0.24 0.13-0.43 0.4-0.58 0.65q-1.59 2.67-3.14 5.36c-0.13 0.23-0.11 0.54-0.21 1.07z"/>
		</g>
		<g id="&lt;Group&gt;">
			<path id="&lt;Compound Path&gt;" fill-rule="evenodd" class="s0" d="m-1260.86 134.38c0.48-0.76 0.88-1.36 1.23-1.97 2.22-3.81 4.65-7.45 7.63-10.7 2-2.17 4.21-4.11 6.86-5.41 1.54-0.76 3.18-1.45 4.86-1.8 6.13-1.28 11.83 2.16 13.73 8.13 1.96 6.15-0.22 12.27-5.62 15.81-2.18 1.43-4.56 2.33-7.06 2.93-5.36 1.28-10.7 1.15-16.04-0.07-0.89-0.21-1.77-0.42-2.81-0.67-0.29 0.58-0.64 1.1-0.84 1.67-1.3 3.72-2.19 7.55-2.89 11.42-1.08 5.95-1.86 11.93-2.23 17.96-0.74 12.09 0.71 23.92 4.25 35.5 2.91 9.48 7.6 17.99 13.78 25.71 4 5 8.21 9.82 12.78 14.31 1.5 1.47 2.93 3.02 4.34 4.58 0.55 0.6 1.04 1.29 1.37 2.02 0.13 0.29-0.13 0.89-0.39 1.2-0.18 0.2-0.75 0.32-0.99 0.19q-1.32-0.72-2.5-1.65-7.65-6.07-13.98-13.52c-4.75-5.58-9.09-11.45-12.5-17.97-5.41-10.35-8.38-21.42-9.8-32.95-0.77-6.28-1.05-12.59-0.51-18.9q0.68-7.92 1.72-15.81c0.62-4.72 1.73-9.35 3.23-13.87 0.17-0.51 0.28-1.04 0.45-1.68-1.47-0.84-2.91-1.6-4.29-2.46-6.25-3.88-11.24-9.04-15.21-15.19-5.72-8.85-8.94-18.59-10.02-29.03-1.24-11.98-0.13-23.74 3.91-35.15 1.63-4.59 3.86-8.9 6.76-12.81 4.24-5.7 9.7-9.89 16.17-12.79 1.08-0.48 2.19-0.97 3.43-0.8 0.23 0.03 0.54 0.24 0.61 0.44 0.07 0.18-0.07 0.55-0.24 0.69-0.26 0.24-0.63 0.36-0.95 0.53-4.68 2.6-8.78 5.91-12.41 9.84-4.24 4.58-7.15 9.95-9.12 15.8-4.61 13.75-5.51 27.75-2.27 41.92 1.97 8.58 5.62 16.42 11.21 23.28 3.5 4.3 7.67 7.83 12.55 10.49 0.47 0.26 0.99 0.44 1.8 0.78zm4.82 1.6c0.46 0.3 0.59 0.45 0.76 0.49 5.59 1.52 11.17 1.55 16.72-0.23 1.57-0.51 3.05-1.21 4.34-2.27 3.3-2.72 4.15-6.78 2.2-10.58-1.19-2.34-3.14-3.55-5.71-3.6-1.15-0.03-2.36 0.23-3.47 0.59-1.83 0.59-3.44 1.65-4.94 2.87-3.59 2.92-6.26 6.61-8.69 10.49-0.42 0.68-0.76 1.4-1.21 2.24z"/>
			<path id="&lt;Path&gt;" class="s0" d="m-1207.73 270.86c-0.33-1.17-0.64-2.2-0.92-3.26q-1.25-4.77-2.46-9.55c-0.18-0.7-0.32-1.43-0.35-2.16-0.02-0.62 0.06-1.28 0.25-1.87 0.31-0.96 1.06-1.49 2.07-1.51 0.87-0.03 1.62 0.33 2.01 1.17 2.08 4.56 4.52 8.98 5.57 13.96q0.29 1.35 0.3 2.72c0 3.01-1.54 5.02-4.44 5.8-0.7 0.19-1.43 0.3-2.15 0.38-5.71 0.61-11.31-0.04-16.85-1.45-0.68-0.17-1.34-0.54-1.94-0.93-0.48-0.33-0.6-0.9-0.45-1.48 0.15-0.6 0.59-0.96 1.16-1.01q1.22-0.11 2.45-0.01c2.1 0.15 4.19 0.42 6.28 0.51q2.6 0.11 5.2-0.1c1.36-0.1 2.73-0.3 4.27-1.21z"/>
		</g>
		<g id="&lt;Group&gt;">
		</g>
		<g id="&lt;Group&gt;">
			<path id="&lt;Compound Path&gt;" fill-rule="evenodd" class="s2" d="m-792.96-263.36c-0.5 0.61-0.92 1.09-1.3 1.59-2.35 3.12-4.87 6.02-7.82 8.4-1.97 1.59-4.09 2.88-6.52 3.44-1.41 0.32-2.89 0.55-4.35 0.42-5.36-0.47-9.79-5.41-10.73-11.68-1.01-6.43 1.46-11.62 6.41-13.48 1.99-0.76 4.12-0.97 6.33-0.87 4.74 0.18 9.35 1.67 13.86 4.18 0.75 0.41 1.49 0.83 2.37 1.32 0.32-0.48 0.68-0.89 0.91-1.39 1.52-3.22 2.69-6.64 3.69-10.13 1.52-5.35 2.76-10.77 3.62-16.29q2.48-16.47-1.14-33.21c-2.05-9.01-5.82-17.46-11-25.45-3.39-5.15-6.98-10.15-10.93-14.95q-1.93-2.35-3.74-4.79c-0.47-0.62-0.89-1.3-1.17-1.98-0.12-0.28 0.13-0.71 0.37-0.91 0.16-0.13 0.67-0.1 0.88 0.06q1.16 0.89 2.19 1.92 6.68 6.74 12.1 14.41c4.04 5.78 7.68 11.76 10.43 18.15 4.28 10.26 6.23 20.78 6.68 31.53 0.19 5.91-0.09 11.79-1.11 17.52q-1.33 7.24-3.02 14.44c-1.01 4.33-2.47 8.47-4.27 12.44-0.2 0.44-0.35 0.92-0.57 1.49 1.19 1.16 2.37 2.25 3.48 3.41 5.04 5.22 8.82 11.41 11.56 18.36 3.89 10.09 5.39 20.58 4.82 31.4-0.75 12.57-3.63 24.46-9.06 35.38-2.2 4.41-4.87 8.36-8.06 11.73-4.64 4.9-10.03 7.84-16.02 9.07-0.99 0.2-2.01 0.4-3.02-0.14-0.19-0.11-0.41-0.42-0.44-0.66-0.02-0.21 0.16-0.55 0.33-0.66 0.26-0.17 0.6-0.19 0.89-0.29 4.41-1.4 8.47-3.75 12.25-6.89 4.43-3.69 7.86-8.58 10.55-14.2 6.28-13.14 9.27-27.33 8.52-42.49-0.53-9.07-2.7-17.71-6.74-25.79-2.55-5.03-5.79-9.46-9.75-13.22-0.39-0.36-0.82-0.66-1.48-1.19zm-4.02-2.73c-0.36-0.41-0.47-0.58-0.61-0.67-4.68-2.86-9.5-4.33-14.45-4.1-1.39 0.06-2.73 0.33-3.94 0.99-3.09 1.68-4.23 5.31-2.99 9.49 0.76 2.58 2.28 4.28 4.45 5.04 0.98 0.35 2.04 0.43 3.03 0.39 1.63-0.08 3.12-0.67 4.55-1.45 3.42-1.88 6.13-4.74 8.66-7.85 0.44-0.54 0.82-1.16 1.3-1.84z"/>
			<path id="&lt;Path&gt;" class="s2" d="m-821.85-387.97c0.27 1.32 0.54 2.49 0.76 3.66q1.05 5.36 2.07 10.73c0.15 0.79 0.27 1.61 0.29 2.41 0.01 0.7-0.06 1.42-0.23 2.06-0.27 1.05-0.92 1.59-1.79 1.56-0.76-0.02-1.41-0.46-1.73-1.41-1.77-5.17-3.85-10.22-4.72-15.79-0.15-1-0.25-2.03-0.24-3.03 0.02-3.34 1.36-5.48 3.86-6.18 0.61-0.17 1.24-0.25 1.87-0.29 4.92-0.35 9.75 0.69 14.52 2.56 0.59 0.23 1.16 0.68 1.67 1.15 0.41 0.39 0.51 1.03 0.38 1.67-0.13 0.65-0.51 1.03-1.01 1.05q-1.05 0.05-2.11-0.13c-1.81-0.29-3.61-0.71-5.42-0.93q-2.24-0.26-4.49-0.19c-1.17 0.04-2.35 0.18-3.68 1.1z"/>
		</g>
		<g id="&lt;Group&gt;">
			<path id="&lt;Compound Path&gt;" fill-rule="evenodd" class="s0" d="m176.01 140.5c-2.69-8.65-3.34-17.24 0.17-25.89 2.66-6.57 6.53-12.18 12.11-16.51 5.13-3.98 10.73-7.14 16.88-9.39 5.66-2.07 11.18-4.48 16.73-6.83 4.22-1.79 8.06-4.23 11.58-7.18 1.57-1.32 3.15-2.64 4.68-4.03 1.16-1.05 2.33-1.88 3.92-0.98 1.23 0.7 1.38 2.27 0.24 4.35-3.71 6.72-6.22 13.94-8.71 21.16-1.54 4.45-2.79 8.98-3.5 13.65-0.65 4.36-1.2 8.74-2.07 13.06-2.51 12.44-10.1 20.57-21.73 25.18-0.92 0.36-1.84 0.74-2.89 1.16 2.97 3.34 5.73 6.44 8.5 9.55 6.01-5.54 13.08-7.93 21.06-7.51 8.09 0.43 14.5 4.33 19.52 10.08 0.65 0.12 0.94 0.21 1.23 0.22 11.46 0.46 22.92 0.97 34.13 3.75 0.84 0.2 1.77 0.22 2.63 0.13 8.81-0.93 17.62-0.46 26.43 0.03 9.99 0.56 19.94 1.57 29.8 3.25 10.3 1.74 20.43 4.23 30.46 7.15 13.14 3.82 25.99 8.43 38.16 14.76 13.81 7.19 26.27 16.16 36.49 28.03 4.45 5.17 8.1 10.83 10.77 17.11 2.34 5.53 3.3 11.24 2.43 17.24-0.23 1.59-0.29 3.22-0.28 4.83q0.08 7.71 0.27 15.42c0.15 5.92-0.62 11.77-1.82 17.52-3.6 17.36-10.23 33.4-21.32 47.42q-2.58 3.3-5.19 6.58c-10.72 13.39-23.22 24.95-36.59 35.61-4.84 3.87-9.94 7.36-15.4 10.27-12.76 6.8-26.11 12.13-40.14 15.69-8.12 2.06-16.4 3.35-24.7 4.43-1.37 0.18-2.61 0.39-3.28 1.8-1.36 2.88-3.9 4.26-6.71 5.36-6.74 2.62-13.6 4.72-20.86 5.23-2.2 0.15-4.38 0.47-6.58 0.69-7.62 0.78-15.19 0.89-22.86-0.03q-14.02-1.69-27.92-4.09c-5.64-0.97-11.22-2.32-16.83-3.49-6.75-1.39-10.19-5.93-11.72-12.29-0.2-0.83-0.27-1.69-0.41-2.62-1.46-0.34-2.72-0.7-4-0.93-3.91-0.7-7.81-1.4-11.73-2.02-9.33-1.46-18.4-3.78-27.2-7.26-16.67-6.61-32.07-15.17-45.43-27.35-11.07-10.09-19.53-21.9-25.54-35.54-4.69-10.64-8.57-21.58-11.55-32.82-3.39-12.82-5.19-25.92-6.9-39.04-0.29-2.17-0.72-4.35-1.38-6.43-1.92-6.07-1.48-11.95 1.51-17.52 1.44-2.69 3.26-5.24 5.19-7.62 1.95-2.39 4.26-4.47 6.39-6.71 0.58-0.61 1.09-1.28 1.76-2.07-1.54-1.05-2.86-1.97-4.19-2.87-3.65-2.47-7.41-4.79-10.94-7.43-5.56-4.15-11.49-7.66-17.77-10.58-5.63-2.61-11.39-4.77-17.81-4.12-2.26 0.22-3.85-0.89-4.76-2.75 0.66-2.07 2.26-2.28 3.65-2.43 3.27-0.36 6.25-1.59 9.23-2.82 7.39-3.05 14.22-7.03 20.42-12.09q3.94-3.2 7.98-6.26c3.34-2.53 7.12-4.14 11.22-4.91 11.59-2.17 22.82-1.34 33.44 4.26 0.56 0.29 1.25 0.33 2.11 0.54 0.11-1.64 0.18-2.96 0.28-4.26 0.86-11.17 6.84-18.89 16.55-23.8 12.4-6.28 27.65 1.66 31.24 12.8 0.26 0.79 0.57 1.56 0.86 2.35 4.01-2.24 7.83-4.38 11.83-6.63-0.35-1.1-0.76-2.33-1.14-3.56zm-97.12 124.25c3.98 20.22 8.9 40.17 17.48 59.01 2.25 4.93 5.05 9.62 7.81 14.3 2.54 4.33 5.78 8.15 9.32 11.7 11.52 11.54 24.37 21.19 39.42 27.74 7.41 3.22 14.72 6.69 22.54 8.84 4.23 1.17 8.54 2.19 12.87 2.97 11.57 2.06 23.14 4.19 34.77 5.84 9.6 1.36 19.29 2.04 28.94 3.1 3.2 0.35 6.37 0.99 9.57 1.41 2.77 0.37 5.54 0.83 8.32 0.89 13.66 0.28 27.35 0.98 40.99 0.52 15.6-0.53 30.98-3.2 45.74-8.56 5.52-2 10.96-4.25 16.35-6.56 7.33-3.14 14.18-7.16 20.49-12.02 14.14-10.88 27.14-22.92 38.55-36.72 11.63-14.09 19.67-29.88 24.04-47.58 1.66-6.72 2.52-13.57 3.11-20.46 0.05-0.53-0.03-1.07-0.07-2.17-0.87 0.63-1.37 0.87-1.68 1.25-4.94 5.96-11.04 10.51-17.61 14.51-12.14 7.4-25.19 12.63-38.8 16.56-16.4 4.74-33.04 8.38-49.99 10.38-7.28 0.85-14.64 1.23-21.98 1.45-12.19 0.36-24.39 0.37-36.58 0.6-12.82 0.24-25.56-0.94-38.28-2.21-9.65-0.97-19.3-2.03-28.91-3.3-8.3-1.1-16.58-2.43-24.83-3.87-11.43-1.99-22.83-4.21-34.25-6.26-22.5-4.04-44.38-10.12-65.36-19.29-7.3-3.19-14.3-6.87-20.4-12.08-0.33-0.28-0.75-0.44-1.3-0.76-0.18 0.5-0.3 0.65-0.27 0.77zm179.29-90.74c0.34 2.29 0.33 4.63 0.46 6.73 4.44-0.33 8.67-0.71 12.91-0.95 5.72-0.32 11.44-0.61 17.17-0.79 7.78-0.23 14.75 2.16 21.01 6.75 2.01 1.48 4.07 2.89 6.1 4.35 2.21 1.59 4.58 1.85 7.1 0.91q1.24-0.46 2.47-0.94c6.11-2.33 12.13-2.01 17.95 0.86 2.62 1.3 5.07 2.94 7.57 4.49 0.99 0.62 1.91 1.37 2.84 2.08 2.22 1.7 4.37 2.2 6.71 0.09 2.26-2.04 4.88-1.88 7.4-0.52 3.47 1.89 7.06 3.68 10.25 5.99 4.24 3.06 8.79 4.52 13.97 4.56 4.12 0.04 8.23 0.42 12.34 0.57 6.97 0.23 12.8 3.01 17.68 7.88 5.39 5.39 9.27 11.76 11.91 18.88 0.69 1.89 1.67 3.93-0.27 5.84 3.52 3.11 3.64 6.9 2.64 10.98-1.2 4.91-3.64 8.95-7.96 11.74-1.72 1.11-3.39 2.3-5.14 3.36-0.23 0.14-0.89-0.1-1.1-0.36-0.22-0.27-0.31-0.93-0.13-1.17 0.89-1.16 1.75-2.41 2.87-3.31 5.77-4.59 6.66-10.79 5.76-17.5-0.22-1.61-0.1-2.84 1.32-3.92-4.17-6.73-8.35-13.27-13.9-18.83-3.77-3.77-8.16-6.11-13.52-6.73-4.97-0.57-9.9-1.41-14.84-2.16-3.92-0.6-7.19-2.36-9.84-5.37-3.56-4.06-8.06-6.76-13.03-8.79-2.09-0.86-3.97-1.02-5.71 0.64-2.65 2.54-5.51 2.25-8.51 0.67-3.25-1.7-6.5-3.43-9.83-4.97-5.55-2.55-11.23-3.15-17.11-0.9-4.31 1.66-8.35 1.01-11.97-1.99-1.93-1.59-3.94-3.09-5.93-4.6-5.46-4.15-11.54-6.07-18.49-5.85-6.51 0.2-12.84 1.37-19.21 2.45-2.6 0.45-5.21 0.86-7.82 1.3q-1.51 0.26-3.01 0.62c-1.93 0.45-3.32 1.43-4.41 3.25-1.35 2.24-3.09 4.3-4.94 6.17-3.3 3.33-7.3 5.39-12.1 5.66-0.87 0.04-1.73 0.24-2.89 0.41 0.04 0.75-0.06 1.47 0.14 2.09 2.17 6.71 0.54 12.75-3.19 18.43-0.78 1.2-1.54 2.41-2.48 3.88 0.89 0.2 1.42 0.42 1.96 0.43 1.32 0.02 2.64-0.08 3.96-0.06 1.01 0.02 2.12-0.14 2.69 1.03 0.41 0.86-0.26 2.06-1.82 2.56-1.94 0.61-3.97 1.23-5.97 1.31-5.36 0.19-10.54-0.77-15.34-3.33-1.3-0.69-2.61-1.35-3.89-2.06-5.21-2.91-10.61-3.22-16.17-1.25q-2.29 0.81-4.47 1.86c-7.43 3.56-14.78 3.37-22.02-0.47-3.66-1.93-7.4-3.58-11.47-4.43-2.33-0.49-4.64-0.62-6.99-0.05-3.4 0.83-6.34 2.36-8.29 5.38-0.9 1.4-1.94 2.61-3.45 3.29-2.06 0.92-3.27 2.41-3.64 4.63-0.04 0.2-0.41 0.34-0.62 0.51-2.85-2.45-2.18-4.77 2.82-9.17-2.31-1.58-4.54-3.19-6.86-4.65-0.54-0.34-1.47-0.4-2.08-0.19-1.09 0.38-2.22 0.9-3.06 1.66-2.61 2.4-4.89 5.12-6.5 8.29-0.71 1.4-1.01 3.05-1.3 4.63-0.28 1.44-0.3 2.92-0.42 4.39-0.15 1.66-0.68 3.21-1.83 4.4-1.54 1.62-2.87 3.29-3.33 5.57-0.17 0.84-1.65 0.86-2.2 0.14-1.31-1.71-1.44-3.82-0.53-5.43 1.84-3.24 1.8-6.72 2.24-10.19 0.23-1.86 0.77-3.81 1.69-5.42 3.01-5.27 6.57-10.12 12.59-12.68-0.48-1.75-1.34-3.22-2.46-4.86-0.71 0.51-1.31 0.86-1.82 1.32-5.93 5.35-13.07 7.3-20.8 6.81-3.47-0.23-5.94 0.68-8.11 3.18-2.61 2.99-5.36 5.85-7.91 8.88-1.13 1.34-2.01 2.91-2.82 4.46-1.9 3.66-1.85 7.38 0.12 10.98 0.84 1.54 1.87 3 2.99 4.35 3.21 3.91 7.22 6.89 11.55 9.44 5.59 3.3 11.54 5.84 17.56 8.19 15.65 6.09 31.75 10.66 48.2 14.02 12.24 2.5 24.46 5.09 36.75 7.33 10.99 2.01 22.02 3.82 33.09 5.31 12.96 1.75 25.98 3.12 38.98 4.55 13.04 1.42 26.13 1.35 39.22 0.97 7.05-0.2 14.1-0.46 21.16-0.56 14.01-0.2 27.83-2.01 41.55-4.72 11.83-2.34 23.54-5.13 34.99-8.93 10.08-3.35 19.72-7.67 28.85-13.12 4.43-2.64 8.61-5.62 12.26-9.31 2.51-2.53 4.6-5.34 6.11-8.58 2.51-5.38 2.47-10.82 0.35-16.27-1.93-4.97-4.63-9.51-7.91-13.7-5.47-7-11.86-13.04-18.89-18.44-8.92-6.84-18.7-12.17-28.96-16.69q-25.7-11.32-53.22-16.99c-14.14-2.91-28.43-4.61-42.82-5.57-1.59-0.11-3.18-0.45-4.49 1.05-0.33 0.38-1.38 0.29-2.06 0.18-4.79-0.8-9.58-1.57-14.46-1.41-0.58 0.02-1.21 0.03-1.75-0.15-7.73-2.59-15.65-1.49-23.79-1.5 0.6 2.58 1.27 4.82 1.6 7.1zm-162.61 15.43c-4.66-0.58-9.32-1.13-13.82-1.67-7.25 5.63-12.03 7.85-15.56 7.28 0.59-1.51 0.62-1.45 4.85-3.75 1.92-1.05 3.69-2.35 5.95-3.81-0.88-0.45-1.29-0.81-1.76-0.89q-9.81-1.69-19.74-1.23c-3.96 0.18-7.83 1.06-12.11 2.2 0.71 0.62 1.11 1.18 1.64 1.39 8.67 3.38 16.67 7.95 24.18 13.41 5.25 3.82 10.87 6.96 16.91 9.34 5.41 2.13 10.94 3.09 16.81 2.53 7.01-0.66 12.91-3.55 17.96-7.59 0.56-3.87 0.69-7.43 1.66-10.75 0.92-3.16 2.69-6.06 4.3-9.5-2.96 0.81-5.42 1.65-7.95 2.14-2.73 0.52-5.52 0.83-8.29 1.03-2.63 0.2-5.27 0.13-7.61 0.16-2.29 3.58-4.33 6.97-6.59 10.2-1.16 1.67-2.64 3.16-4.15 4.53-0.7 0.64-1.82 0.85-2.77 1.17-0.17 0.06-0.55-0.19-0.7-0.4-0.14-0.2-0.24-0.61-0.13-0.79q0.84-1.28 1.79-2.49c2.82-3.6 4.81-7.63 6.57-11.88-0.66-0.3-1.04-0.58-1.44-0.63zm47.65 29.86c4.74-2.86 9.9-4.03 15.22-2.52 3.84 1.09 6.18-0.42 8.32-3.13 5.73-7.3 7.87-18.1 0.32-27.65-2.87-3.64-6.17-6.75-10.94-7.66-1.56-0.31-3.23-0.53-4.78-0.31-3.19 0.47-6.33 1.27-9.48 1.93-1.53 0.31-2.64 1.2-3.45 2.51-0.39 0.63-0.85 1.2-1.22 1.83-2.26 3.95-4.41 7.96-6.78 11.84-5.39 8.81-1.02 17.39 4.61 21.45q1.25 0.91 2.59 1.66c0.89 0.5 1.84 0.89 3.05 1.46 1.02-0.56 1.8-0.96 2.54-1.41zm56.86-59.69c-0.33 0.9-1.38 1.52-1.82 2.4-0.29 0.56-0.06 1.38-0.06 2.37-0.98 0.06-2.02-0.1-2.87 0.23-0.92 0.36-1.6 1.27-2.47 1.76-0.88 0.49-1.85 0.92-2.83 1.1-1.53 0.29-2.98-0.88-3.07-2.41-0.05-1.01 0.12-2.03 0.19-3.22-1.08-0.88-2.27-1.72-3.3-2.72-0.61-0.59-1.07-1.39-1.42-2.17-0.43-0.95 0.39-2.25 1.44-2.27 1-0.01 2 0.24 3.24 0.41 0.25-0.36 0.52-0.86 0.9-1.25 1.29-1.32 2.07-1.42 3.42-0.43 0.47 0.34 0.86 0.79 1.29 1.19 0.32 0.28 0.65 0.55 1.2 1q1.21-0.72 2.43-1.45c-0.17-0.43-0.21-0.82-0.39-0.9-5.04-2.19-10.26-2.44-15.47-0.9-4.87 1.43-9.08 4.12-12.5 7.91-3.35 3.72-5.22 8.08-5.28 13.29q1.24 0.87 2.49 1.72c3.21 2.15 5.78 4.93 8.15 7.96 4.84 6.18 11.3 7.97 18.82 6.72 1.94-0.32 3.54-1.39 5.01-2.63 3.32-2.79 5.79-6.23 7.39-10.24 0.81-2.04 1.38-4.18 1.97-6.29 1.36-4.83 0.12-8.99-3.42-12.47-0.8-0.79-1.73-1.45-2.73-2.29-0.1 1.4 0.05 2.59-0.31 3.58zm-143.33 24.76c8.25-0.6 16.43 0.25 24.58 1.43 7.9 1.15 15.75 0.82 23.48-0.21 0.64-1.05 0.02-1.56-0.5-2.04-4.35-4.02-9.29-7.13-14.73-9.47-0.92-0.4-1.75-0.99-2.61-1.51-0.06-0.04-0.01-0.26-0.01-0.44 0.18-0.76 0.93-0.72 1.39-0.64 1.58 0.28 3.19 0.54 4.67 1.11 6.87 2.67 12.5 6.46 17.99 12.01 4.59-0.56 9.29-1.29 13.85-3.42-0.34-0.6-0.46-1.04-0.75-1.28q-4.84-4.16-9.75-8.24c-3.34-2.76-7.15-4.51-11.37-5.55-7.12-1.76-14.23-1.86-21.38-0.31-2.9 0.63-5.67 1.64-8.04 3.44-8.1 6.19-17 10.97-26.35 14.97-0.38 0.17-0.71 0.5-1.56 1.1 4.11-0.35 7.6-0.7 11.09-0.95zm176.12 11.24c3.86-0.14 7.63-0.54 10.66-3.34 3.44-3.19 5.79-7.02 6.75-11.62 0.26-1.27 0.28-2.64 0.11-3.94-1.09-8.46-7.94-15.47-16.38-16.82-3.5-0.56-7-0.57-10.49 0.27-3.29 0.79-6.52 1.74-9.44 3.02-0.42 3.55-0.52 6.95-1.31 10.19-0.78 3.2-2.26 6.23-3.53 9.59 1.38-0.03 2.53-0.06 3.69-0.09 6.3-0.16 11.48 2.06 15.22 7.26 1.28 1.78 2.49 3.6 3.64 5.26 0.51 0.11 0.8 0.23 1.08 0.22zm-75.37-32.79c0.93-2.89 2.63-5.54 4.1-8.51-2.37-6.1-7.47-11.17-13.31-13.34-4.28-1.6-8.43-1.35-12.37 0.74-7.25 3.86-11.56 9.79-12.1 18.18-0.18 2.87 0.31 5.56 1.89 8.01 0.32 0.5 0.6 1.01 0.91 1.51 1.96 3.22 4.11 6.34 5.13 10.03 7.9-3.77 15.48-7.6 24.16-7.3 0.54-3.35 0.67-6.47 1.59-9.32zm55.72-44.48c-1.72 0.33-3.5 0.44-5.25 0.47-0.56 0.01-1.13-0.56-2.05-1.05 3.05-2.31 6.43-2.18 9.41-3.2 3.05-1.05 6.13-2.02 9.11-2.99 1.19-4.6 2.15-9.03 3.52-13.34 1.32-4.17 3.06-8.21 4.63-12.36-0.98-0.58-1.35 0.26-1.76 0.69-11.46 12.03-22.6 24.34-31.58 38.4-3.63 5.7-7.02 11.54-10.5 17.32-0.12 0.2 0.01 0.55 0.03 0.99 2.5 0.55 5.03 1.14 7.58 1.64 0.53 0.11 1.19-0.04 1.7-0.27q6.05-2.63 12.06-5.36c0.62-0.28 1.12-0.82 1.94-1.45-1.42-0.95-2.77-0.78-3.97-1.07-1.28-0.33-2.6-0.48-3.88-0.8-1.56-0.4-3.12-0.83-4.61-1.41-0.37-0.15-0.76-1-0.66-1.41 0.1-0.39 0.83-0.89 1.27-0.88 1.75 0.03 3.51 0.25 5.27 0.37 3.8 0.27 7.6 0.51 11.18 0.75 4.79-4.73 7.47-11.58 6.85-17.26-3.44 0.75-6.85 1.57-10.29 2.22zm91.96 292.46c-11.31-0.18-22.61-0.29-33.92-0.54-4.1-0.1-8.2-0.52-12.3-0.83-1.17-0.09-2.36-0.21-3.48-0.52-3.01-0.81-5.93-1.81-7.64-4.53-1.77-0.12-3.38-0.35-4.98-0.31-8.25 0.2-16.44-0.3-24.58-1.66-2.03-0.34-4.08-0.52-6.12-0.78-1.24-0.16-2.31 0.1-3.16 1.29 0.91 3.72 3.29 6.05 7.04 6.93 3.14 0.75 6.32 1.34 9.49 1.96q19.88 3.96 40.07 5.89c4.27 0.41 8.51 0.08 12.75-0.2 4.1-0.27 8.2-0.62 12.29-0.97 6.33-0.55 12.4-2.26 18.43-4.14 0.51-0.15 1.18-0.32 1.14-1.34-1.62-0.47-3.35-0.22-5.03-0.25zm-107.04-191.5c5.05-0.96 9.9-0.38 14.54 1.9q1.97 0.96 3.93 1.95c1.19 0.6 2.23 0.43 3.25-0.41 3.35-2.75 5.95-6.03 7.57-10.08q1.18-2.96 0.34-6.02c-1.38-5.06-3.93-9.44-7.53-13.23-1.15-1.2-2.55-1.96-4.14-2.38q-1.06-0.29-2.15-0.39c-10.8-0.84-13.57 0.7-19.48 10.56-1.03 1.73-1.58 3.79-2.11 5.76-1.22 4.48-0.7 8.7 2.65 12.81 1.13-0.17 2.13-0.28 3.13-0.47zm-7.47-117.26c-0.21 3.06 0.68 6.04 1.05 9.07 0.22 1.74 0.61 3.47 0.86 5.21 0.07 0.56 0.01 1.19-0.18 1.72-0.13 0.35-0.55 0.75-0.9 0.84-0.36 0.1-1-0.03-1.17-0.29-0.63-0.97-1.3-1.97-1.63-3.06-0.7-2.24-1.17-4.54-1.78-6.81-0.17-0.68-0.49-1.32-0.84-2.23-2.37 1.79-3.71 4.06-4.81 6.45-2.7 5.86-3.9 11.99-2.62 18.43q0.99 4.97 2.1 9.91c0.15 0.68 0.51 1.33 0.92 2.36 0.71-0.69 1.33-1.06 1.6-1.61 1.26-2.49 2.34-5.06 3.61-7.54 4.93-9.6 11.34-18.19 18.34-26.34 5.83-6.79 11.9-13.38 17.86-20.07 0.19-0.21 0.31-0.49 1.02-1.6-12.18 4.4-23.79 7.64-33.43 15.56zm-11.89 91.49c-0.05 0.71-0.19 1.39-0.13 2.04 0.89 9.1-1.65 17.08-7.76 23.91-0.28 0.31-0.46 0.72-0.67 1.08 4.9 3.89 11.64 4.55 17.85 1.64-0.77-2.12-1.76-4.21-2.26-6.42-0.5-2.26-0.76-4.64-0.66-6.95 0.1-2.16 0.67-4.34 1.28-6.44 0.65-2.21 1.6-4.34 2.53-6.78-3.68-0.75-6.81-1.38-10.18-2.08zm8.98-35.01c1.66 1.39 2.06 3.46 1.88 6.09 0.99-0.36 1.6-0.56 2.19-0.8 0.12-0.05 0.22-0.2 0.29-0.33 1.22-2.08 2.68-3.82 5.29-4.18 0.24-0.03 0.64-0.81 0.54-0.96-0.28-0.43-0.78-0.73-1.22-1.05-0.08-0.06-0.27 0.05-0.42 0.08-0.97 0.24-2.08 0.88-2.9 0.62-1.02-0.32-1.81-1.38-2.89-2.28-0.96 0.98-1.77 1.8-2.76 2.81z"/>
			<path id="&lt;Compound Path&gt;" fill-rule="evenodd" class="s0" d="m248.32 240.73c-1.15-2.04-2.38-4.05-3.3-6.2-1.12-2.61-1.64-5.45-0.72-8.18 0.97-2.9 2.31-5.7 3.65-8.46 0.7-1.47 1.79-2.62 3.64-2.88 0.78-0.11 1.59-0.7 2.2-1.27 5.12-4.8 11.26-7.38 18.12-8.28 9.46-1.24 19.83 1.91 24.54 14.2q0.63 1.65 1.11 3.35c1.14 3.96 0.79 7.84-0.75 11.64q-1.78 4.35-5.29 7.49c-0.57 0.52-1.01 1.18-1.84 2.17 2.09 0.36 3.65 0.76 5.23 0.87 1.9 0.14 3.82 0.01 5.72 0.05 1.17 0.03 2.36 0.05 3.49 0.28 0.47 0.1 1.13 0.72 1.16 1.14 0.05 0.64-0.18 1.6-0.65 1.92-0.94 0.64-2.07 1.14-3.19 1.36-7.46 1.47-14.5 0.87-21.13-3.44-7.73-5.02-15.89-5.67-24.16-1.07q-0.39 0.2-0.78 0.41c-2.64 1.48-5.47 2.03-8.49 1.74-3.36-0.34-6.73-0.6-10.09-0.93-0.3-0.03-0.58-0.37-1.39-0.92 5.06-1.32 9.89-0.09 14.77-2.2-0.75-1.14-1.36-1.93-1.85-2.79zm34.06-0.42c4.56-2.56 8.15-6.27 8.16-11.89 0.02-5.38-2.63-9.74-7.33-12.59-1.17 0.85-0.49 1.75-0.5 2.54-0.01 3.19-0.13 6.24-3.85 7.58-0.59 0.21-0.91 1.1-1.42 1.61-2.29 2.25-4.86 1.89-6.52-0.93-0.44-0.74-0.72-1.57-1.1-2.43-1.41-0.09-2.72-0.13-4.01-0.28-1.09-0.13-1.96-0.67-2.27-1.8-0.29-1.09 0.08-2.03 0.89-2.77 0.32-0.29 0.71-0.52 1.09-0.73 1.35-0.75 1.21-1.83 0.71-3-0.3-0.06-0.61-0.23-0.85-0.17-5.47 1.36-9.58 4.99-13.84 8.34-0.62 0.48-0.94 1.48-1.16 2.31-0.97 3.54-0.82 7.01 1.11 10.22 0.89 1.48 2 2.84 3.22 4.54 9.37-5.06 18.34-4.06 27.67-0.55zm-14.87-19.07c0.45 0.08 0.88 0.24 1.3 0.21 1.82-0.12 3.05 0.61 3.85 2.29 0.41 0.86 1.13 1.58 1.74 2.41 2.59-2.9 2.59-2.9 4.87-3.77 0.6-1.71 1.11-3.5 0.34-5.59-1.7 0.57-3.34 1.65-5.07 0.69-1.5-0.83-2.88-1.9-4.72-3.14-0.76 4.76-0.76 4.76-2.31 6.9zm7.2-7.18c0.56 1.27 1.31 0.93 2.12 0.14-0.63-0.04-1.26-0.08-2.12-0.14z"/>
			<path id="&lt;Path&gt;" class="s0" d="m343.34 292.45c1.27 1.02 2.78 0.71 4.2 0.52 14.55-2 29.03-4.45 43.27-8.14 6.26-1.62 12.56-3.07 18.78-4.81 9.33-2.63 17.62-7.35 25.15-13.35 4.74-3.78 8.51-8.52 11.58-13.77 2.32-3.98 2.89-8.19 2.02-12.75-1.13-5.94-3.76-11.11-7.46-15.78-5.33-6.75-11.74-12.31-18.79-17.22-10.75-7.49-22.65-12.31-35.23-15.7-12.48-3.37-24.95-6.81-37.64-9.32-16.73-3.32-33.56-6.12-50.61-7.16-3.07-0.19-6.16-0.01-9.23-0.06-1.32-0.03-2.63-0.23-3.95-0.35-6.58-0.61-13.17-1.24-19.76-1.81-1.59-0.14-3.27-0.42-4.71 0.56-0.4 0.27-0.68 0.92-0.71 1.42-0.02 0.3 0.46 0.84 0.81 0.94q1.49 0.4 3.04 0.5 14.75 0.92 29.5 1.77c0.86 0.05 1.95 0.13 2.56-0.31 1.8-1.29 3.68-0.82 5.53-0.57 14.57 1.96 29.09 4.21 43.54 6.91 14.61 2.73 29.03 6.15 43.31 10.2 11.71 3.33 22.57 8.32 32.42 15.52 5.24 3.84 10.15 8.04 14.53 12.81 4.54 4.94 8.06 10.45 9.45 17.17 0.91 4.4 0.36 8.47-2.07 12.26-4.44 6.91-10.11 12.53-17.06 16.95-8.07 5.13-16.91 8.07-26.16 10.1-15.36 3.39-30.79 6.3-46.24 9.21-3.02 0.57-6 1.41-8.96 2.23-0.89 0.24-1.54 0.89-1.11 2.03z"/>
			<path id="&lt;Path&gt;" class="s0" d="m300.43 293.67c-0.93-0.15-1.85-0.4-2.78-0.44-11.61-0.44-23.15-1.74-34.67-3.18-3.79-0.47-7.55-1.17-11.33-1.75q-8.92-1.4-17.85-2.79c-7.11-1.12-14.23-2.18-21.33-3.37-6.67-1.12-13.32-2.33-19.96-3.56-5.06-0.94-10.11-1.9-15.13-2.99-9.19-2-18.37-4.02-27.51-6.18-6.17-1.44-12.09-3.62-17.79-6.4-3.83-1.86-7.82-3.39-11.62-5.31-4.84-2.45-9.65-4.99-14.31-7.77-2.24-1.33-4.23-3.16-6.11-5-2.01-1.98-3.36-4.44-3.84-7.29-0.15-0.87-0.29-1.77-0.65-2.56-0.19-0.43-0.86-0.95-1.27-0.91-0.44 0.03-1.07 0.6-1.2 1.06-0.8 2.79-0.62 5.51 0.79 8.11 2.29 4.22 5.41 7.68 9.45 10.28 2.09 1.35 4.22 2.67 6.43 3.84 12.19 6.48 24.37 13.03 37.85 16.55 7.38 1.93 14.81 3.71 22.29 5.24 9.93 2.04 19.87 4.09 29.89 5.56 12.06 1.77 24.22 2.93 36.33 4.38q11.16 1.33 22.31 2.77c11.37 1.5 22.81 2.29 34.26 2.76 2.6 0.11 5.2 0.04 7.75-1.05z"/>
			<path id="&lt;Path&gt;" class="s0" d="m297.49 281.04c6.57-0.03 12.8-0.63 18.53-3.69 0.52-0.28 1.08-0.48 1.58-0.77 1.87-1.06 3.68-0.76 5.4 0.28 1.13 0.68 2.17 1.5 3.25 2.24 0.6 0.41 1.19 0.87 1.84 1.17 1.29 0.59 2.89-0.3 2.88-1.69 0-0.99-0.12-2.11-0.58-2.95-2.19-3.98-5.66-6.31-10.12-6.91-1.37-0.18-2.87 0.37-4.27 0.73-0.83 0.23-1.61 0.69-2.38 1.12-3.37 1.86-6.97 2.99-10.75 3.69-2.15 0.4-4.27 0.97-6.4 1.5q-1.07 0.26-2.09 0.66c-1.02 0.41-1.78 1.06-1.73 2.27 0.04 0.95 0.84 1.79 2 2.01 1.01 0.19 2.04 0.25 2.84 0.34z"/>
			<path id="&lt;Path&gt;" class="s2" d="m241.22 267.83c0.74-0.73 1.35-1.11 1.58-1.65 0.1-0.25-0.52-0.97-0.96-1.19-0.65-0.34-1.58 0.34-1.49 1.05 0.06 0.5 0.44 0.95 0.87 1.79z"/>
			<path id="&lt;Compound Path&gt;" fill-rule="evenodd" class="s0" d="m153.9 196.47c-0.08 1.77-1.68 2.9-3.42 2.57-0.96-0.19-1.86-0.76-2.74-1.25-0.74-0.41-1.41-0.95-1.97-1.33-1.76 0.33-2.11 1.8-3.02 2.7-0.91 0.91-1.88 1.83-2.97 2.49-1.12 0.69-2.31 0.24-3.24-0.59-0.81-0.72-1.14-1.76-0.83-2.8 0.32-1.09 0.9-2.11 1.41-3.26q-0.84-0.77-1.6-1.48c-0.97-0.91-1.22-2.02-0.67-3.19 0.48-1.03 1.45-1.37 2.54-1.41 0.96-0.03 1.91-0.07 2.98-0.11-0.08-0.87-0.13-1.44-0.19-2.02-0.05-0.58-0.2-1.16-0.17-1.73 0.09-1.41 1.39-2.43 2.77-2.06 0.97 0.26 1.86 0.8 2.78 1.23q1.13 0.53 2.22 1.05c0.95-1.04 1.64-2 2.53-2.73 1.61-1.33 4.06-0.41 4.44 1.64 0.15 0.85 0.18 1.78-0.02 2.6-0.38 1.56-0.96 3.06-1.36 4.25 0.22 2 0.61 3.73 0.53 5.43zm-3.02-8.85c-3.67 0.67-3.67 0.67-7.34-1.2-0.14 0.36-0.36 0.71-0.39 1.07-0.26 3.78-0.25 3.78-4.06 4.66q0.99 1.91 1.97 3.8c0.12-0.02 0.27-0.01 0.34-0.08 2.8-3.16 4.9-3.46 8.08-0.25 0.27 0.27 0.78 0.31 1.37 0.54 0.76-2.13-0.97-3.57-1.21-5.45q0.54-1.35 1.24-3.09z"/>
			<path id="&lt;Compound Path&gt;" fill-rule="evenodd" class="s0" d="m237.56 178.58c-1.42-0.96-1.65-2.16-0.28-3.17 1.39-1.02 1.6-2.18 1.66-3.73 0.06-1.46 1.69-2.12 2.98-1.37 0.49 0.29 1.06 0.66 1.27 1.14 0.6 1.39 1.66 1.89 3.05 2.05 0.41 0.05 0.8 0.35 1.17 0.58 2.19 1.32 2.51 4.16 0.31 5.35-1.96 1.06-3.2 2.36-3.8 4.43-0.1 0.38-0.52 0.7-0.85 0.98-1.19 0.98-3.24 0.26-3.42-1.27-0.14-1.14-0.02-2.32-0.01-3.95-0.81-0.39-1.49-0.65-2.08-1.04zm5.19-2.78c-1.37-0.77 0.05-2.63-1.46-3.44-0.56 1.35-1.13 2.7-1.74 4.16 0.82 0.7 1.67 1.43 2.64 2.26 1.31-0.57 2.68-1.18 4.24-1.86-0.97-2.58-2.43-1.34-3.68-1.12z"/>
			<path id="&lt;Path&gt;" class="s0" d="m133.28 156.82c0.27 1.5 0.33 2.68 0.72 3.75 0.49 1.35 2.34 1.59 3.24 0.48 0.55-0.68 0.9-1.51 1.39-2.23 0.89-1.31 1.89-1.69 3.37-1.24 0.7 0.2 1.32 0.65 2.01 0.86 1.9 0.61 3.14-0.39 2.98-2.47-0.08-0.99-0.4-1.97-0.63-3.04 0.75-0.91 1.55-1.76 2.21-2.7 0.87-1.24 0.39-2.6-1.02-3.23-1.78-0.79-3.42-0.35-5.01 0.52-0.87 0.47-0.79 1.45 0.16 1.99 0.35 0.2 0.77 0.28 1.14 0.42-0.75 2.7-0.75 2.7-0.22 5.51-2.49-0.4-4.97-0.75-7.03 1.8-0.61-1.19-1.05-2.05-1.6-3.11 2.02-0.91 3.78-1.93 3.21-4.47 1.44 0.23 0.65 1.53 1.44 2.17 0.27-0.15 0.83-0.27 0.89-0.52 0.2-0.8 0.46-1.72 0.25-2.46-0.38-1.32-1.47-2.13-2.73-2.69-1.64-0.74-2.9-0.09-3.12 1.74-0.1 0.84-0.03 1.7-0.04 2.67-1.12 0.37-2.1 0.62-3.02 1.02-1.16 0.51-1.89 1.43-1.88 2.73 0.01 1.23 0.89 1.74 1.94 2.05 0.42 0.12 0.83 0.27 1.35 0.45z"/>
			<path id="&lt;Path&gt;" class="s2" d="m139.77 152.89q-0.21 0.23-0.42 0.46c0.2 0.1 0.4 0.24 0.62 0.29 0.08 0.02 0.2-0.16 0.3-0.25q-0.25-0.25-0.5-0.5z"/>
			<path id="&lt;Compound Path&gt;" fill-rule="evenodd" class="s0" d="m210.99 218c-2.3 1.21-4.47 0.08-4.93-2.43-0.16-0.85-0.13-1.74-0.18-2.58-0.36-0.36-0.64-0.69-0.97-0.97-0.43-0.39-0.94-0.7-1.32-1.14-1-1.14-0.73-2.72 0.65-3.27 1.2-0.48 2.49-0.73 3.91-1.14 0.22-0.58 0.42-1.27 0.73-1.91 0.28-0.61 0.68-1.16 0.96-1.63 2.71 0.28 2.75 2.67 3.98 4.03 1.09-0.75 2.12-1.56 3.23-2.23 0.88-0.54 2.42 0.02 2.49 0.98 0.21 3.04 0.29 6.1 0.31 9.15 0 0.89-1.02 1.54-1.92 1.35-0.98-0.21-1.94-0.56-3.14-0.92-1.44 1.04-2.53 2.05-3.8 2.71zm-0.23-4.98c-0.12-0.25-0.43-0.52-0.39-0.73 0.09-0.53 0.19-1.23 0.54-1.47 0.37-0.24 1.19-0.23 1.56 0.04 2.2 1.58 2.17 1.61 4.69 1.56-0.15-1.23-0.28-2.46-0.43-3.73-0.5-0.15-0.89-0.37-1.28-0.37-1.94 0-3.82 0.76-5.83 0.32-0.71-0.15-1.58 0.48-2.54 0.82 0.55 1.2 1.08 2.19 1.44 3.23 0.32 0.91 0.45 1.88 0.67 2.87 2.33-0.93 2.33-0.93 1.57-2.54z"/>
			<path id="&lt;Path&gt;" class="s2" d="m191.08 159.39q0.06 0.18 0.12 0.37 0.23-0.17 0.46-0.35c-0.09-0.09-0.18-0.24-0.28-0.25-0.09 0-0.2 0.15-0.3 0.23z"/>
			<path id="&lt;Path&gt;" class="s2" d="m274.86 221.45c-0.19-0.36-0.31-0.59-0.43-0.81-0.28 0.16-0.61 0.28-0.82 0.51-0.07 0.07 0.19 0.63 0.25 0.62 0.33-0.05 0.65-0.2 1-0.32z"/>
		</g>
		<g id="&lt;Group&gt;">
		</g>
		<g id="&lt;Group&gt;">
		</g>
		<g id="&lt;Group&gt;">
		</g>
		<g id="&lt;Group&gt;">
		</g>
	</g>
	<g id="TEXTS">
	</g>
</svg>