<svg version="1.2" xmlns="http://www.w3.org/2000/svg" viewBox="0 0 1016 1080" width="900" height="957">
	<defs>
		<clipPath clipPathUnits="userSpaceOnUse" id="cp1">
			<path d="m1016.35 1079.57h-1920v-1080h1920z"/>
		</clipPath>
		<clipPath clipPathUnits="userSpaceOnUse" id="cp2">
			<path d="m765.19 539.26c0 168.52-136.61 305.14-305.14 305.14-168.53 0-305.15-136.62-305.15-305.14 0-168.53 136.62-305.15 305.15-305.15 168.53 0 305.14 136.62 305.14 305.15z"/>
		</clipPath>
	</defs>
	<style>
		tspan { white-space:pre } 
		.s0 { fill: none;stroke: #402751;stroke-miterlimit:10;stroke-width: 2.1 } 
		.s1 { fill: #8cb847 } 
		.s2 { fill: #f2cd31 } 
		.s3 { fill: none;stroke: #402751;stroke-miterlimit:10;stroke-width: 2.8 } 
		.s4 { fill: #402751 } 
		.s5 { fill: #f2ab31 } 
		.s6 { fill: #456b3b } 
		.s7 { fill: none;stroke: #402751;stroke-linecap: round;stroke-linejoin: round;stroke-width: 1.1 } 
		.s8 { fill: none;stroke: #ffffff;stroke-miterlimit:10;stroke-width: 2.2 } 
		.s9 { fill: #ce3832 } 
		.s10 { fill: #ffffff } 
		.s11 { fill: none;stroke: #ffffff;stroke-miterlimit:10;stroke-width: 1.3 } 
		.s12 { fill: none;stroke: #402751;stroke-miterlimit:10 } 
		.s13 { fill: #f5804e } 
		.t14 { font-size: 33px;text-transform: uppercase;fill: #ffffff;font-weight: 400;font-family: "Nunito-Regular", "Nunito" } 
		.t15 { font-size: 36px;line-height: 48px;fill: #402751;font-weight: 400;font-family: "Nunito-Regular", "Nunito" } 
		.t16 { font-size: 31px;text-transform: uppercase;fill: #121e3b;font-weight: 400;font-family: "Nunito-Regular", "Nunito" } 
		.t17 { font-size: 64px;line-height: 57px;fill: #402751;font-weight: 400;font-family: "NerkoOne-Regular", "Nerko One" } 
		.t18 { font-size: 19px;text-transform: uppercase;fill: #000000;font-weight: 400;font-family: "Nunito-Regular", "Nunito" } 
	</style>
	<g id="OBJECTS">
		<g id="&lt;Clip Group&gt;" clip-path="url(#cp1)">
			<path id="&lt;Path&gt;" class="s0" d="m306.62-70.6c19.64 113.96 137.77 211.62 140.14 327.23 1.12 54.96-10.62 79.97-47.33 120.88-59.89 66.75-95.48 163.25-179.97 193.32-98.6 35.1-152.56 114.58-168.32 202.86-15.76 88.29 29.29 192.01 115.61 216.33 41.6 11.73 85.8 4.22 128.86 0.37 82.17-7.37 165.56-0.99 245.66 18.8 27.62 6.82 56.72 16.47 73.95 39.11 13.13 17.26 17.31 39.43 24.17 59.99 28.86 86.63 114.95 150.94 206.21 154.04"/>
			<g id="&lt;Group&gt;">
				<g id="&lt;Group&gt;">
					<path id="&lt;Path&gt;" class="s1" d="m97.48 856.12c22.29 36.82 63.01 58.25 103.44 73.01 87.88 32.08 182.29 40.87 275.5 48.83 93.21 7.96 187.58 15.58 276.21 45.53 88.62 29.96 172.41 85.17 217.14 167.34 32.42-14.42 65.42-29.22 91.88-52.87 26.45-23.66 45.77-58.05 42.51-93.39-1.41-15.36-6.97-30.11-14.37-43.64-32.94-60.3-99.75-94.8-166.51-111.06-213.56-51.99-445.03 47.81-655.22-16.44-47.17-14.42-93.3-38.07-123.72-76.91-28.17-35.98-27.53-71.9-30.45-113.85-41.73 38.86-44.28 127.41-16.41 173.45z"/>
					<path id="&lt;Path&gt;" class="s2" d="m393.3-13.8c66.21 87.33 118.75 192.83 109.78 302.06-7.38 89.98-58.56 175.05-133.77 224.99-53.47 35.51-116.66 53.37-172.84 84.41-56.18 31.04-108.46 82.33-111.89 146.43-2.64 49.34 25.35 96.85 64.34 127.2 39 30.35 87.73 45.59 136.4 54.15 104.68 18.42 211.95 8.49 318.09 2.95 106.15-5.54 215.23-6.21 315.37 29.43 100.14 35.64 190.84 114.41 213.46 218.27 136.8-58.26 248.62-172.81 303.55-310.98 26.01-65.41 38.21-144.11-0.33-203.02-25.44-38.89-68.85-62.29-112.63-77.89-75.83-27.01-158.29-35.2-237.95-23.62-161.63 23.47-304.76 125.22-467.1 143.08-46.07 5.07-103.09-3.35-120.71-46.21-14.12-34.33 5.51-73.55 30.91-100.62 84.12-89.66 218.91-101.88 338.82-129.03 80.14-18.15 159.46-45.98 225.83-94.43 66.37-48.44 118.95-119.48 132.57-200.52 11.33-67.44-5.59-139.19-45.88-194.46-40.29-55.26-103.41-93.34-171.09-103.19-134.01-19.51-278.3 65.89-400.78 8.1-34.94-16.48-63.77-43.21-94.06-67.17-52.01-41.14-162.83-87.97-203.48-3.57-33.97 70.5 44.96 162.94 83.39 213.64z"/>
					<path id="&lt;Path&gt;" class="s1" d="m513.02-319.52c-27.98 86.94-15.48 186 33.21 263.26 31.17 49.46 78.13 96.08 75.83 154.5-1.79 45.65-33.79 83.57-53.4 124.84-29.15 61.37-30.64 135.26-3.98 197.76 11.61 27.2 49.18-11.64 59.74-39.26 10.56-27.63 3.88-58.67 8.14-87.93 9.27-63.59 68.13-108.38 127.69-132.51 59.56-24.13 124.76-35.24 179.87-68.28 89.09-53.42 139.23-167.04 113.52-267.68-25.7-100.65-128.35-177.34-231.84-168.42-29.61 2.55-58.64 11.32-88.36 11.22-39.31-0.14-76.78-15.7-115.55-22.19-38.77-6.49-92.83-2.72-104.87 34.69z"/>
					<g id="&lt;Group&gt;">
						<path id="&lt;Path&gt;" class="s3" d="m542.41 747.03c33.06 30.46 87.6 16.64 127.86 36.62 37.56 18.64 56.98 63.86 95.45 80.54 26.67 11.57 57.33 7.12 85.97 12.1"/>
						<path id="&lt;Path&gt;" class="s4" d="m595.23 787.51c1.55 3.92 0.8 8.31 0.82 12.53 0.05 9 3.91 17.93 10.44 24.13 5.37 5.09 12.26 8.27 18.04 12.9 7.54 6.03 13.04 14.57 15.42 23.93 2.49-6.29-1.25-13.39-0.44-20.11 0.31-2.51 1.24-4.89 1.93-7.31 4.68-16.32-2.5-35.3-16.8-44.43-5.91-3.78-12.72-5.93-18.8-9.42-8.85-5.09-16.63-13.17-26.8-14.17 3.84 0.38 14.81 18.46 16.19 21.95z"/>
						<path id="&lt;Path&gt;" class="s4" d="m660.02 776.8c13.41-1.54 24.82-13.66 38.2-11.89 4.6 0.61 8.88 2.86 13.49 3.36 5.12 0.55 10.19-1.09 15.08-2.71q19.21-6.36 38.43-12.73c-10.69-10.9-22.03-22.04-36.49-26.98-18.6-6.34-38.94-1.34-57.94 3.68-12.89 3.42-34.58 10.8-36.9 26.88-1.84 12.73 15.36 21.63 26.13 20.39z"/>
						<path id="&lt;Path&gt;" class="s4" d="m683.97 838.06c6.75 8.92 15.62 16.03 22.55 24.81 6.71 8.51 11.5 18.53 13.91 29.1 6.23-9.4 8.04-21.21 6.94-32.44-1.1-11.22-4.9-22-9.15-32.44-5.68-13.98-15-27.84-32.22-24.59-18.27 3.44-9.91 25.14-2.03 35.56z"/>
						<path id="&lt;Path&gt;" class="s4" d="m850.54 861.72c3.97 1.92 7.03 5.27 10.21 8.33 5.9 5.65 12.62 10.57 20.18 13.67 4.55 1.87 9.35 3.07 14.13 4.26q3.97 0.99 7.94 1.97c-6.17 0.87-12.15 3.12-17.35 6.56-5.31-3.11-11.92-2.86-17.99-1.84-6.07 1.02-12.14 2.71-18.27 2.18-11.11-0.96-21-10.08-22.86-21.08-2.04-12.09 14.23-18.78 24.01-14.05z"/>
						<path id="&lt;Path&gt;" class="s4" d="m752.86 821.1c11.08-12.31 29.63-13.81 46.18-13.34 16.55 0.46 34.4 1.7 48.32-7.27-8.62 6.65-14.08 16.91-23.21 22.82-8.49 5.48-19.14 6.56-28 11.41-7.1 3.89-12.77 10.06-19.91 13.88-9.2 4.94-25.84 6.43-34.53-0.78-9.63-7.99 4.83-19.69 11.15-26.72z"/>
						<path id="&lt;Path&gt;" class="s4" d="m793.81 880.12c12.86 10.43 15.31 28.88 15.7 45.43 0.39 16.55 0.07 34.44 9.74 47.88-7.08-8.26-17.61-13.19-23.98-22.01-5.91-8.19-7.53-18.77-12.84-27.36-4.25-6.9-10.7-12.24-14.89-19.17-5.4-8.94-7.75-25.48-0.99-34.53 7.48-10.03 19.91 3.81 27.26 9.76z"/>
					</g>
					<g id="&lt;Group&gt;">
						<path id="&lt;Path&gt;" class="s3" d="m595.36 358.17c39.38-21.66 43.63-77.76 75.38-109.57 29.62-29.68 78.67-33.71 106.72-64.88 19.45-21.61 24.98-52.09 38.81-77.66"/>
						<path id="&lt;Path&gt;" class="s4" d="m650.54 320.97c4.2-0.23 8.13 1.88 12.13 3.2 8.55 2.82 18.24 2 26.2-2.22 6.54-3.47 11.74-8.99 17.96-13 8.12-5.23 17.97-7.72 27.6-7-5.18-4.37-13.09-3.08-19.21-5.99-2.28-1.08-4.24-2.72-6.32-4.15-13.98-9.62-34.25-8.86-47.46 1.8-5.46 4.4-9.67 10.16-14.91 14.82-7.64 6.78-17.78 11.58-21.96 20.9 1.58-3.52 22.22-8.16 25.97-8.36z"/>
						<path id="&lt;Path&gt;" class="s4" d="m660.98 256.14c2.81-13.21-5.05-27.88 0.88-40.01 2.04-4.16 5.54-7.5 7.48-11.72 2.15-4.67 2.21-10 2.23-15.15q0.08-20.24 0.15-40.49c-13.73 6.68-27.91 13.88-37.18 26.01-11.93 15.62-13.66 36.5-14.94 56.11-0.87 13.31-0.77 36.21 13.74 43.54 11.49 5.79 25.39-7.69 27.64-18.29z"/>
						<path id="&lt;Path&gt;" class="s4" d="m726.68 252.91c10.6-3.56 20.17-9.71 30.69-13.48 10.21-3.66 21.23-5.02 32.02-3.93-6.93-8.9-17.56-14.37-28.55-16.9-10.99-2.53-22.41-2.35-33.67-1.65-15.05 0.94-31.16 5.37-33.56 22.73-2.54 18.42 20.69 17.39 33.07 13.23z"/>
						<path id="&lt;Path&gt;" class="s4" d="m802.09 102.52c3.09-3.15 7.24-4.99 11.15-7.03 7.24-3.79 14.03-8.6 19.38-14.78 3.22-3.72 5.88-7.89 8.53-12.04q2.2-3.46 4.4-6.91c-1.15 6.13-0.91 12.52 0.69 18.54-4.63 4.05-6.5 10.39-7.46 16.47-0.97 6.07-1.29 12.37-3.74 18.01-4.45 10.23-16.24 16.71-27.26 14.97-12.11-1.91-13.27-19.46-5.69-27.23z"/>
						<path id="&lt;Path&gt;" class="s4" d="m732.51 182.21c-8.15-14.42-3.66-32.48 2.04-48.03 5.71-15.54 12.56-32.07 8.48-48.12 3.56 10.28 11.56 18.72 14.25 29.27 2.5 9.78 0.13 20.22 1.92 30.16 1.43 7.98 5.47 15.31 6.83 23.3 1.75 10.29-2.13 26.54-11.73 32.49-10.64 6.59-17.13-10.84-21.79-19.07z"/>
						<path id="&lt;Path&gt;" class="s4" d="m801.49 162.16c13.98-8.88 32.25-5.33 48.07-0.44 15.82 4.9 32.67 10.89 48.49 5.99-10.08 4.09-18.1 12.51-28.49 15.74-9.65 3-20.19 1.18-30.03 3.47-7.89 1.84-15 6.25-22.91 8.02-10.19 2.28-26.62-0.76-33.05-10.04-7.13-10.29 9.94-17.67 17.92-22.74z"/>
					</g>
					<g id="&lt;Group&gt;">
						<path id="&lt;Path&gt;" class="s4" d="m135.24 226.7c-2.99-3.41-5.98-6.83-9.21-10.01q-4.07-4.02-8.6-7.52c1.93 0.05 3.88-0.63 5.37-1.87q8.73 9.5 18.06 18.41 0.44-0.8 0.87-1.6-1.34-4.85-2.17-9.81c-0.36-2.17-0.63-4.48 0.21-6.52 0.85-2.04 3.2-3.61 5.26-2.84-2.68 2.92-3.85 7.16-3.03 11.04 0.66 3.13 2.53 6.09 2.24 9.28-0.07 0.83-0.29 1.65-0.18 2.48 0.13 1.01 0.74 1.89 1.34 2.71 7.05 9.68 15.38 18.4 21.92 28.43 3.42 5.26 7.31 11.5 13.56 12-2.14-0.17-4.25 3.87-6.7 3.7-2.3-0.16-3.27-2.56-4.42-4.23-3.55-5.14-6.95-10.32-10.74-15.29-7.5-9.81-15.64-19.09-23.78-28.36z"/>
						<g id="&lt;Group&gt;">
							<path id="&lt;Path&gt;" class="s5" d="m250.09 465.73c1.9 1.75 4.38 2.83 6.95 3.04 0.46 0.04 0.95 0.04 1.35-0.18 0.73-0.4 0.91-1.35 1.01-2.17q0.13-1.1 0.26-2.2c0.08-0.68 0.16-1.38-0.03-2.03-0.21-0.71-0.72-1.29-1.3-1.75-1.64-1.32-4.01-1.78-5.91-0.9-1.9 0.88-3.1 3.21-2.45 5.21"/>
							<path id="&lt;Path&gt;" class="s5" d="m216.73 388.08c1.9 1.75 4.39 2.84 6.95 3.05 0.46 0.03 0.95 0.04 1.36-0.19 0.72-0.4 0.9-1.34 1-2.16q0.13-1.1 0.26-2.21c0.08-0.67 0.16-1.37-0.03-2.03-0.21-0.7-0.72-1.29-1.3-1.75-1.64-1.31-4-1.77-5.91-0.89-1.9 0.88-3.1 3.21-2.45 5.2"/>
							<path id="&lt;Path&gt;" class="s5" d="m262.43 421.15c1.89 1.74 4.38 2.83 6.95 3.04 0.46 0.04 0.95 0.04 1.35-0.19 0.73-0.4 0.91-1.34 1-2.16q0.14-1.1 0.27-2.2c0.08-0.68 0.16-1.38-0.03-2.04-0.21-0.71-0.73-1.29-1.3-1.75-1.64-1.31-4.01-1.77-5.91-0.89-1.9 0.88-3.1 3.21-2.45 5.2"/>
							<path id="&lt;Path&gt;" class="s5" d="m174.29 360.33c1.89 1.75 4.38 2.84 6.95 3.04 0.46 0.04 0.95 0.04 1.35-0.18 0.73-0.4 0.9-1.35 1-2.17q0.13-1.1 0.27-2.2c0.08-0.68 0.16-1.38-0.04-2.03-0.21-0.71-0.72-1.29-1.29-1.75-1.64-1.32-4.01-1.78-5.91-0.9-1.91 0.88-3.11 3.21-2.45 5.21"/>
							<path id="&lt;Path&gt;" class="s5" d="m223.89 439.62c1.46 1.97 3.53 3.72 5.79 4.87 0.4 0.21 0.84 0.41 1.23 0.41 0.7 0 0.98-0.6 1.18-1.14q0.27-0.72 0.53-1.44c0.17-0.45 0.33-0.91 0.25-1.45-0.1-0.58-0.48-1.19-0.93-1.74-1.28-1.57-3.33-2.83-5.15-2.95-1.81-0.13-3.19 1.04-2.88 2.7"/>
							<path id="&lt;Path&gt;" class="s5" d="m222.11 416.92c1.22-1.79 1.26-4.18 0.59-6.23-0.68-2.06-1.98-3.84-3.33-5.53-0.69-0.87-1.43-1.75-2.44-2.21-5.26-2.38-7.68 5.34-5.9 8.94 1.8 3.65 7.24 10.66 11.08 5.03z"/>
							<path id="&lt;Path&gt;" class="s5" d="m245.45 398.68c0.71-1.04 0.74-2.43 0.34-3.62-0.39-1.2-1.15-2.24-1.93-3.22-0.4-0.51-0.83-1.02-1.42-1.29-3.06-1.38-4.47 3.11-3.43 5.21 1.05 2.12 4.21 6.2 6.44 2.92z"/>
							<path id="&lt;Path&gt;" class="s5" d="m251.06 431.77c0.56-0.81 0.58-1.91 0.27-2.85-0.31-0.94-0.91-1.76-1.53-2.53-0.31-0.4-0.65-0.81-1.11-1.01-2.41-1.09-3.52 2.44-2.71 4.09 0.83 1.67 3.32 4.88 5.08 2.3z"/>
							<path id="&lt;Path&gt;" class="s5" d="m191.82 399.52c0.84-0.54 1.28-1.55 1.35-2.53 0.08-0.99-0.15-1.98-0.42-2.93-0.14-0.49-0.3-0.99-0.64-1.36-1.8-1.94-4.19 0.89-4.08 2.73 0.12 1.86 1.18 5.79 3.79 4.09z"/>
							<path id="&lt;Path&gt;" class="s5" d="m193.51 423.18c0.12-0.98-0.37-1.96-1.08-2.66-0.71-0.69-1.61-1.14-2.52-1.55-0.46-0.2-0.95-0.41-1.45-0.38-2.64 0.14-2.01 3.79-0.52 4.88 1.5 1.1 5.19 2.81 5.57-0.29z"/>
						</g>
						<g id="&lt;Group&gt;">
							<path id="&lt;Path&gt;" class="s6" d="m142.39 209.63c3.16-12.27 11.42-22.82 21.59-30.37 10.17-7.54 21.49-13.5 33.71-16.81 4.48-1.22 9.5-2.32 14.13-2.73 6.5-0.58 14.73 0.51 21.49 2.29 12.17 3.22 22.31 8.22 32.42 15.73-6.29 6.64-12.53 14.57-18.82 21.21-3.24 3.42-5.89 6.81-9.43 9.93-14.83 13.09-36.2 20.25-55.82 17.68-6.19-0.82-11.48-3.42-17.39-5.45q-10.5-3.62-20.5-8.45c-1.13-0.54-1.69-1.82-1.38-3.03z"/>
							<g id="&lt;Group&gt;">
								<path id="&lt;Path&gt;" class="s7" d="m142.63 210.45c18.66-1.91 37-6.14 55.28-10.35 22.96-5.29 47.58-9.6 67.49-22.18"/>
								<path id="&lt;Path&gt;" class="s7" d="m167.29 177.07c-1.24 10.78-4.47 21.32-9.49 30.95 5.08 7.02 12.56 13.55 20.39 17.27"/>
								<path id="&lt;Path&gt;" class="s7" d="m190.63 165.45c-7.01 12.07-12.08 25.24-14.98 38.89 6.56 10.48 15.13 15.54 26.62 20.11"/>
								<path id="&lt;Path&gt;" class="s7" d="m204.29 161.31c-7.48 12.96-13.19 26.93-16.92 41.42 8.88 8.9 21.33 14.97 33.87 15.98"/>
								<path id="&lt;Path&gt;" class="s7" d="m221.23 160.56c-7.65 11.18-13.13 23.84-16.06 37.06 9.86 5.56 20.48 9.42 31.71 10.89"/>
								<path id="&lt;Path&gt;" class="s7" d="m233.97 162.72c-6.39 9.33-11.22 20.57-13.69 31.61 8.05 4.44 15.77 5.77 24.97 5.78"/>
								<path id="&lt;Path&gt;" class="s7" d="m245.95 166.96c-3.87 6.7-7.52 15.63-9.81 23.02 4.67 2.71 10.07 2.85 15.45 2.46"/>
							</g>
						</g>
					</g>
					<g id="&lt;Group&gt;">
						<path id="&lt;Path&gt;" class="s8" d="m925.28 720.94c10.83-1.69 21.92 0.52 32.36 3.88 27.02 8.7 51.79 25.18 80 28.27 15.79 1.73 32.02-0.86 47.49 2.77 17.71 4.15 32.57 16.05 45.55 28.8 14.9 14.63 28.6 31.55 33.98 51.73 5.38 20.18 0.64 44.18-15.92 56.91-6.46 4.96-14.41 8.08-19.83 14.16-7.56 8.48-8.63 20.81-13.64 31.01-9.19 18.68-31.31 28.35-52.12 27.95-20.81-0.41-40.53-9.17-58.74-19.26-10.06-5.57-19.93-11.65-28.38-19.46-35.47-32.79-38.71-88.1-66.84-127.38-7.34-10.26-16.49-19.62-20.55-31.57-7.6-22.43 15.68-44.53 36.64-47.81z"/>
						<path id="&lt;Path&gt;" class="s8" d="m864.31 709.03c10.93 7.84 20.49 17.4 29.99 26.92 1.81 2.7-1.76 7.07-4.83 8-11.03-20.96-33.02-35.75-56.6-38.07-4.5-0.45-12.1-0.67-11.99-4.96 1.92-8.55 10.87-7.72 21.47-3.83 7.84 2.89 15.18 7.09 21.96 11.94z"/>
					</g>
					<g id="&lt;Group&gt;">
						<path id="&lt;Path&gt;" class="s9" d="m226.32 803.58c-4.26-2.88-9.21-4.54-14.09-6.17q-8.29-2.75-16.58-5.51c-7.74-2.58-15.78-5.33-21.54-11.12-4.68-4.69-5.06-12.62-9.99-17.05-2.77-2.49-5.85 0.25-3.35 7.74 2.74 3.57 2.73 8.46 3.98 12.79 1.83 6.36 6.43 11.5 11.02 16.27 10.06 10.42 20.81 20.19 32.16 29.2 4.39 3.5 9.96 7.07 15.24 5.16 5.67-2.05 8.59-10.31 10.2-15.59 2.03-6.66-1.01-11.63-7.05-15.72z"/>
						<path id="&lt;Path&gt;" class="s4" d="m250.3 839.6c-4.82-3.33-10.28-6.83-16.07-5.96-1.75 0.26-3.41 0.91-5.14 1.25-3.28 0.62-7.49 2.24-10.39 0.6 1.97-3.96 2.33-10.93 4.3-14.89 2.47-4.94 5.98-10.14 11.21-11.94-0.11 6.37 2.63 13.41 4.61 19.46 7.99 4.52 15.5 9.89 22.36 15.99-0.05-0.05-1.7 2.48-1.85 2.72-2.86-2.62-5.83-5.01-9.03-7.23z"/>
					</g>
					<g id="&lt;Group&gt;">
						<path id="&lt;Path&gt;" class="s6" d="m722.3 385.17c4.47-0.99 9.11-1.26 13.65-0.66 20.07 2.67 36 21.78 56.23 21.18 1.65-0.05 3.37-0.26 4.71-1.22 2.67-1.94 2.6-6.17 0.79-8.93-1.81-2.77-4.81-4.45-7.63-6.18-2.81-1.73-5.68-3.78-6.9-6.85-0.81-2.05-0.07-5.18 2.14-5.18 0.8 0 1.53 0.44 2.28 0.74 1.96 0.76 4.15 0.5 6.24 0.22q17.86-2.46 35.52-6.13c2.36-0.5 5.4-2.03 4.71-4.35-0.41-1.41-2.02-2.02-3.43-2.43q-3.34-0.99-6.69-1.98c-0.68-0.21-1.41-0.44-1.84-1.02-1.15-1.56 0.91-3.45 2.63-4.36 7.43-3.91 14.33-9.43 18.03-16.96 3.71-7.53 3.59-17.31-1.82-23.72-3.77-4.46-10.99-6.69-15.53-3.01-2.08 1.69-3.21 4.24-4.34 6.67-2.21 4.78-4.68 9.45-7.65 13.8-1.41 2.07-3 4.12-5.16 5.37-2.17 1.26-5.06 1.56-7.13 0.15-4.37-3-2.49-11.05-7.04-13.77-0.8-0.48-1.78-0.72-2.68-0.46-2.45 0.69-2.58 4.06-2.31 6.59 0.74 6.86 0.6 13.8-0.4 20.62-0.48 3.24-1.51 6.93-4.5 8.26-4.31 1.91-8.7-2.41-11.22-6.39-2.51-3.98-5.95-8.73-10.6-8-5.04 0.79-6.64 7.35-6.08 12.42 0.55 5.08 1.91 10.79-1.17 14.86-3.68 4.83-10.95 4.06-17.03 3.9-11.3-0.31-22.68 3.33-31.71 10.14-3.48 2.62-9.2 6.52-10.93 10.51-0.22 3.7 7.8-4.45 10.85-6.64 4.78-3.43 10.26-5.92 16.01-7.19z"/>
						<g id="&lt;Group&gt;">
							<path id="&lt;Path&gt;" class="s10" d="m696.7 398.78c4.52-4.93 9.95-9.04 15.92-12.14 6-3.05 12.55-5.06 19.27-5.88 6.75-0.86 13.48-0.05 20.03-0.59 6.57-0.49 13.06-2 19.26-4.26 6.22-2.21 12.17-5.17 17.79-8.68 5.62-3.5 10.89-7.57 15.96-11.86 5.05-4.31 9.84-8.96 14.47-13.75 2.32-2.38 4.58-4.83 6.47-7.55 1.9-2.71 3.43-5.73 4.1-9l0.1 0.02c-0.6 3.3-2.07 6.39-3.92 9.16-1.86 2.79-4.07 5.31-6.35 7.75-4.57 4.86-9.31 9.58-14.34 13.98-10.02 8.8-21.32 16.38-33.93 20.92-6.29 2.26-12.87 3.76-19.54 4.22-6.68 0.5-13.37-0.29-20.01 0.45-13.27 1.44-25.97 7.64-35.21 17.28z"/>
						</g>
					</g>
					<g id="&lt;Group&gt;">
						<path id="&lt;Path&gt;" class="s6" d="m165.2 558.4c-5.45 1.96-11.23 3.05-17.01 3.03-25.6-0.1-48.66-21.49-73.93-17.47-2.06 0.32-4.19 0.87-5.71 2.3-3.03 2.85-2.26 8.15 0.45 11.32 2.71 3.17 6.76 4.8 10.56 6.52 3.81 1.71 7.74 3.82 9.76 7.47 1.35 2.44 0.93 6.48-1.83 6.84-1.01 0.13-2-0.31-2.99-0.56-2.58-0.64-5.29 0.04-7.86 0.74q-22 5.96-43.54 13.42c-2.89 1-6.45 3.42-5.21 6.22 0.74 1.69 2.86 2.2 4.69 2.49q4.35 0.7 8.7 1.4c0.9 0.15 1.85 0.32 2.48 0.97 1.7 1.78-0.59 4.49-2.59 5.9-8.68 6.11-16.45 14.14-19.87 24.18-3.43 10.04-1.71 22.28 6.11 29.45 5.45 4.99 14.86 6.61 19.96 1.27 2.34-2.45 3.35-5.84 4.37-9.07 2-6.35 4.34-12.61 7.36-18.54 1.44-2.82 3.09-5.65 5.61-7.57 2.51-1.93 6.09-2.78 8.91-1.34 5.97 3.05 4.91 13.46 11.06 16.13 1.08 0.47 2.35 0.61 3.43 0.15 2.96-1.27 2.58-5.51 1.83-8.65-2.03-8.47-2.98-17.2-2.83-25.91 0.08-4.15 0.77-8.93 4.31-11.09 5.09-3.09 11.3 1.62 15.09 6.2 3.8 4.59 8.88 9.99 14.59 8.32 6.2-1.8 7.14-10.28 5.63-16.56-1.51-6.27-4.15-13.21-0.94-18.81 3.83-6.66 13.08-6.87 20.72-7.65 14.23-1.44 27.9-7.84 38.13-17.83 3.94-3.85 10.49-9.66 12-14.95-0.31-4.67-9.05 6.84-12.52 10.08-5.45 5.08-11.91 9.08-18.92 11.6z"/>
						<g id="&lt;Group&gt;">
							<path id="&lt;Path&gt;" class="s10" d="m195.1 537.2c-4.86 6.91-11.01 12.95-18 17.8-7.04 4.79-14.92 8.37-23.21 10.48-8.33 2.17-16.9 2.24-25.03 3.98-8.16 1.67-16.04 4.61-23.45 8.44-7.44 3.79-14.43 8.46-20.91 13.77-6.49 5.29-12.43 11.24-18.1 17.45-5.64 6.22-10.89 12.82-15.92 19.58-2.53 3.35-4.96 6.79-6.9 10.51-1.94 3.7-3.37 7.74-3.69 11.95l-0.13-0.01c0.23-4.24 1.57-8.34 3.45-12.12 1.87-3.8 4.24-7.32 6.7-10.74 4.95-6.84 10.13-13.52 15.73-19.85 5.58-6.33 11.58-12.32 18.1-17.7 6.51-5.38 13.55-10.15 21.06-14.01 7.52-3.85 15.53-6.79 23.83-8.45 8.29-1.71 16.81-1.8 25.02-3.8 16.4-3.94 31.32-13.78 41.35-27.36z"/>
						</g>
					</g>
					<g id="&lt;Group&gt;">
						<path id="&lt;Path&gt;" class="s6" d="m516.71 262.32c-2.1-4.07-4.85-7.82-8.21-10.93-14.85-13.75-39.73-13.82-52.18-29.78-1.02-1.29-1.95-2.76-2.06-4.4-0.22-3.3 3.09-5.94 6.37-6.31 3.28-0.37 6.49 0.87 9.62 1.93 3.12 1.06 6.54 1.96 9.68 0.94 2.1-0.68 4.03-3.25 2.63-4.95-0.52-0.62-1.32-0.89-2.03-1.28-1.84-1.02-3.04-2.88-4.15-4.67q-9.51-15.32-17.95-31.26c-1.13-2.13-1.88-5.45 0.34-6.4 1.35-0.58 2.85 0.27 4.06 1.09q2.9 1.94 5.8 3.88c0.59 0.4 1.24 0.81 1.95 0.77 1.94-0.11 2.08-2.9 1.68-4.8-1.72-8.22-1.88-17.05 1.56-24.71 3.43-7.66 11.03-13.81 19.42-13.73 5.85 0.05 12.16 4.19 12.23 10.03 0.03 2.68-1.22 5.19-2.37 7.6-2.26 4.76-4.28 9.64-5.74 14.7-0.69 2.41-1.26 4.93-0.84 7.41 0.41 2.47 2.02 4.88 4.43 5.57 5.1 1.46 10.1-5.13 15.1-3.36 0.88 0.31 1.69 0.91 2.06 1.77 1.03 2.33-1.48 4.58-3.6 5.98-5.75 3.81-11.01 8.35-15.62 13.47-2.19 2.44-4.37 5.58-3.49 8.74 1.28 4.53 7.41 5.15 12.08 4.55 4.67-0.6 10.52-0.99 12.92 3.06 2.61 4.39-1.42 9.8-5.68 12.61-4.26 2.82-9.53 5.41-10.69 10.38-1.38 5.92 3.86 11.03 7.86 15.6 7.45 8.51 11.91 19.59 12.43 30.89 0.2 4.35 0.85 11.24-1.12 15.12-2.7 2.53-1.55-8.85-1.81-12.59-0.41-5.88-1.99-11.68-4.68-16.92z"/>
						<g id="&lt;Group&gt;">
							<path id="&lt;Path&gt;" class="s10" d="m522.46 290.71c0.63-6.65 0.03-13.37-1.66-19.77-1.63-6.42-4.34-12.55-8.04-18-3.7-5.45-8.54-10.1-12.5-15.61-3.97-5.49-7.07-11.56-9.38-17.91-4.54-12.75-5.94-26.39-5.42-39.77 0.27-6.7 0.94-13.37 1.86-20 0.49-3.31 1.09-6.63 2.13-9.84 1.03-3.19 2.54-6.28 4.75-8.81l0.08 0.07c-2.14 2.56-3.57 5.65-4.52 8.84-0.95 3.2-1.48 6.5-1.9 9.81-0.82 6.62-1.41 13.28-1.59 19.95-0.36 13.32 1.03 26.83 5.59 39.4 2.26 6.27 5.29 12.28 9.17 17.7 3.85 5.45 8.73 10.11 12.41 15.72 7.36 11.17 10.67 24.94 9.13 38.23z"/>
						</g>
					</g>
					<g id="&lt;Group&gt;">
					</g>
					<g id="&lt;Group&gt;">
						<g id="&lt;Group&gt;">
							<path id="&lt;Path&gt;" class="s4" d="m495.47 853.29c-0.84-0.61-1.73-1.04-2.3-1.73-2.4-2.91-4.7-5.9-7.02-8.87-0.24-0.3-0.36-0.7-0.58-1.02-0.88-1.22-0.16-1.84 1.08-2.38 0.25-0.1 0.77 0.06 0.95 0.27 1.83 2.19 3.62 4.41 5.42 6.61 0.19 0.24 0.43 0.43 0.61 0.66 0.41 0.52 0.87 1.02 1.17 1.6 0.33 0.65 0.56 1.28 1.11 1.87 0.47 0.51 0.24 1.69 0.23 2.58 0 0.14-0.46 0.28-0.67 0.41z"/>
							<path id="&lt;Path&gt;" class="s4" d="m471.25 862.64c0.25-1.48 1.63-2.14 2.56-1.44 1.76 1.34 3.63 2.57 4.9 4.47 0.28 0.43 0.72 0.74 1.03 1.15q0.59 0.8 1.09 1.66c0.3 0.5 0.51 1.05 0.83 1.53 0.33 0.49 0.27 2.14-0.22 2.49-0.2 0.14-0.66 0.18-0.83 0.05-0.72-0.57-1.49-1.14-2.06-1.86-1.88-2.37-3.84-4.64-6.2-6.56-0.52-0.43-0.83-1.12-1.1-1.49z"/>
							<path id="&lt;Path&gt;" class="s4" d="m482.08 857.16c0.67 0.59 1.25 1 1.69 1.52 1.3 1.53 2.79 2.91 3.61 4.81 0.12 0.29 0.44 0.5 0.62 0.78 0.29 0.45 0.68 0.9 0.77 1.4 0.12 0.67 0.15 1.29 0.7 1.81 0.38 0.36 0.12 2.01-0.34 2.29-0.23 0.14-0.74 0.19-0.9 0.04-0.72-0.68-1.42-1.39-2.01-2.18-1.7-2.26-3.34-4.57-4.99-6.87-0.28-0.39-0.61-0.78-0.76-1.23-0.13-0.37-0.2-0.97 0.01-1.2 0.4-0.47 1.02-0.77 1.6-1.17z"/>
							<path id="&lt;Path&gt;" class="s4" d="m460.24 862.81c-0.19 0.42-0.25 0.82-0.48 1.01-0.22 0.18-0.75 0.32-0.91 0.19-0.66-0.51-1.29-1.09-1.8-1.74-1.74-2.23-3.4-4.52-5.13-6.76-0.69-0.9-0.93-1.78-0.47-2.35 0.86-1.08 1.76-1.19 2.66-0.15 1.31 1.5 2.42 3.2 3.81 4.63 1.16 1.2 1.39 2.79 2.2 4.12 0.18 0.3 0.09 0.76 0.12 1.05z"/>
							<path id="&lt;Path&gt;" class="s4" d="m488.45 877.35c0.33-1.34 1.98-1.93 2.71-1.12 1.28 1.45 2.47 2.98 3.7 4.49q0.49 0.59 0.92 1.24 0.34 0.57 0.6 1.19c0.22 0.49 0.36 1.01 0.61 1.49 0.28 0.52 0.09 2.06-0.41 2.36-0.22 0.13-0.66 0.17-0.83 0.04-0.6-0.45-1.21-0.93-1.66-1.52q-2.56-3.38-5.03-6.83c-0.32-0.45-0.46-1.02-0.61-1.34z"/>
							<path id="&lt;Path&gt;" class="s4" d="m498.71 828.07c0.41-0.35 0.92-1.09 1.56-1.23 0.54-0.11 1.45 0.31 1.81 0.79 1.07 1.42 1.79 3.14 2.97 4.45 1.01 1.13 0.8 2.56 1.51 3.71 0.3 0.48-0.38 1.92-0.92 2.1-0.12 0.05-0.34 0.04-0.42-0.03-0.56-0.51-1.32-0.94-1.61-1.58-0.96-2.16-2.49-3.88-3.95-5.67-0.53-0.65-1.16-1.3-0.95-2.54z"/>
							<path id="&lt;Path&gt;" class="s4" d="m461.87 852.47c-0.65-0.6-1.31-1.07-1.78-1.67-1.62-2.09-3.13-4.25-4.77-6.32-1.04-1.33-1.06-2.01 0.14-2.91 0.6-0.45 1.17-0.5 1.7 0.07 1.33 1.44 2.93 2.65 3.77 4.52 0.15 0.34 0.5 0.6 0.73 0.92 0.23 0.34 0.47 0.7 0.64 1.08 0.26 0.59 0.58 1.19 0.64 1.81 0.07 0.66-0.08 1.35-0.26 1.99-0.06 0.22-0.5 0.33-0.81 0.51z"/>
							<path id="&lt;Path&gt;" class="s4" d="m512.81 849.85c-0.36 1.6-1.11 1.88-2.04 0.87-0.87-0.96-1.59-2.06-2.33-3.12q-1.61-2.28-3.13-4.62c-0.69-1.06-0.5-1.7 0.57-2.35 0.73-0.43 1.45-0.33 2.02 0.41 1.14 1.5 2.3 2.96 3.32 4.56 0.73 1.14 0.78 2.45 1.55 3.51 0.16 0.22 0.04 0.64 0.04 0.74z"/>
							<path id="&lt;Path&gt;" class="s4" d="m478.98 846.84c-0.67-0.64-1.32-1.15-1.82-1.78-1.51-1.95-2.9-3.98-4.44-5.9-1.31-1.63-0.58-2.33 0.8-3.01 0.24-0.12 0.81 0.07 1.04 0.3 1.33 1.37 2.91 2.52 3.68 4.38 0.17 0.43 0.64 0.72 0.92 1.12 0.21 0.29 0.33 0.64 0.47 0.97 0.19 0.48 0.5 0.98 0.51 1.47 0.01 0.63-0.17 1.28-0.39 1.88-0.08 0.24-0.48 0.37-0.77 0.57z"/>
							<path id="&lt;Path&gt;" class="s4" d="m458.36 825.94c0.37 0.19 0.66 0.26 0.85 0.45 0.96 0.93 1.92 1.87 2.83 2.85 0.6 0.64 1.12 1.35 1.64 2.05 0.23 0.31 0.37 0.7 0.54 1.05 0.2 0.44 0.51 0.86 0.56 1.31 0.08 0.68 0.1 1.42-0.09 2.06-0.14 0.45-0.61 0.57-1.2 0.21-1.83-1.13-2.74-3.06-4.16-4.53-0.68-0.69-1.25-1.49-1.95-2.16-1.21-1.17-1.22-2.09 0.07-2.97 0.28-0.19 0.66-0.24 0.91-0.32z"/>
							<path id="&lt;Path&gt;" class="s4" d="m493.13 836.66c0.29-1.34 1.73-2.03 2.52-1.33 1.19 1.06 2.2 2.31 3.28 3.49 0.15 0.15 0.18 0.43 0.34 0.54 1.12 0.81 1.33 2.14 1.81 3.28 0.23 0.55-0.05 1.34-0.21 1.99-0.03 0.14-0.65 0.32-0.85 0.21-0.62-0.36-1.28-0.75-1.73-1.29-1.54-1.84-3-3.73-4.46-5.64-0.34-0.43-0.55-0.96-0.7-1.25z"/>
							<path id="&lt;Path&gt;" class="s4" d="m473.34 854.95c-0.4 1.61-0.94 1.75-2 0.99-1.33-0.95-1.74-2.52-2.72-3.71-0.79-0.95-1.44-2.03-2.18-3.03-0.69-0.92-0.8-1.69-0.22-2.19 1.04-0.89 1.89-0.94 2.69 0.04 0.96 1.2 1.79 2.51 2.68 3.77q0.32 0.44 0.66 0.87c0.78 1.06 0.81 2.33 1.09 3.26z"/>
							<path id="&lt;Path&gt;" class="s4" d="m511.9 861.74c-0.43 1.86-0.96 2.1-2.02 1.02-1.14-1.17-2.08-2.52-3.13-3.77-0.66-0.79-1.38-1.54-2.04-2.33-0.85-1.02-0.71-1.85 0.4-2.59 0.55-0.36 1.12-0.42 1.59 0.05q1.6 1.61 3.11 3.29c0.37 0.4 0.65 0.88 0.98 1.31 0.76 0.99 0.81 2.2 1.11 3.02z"/>
							<path id="&lt;Path&gt;" class="s4" d="m512.21 831.34c-0.22 0.25-0.56 0.97-0.9 0.97-0.54-0.01-1.23-0.36-1.58-0.79-1.18-1.46-2.26-3.01-3.33-4.56-0.49-0.72-0.46-1.45 0.22-2.14 0.86-0.88 1.57-0.91 2.54-0.14 1.81 1.45 2.54 3.46 3.09 5.59 0.06 0.25-0.02 0.54-0.04 1.07z"/>
							<path id="&lt;Path&gt;" class="s4" d="m498.12 865.85c-0.46 0.42-0.91 1.11-1.26 1.07-0.58-0.07-1.26-0.51-1.62-0.99-1.07-1.4-1.98-2.92-2.98-4.37-0.71-1.01-0.73-1.47 0-2.04 1.09-0.85 1.81-0.87 2.53 0.02 0.9 1.14 1.85 2.27 2.57 3.52 0.44 0.77 0.5 1.77 0.76 2.79z"/>
							<path id="&lt;Path&gt;" class="s4" d="m496.96 902.66c-0.46 0.42-0.91 1.11-1.26 1.07-0.58-0.08-1.26-0.51-1.62-0.99-1.07-1.41-1.98-2.92-2.99-4.37-0.7-1.01-0.72-1.47 0.01-2.04 1.09-0.85 1.81-0.88 2.53 0.02 0.9 1.14 1.85 2.27 2.57 3.52 0.44 0.77 0.5 1.76 0.76 2.79z"/>
							<path id="&lt;Path&gt;" class="s4" d="m489.27 831.64c-0.46 0.41-0.91 1.1-1.26 1.06-0.58-0.07-1.26-0.5-1.63-0.99-1.06-1.4-1.97-2.92-2.98-4.37-0.7-1.01-0.72-1.46 0.01-2.03 1.09-0.85 1.81-0.88 2.52 0.02 0.91 1.13 1.85 2.26 2.57 3.52 0.45 0.77 0.51 1.76 0.77 2.79z"/>
							<path id="&lt;Path&gt;" class="s4" d="m505.69 872.89c-0.45-0.5-0.86-0.88-1.19-1.33q-1.13-1.59-2.21-3.22c-0.39-0.57-0.93-1.13-0.16-1.83 1.22-1.11 1.79-1.23 2.59-0.34 0.82 0.91 1.57 1.9 2.28 2.91 0.5 0.7 0.35 2.54-0.24 3.18-0.23 0.26-0.62 0.38-1.07 0.63z"/>
							<path id="&lt;Path&gt;" class="s4" d="m498.12 872.49c0.36 0.27 0.95 0.58 1.36 1.04 1.01 1.11 1.67 2.43 1.31 3.95-0.12 0.5-0.78 1.02-1.31 1.22-0.28 0.11-0.92-0.35-1.21-0.71-0.83-1.03-1.56-2.14-2.32-3.23-0.13-0.19-0.26-0.44-0.25-0.65 0.02-0.73 1.52-1.82 2.42-1.62z"/>
						</g>
						<g id="&lt;Group&gt;">
							<path id="&lt;Path&gt;" class="s4" d="m513.81 925.3c-0.83-0.61-1.73-1.03-2.3-1.73-2.4-2.91-4.7-5.89-7.02-8.86-0.24-0.31-0.35-0.71-0.58-1.03-0.88-1.22-0.16-1.84 1.09-2.38 0.24-0.1 0.76 0.06 0.94 0.27 1.84 2.19 3.62 4.41 5.43 6.62 0.19 0.23 0.42 0.42 0.6 0.66 0.41 0.52 0.88 1.01 1.17 1.59 0.34 0.65 0.56 1.28 1.11 1.87 0.47 0.51 0.24 1.69 0.23 2.58 0 0.14-0.45 0.29-0.67 0.41z"/>
							<path id="&lt;Path&gt;" class="s4" d="m489.59 934.65c0.25-1.48 1.63-2.14 2.56-1.44 1.76 1.34 3.63 2.57 4.9 4.47 0.28 0.43 0.72 0.75 1.03 1.16q0.59 0.79 1.1 1.65c0.3 0.5 0.5 1.05 0.83 1.53 0.33 0.49 0.26 2.14-0.23 2.49-0.2 0.14-0.66 0.18-0.82 0.05-0.73-0.57-1.5-1.14-2.07-1.86-1.88-2.37-3.83-4.64-6.2-6.56-0.52-0.43-0.83-1.11-1.1-1.49z"/>
							<path id="&lt;Path&gt;" class="s4" d="m500.42 929.17c0.67 0.59 1.25 1 1.7 1.52 1.29 1.53 2.78 2.91 3.6 4.81 0.12 0.29 0.44 0.5 0.62 0.78 0.29 0.45 0.68 0.91 0.77 1.41 0.12 0.66 0.15 1.29 0.7 1.8 0.38 0.36 0.12 2.01-0.33 2.29-0.24 0.14-0.75 0.19-0.91 0.04-0.72-0.68-1.42-1.39-2.01-2.17-1.7-2.27-3.34-4.58-4.99-6.88-0.28-0.39-0.61-0.78-0.76-1.23-0.13-0.37-0.2-0.96 0.01-1.2 0.41-0.47 1.02-0.77 1.6-1.17z"/>
							<path id="&lt;Path&gt;" class="s4" d="m478.58 934.82c-0.19 0.42-0.25 0.82-0.48 1.01-0.22 0.18-0.75 0.32-0.91 0.19-0.65-0.51-1.29-1.09-1.8-1.74-1.74-2.23-3.4-4.52-5.12-6.76-0.7-0.9-0.94-1.78-0.48-2.35 0.86-1.07 1.76-1.18 2.66-0.15 1.31 1.5 2.42 3.2 3.81 4.63 1.16 1.2 1.39 2.79 2.2 4.13 0.18 0.29 0.09 0.75 0.12 1.04z"/>
							<path id="&lt;Path&gt;" class="s4" d="m506.8 949.36c0.32-1.34 1.98-1.93 2.7-1.11 1.29 1.44 2.48 2.97 3.7 4.48q0.5 0.59 0.92 1.24 0.35 0.57 0.6 1.19c0.22 0.49 0.37 1.01 0.61 1.49 0.28 0.52 0.09 2.06-0.41 2.37-0.22 0.12-0.65 0.16-0.83 0.03-0.6-0.45-1.21-0.93-1.66-1.52q-2.56-3.38-5.02-6.83c-0.32-0.45-0.47-1.02-0.61-1.34z"/>
							<path id="&lt;Path&gt;" class="s4" d="m517.06 900.08c0.41-0.35 0.92-1.09 1.56-1.23 0.53-0.11 1.44 0.31 1.8 0.79 1.07 1.42 1.79 3.14 2.97 4.45 1.01 1.13 0.8 2.56 1.52 3.71 0.29 0.48-0.38 1.92-0.93 2.1-0.12 0.05-0.33 0.05-0.42-0.03-0.56-0.51-1.32-0.94-1.61-1.58-0.96-2.16-2.49-3.88-3.95-5.67-0.53-0.65-1.16-1.3-0.94-2.54z"/>
							<path id="&lt;Path&gt;" class="s4" d="m504.54 884.47c0.41-0.35 0.92-1.1 1.56-1.23 0.53-0.12 1.44 0.31 1.8 0.78 1.08 1.43 1.8 3.14 2.98 4.46 1 1.12 0.8 2.56 1.51 3.7 0.3 0.48-0.38 1.92-0.92 2.11-0.13 0.04-0.34 0.04-0.43-0.04-0.56-0.5-1.32-0.94-1.6-1.58-0.96-2.16-2.49-3.88-3.96-5.67-0.53-0.64-1.16-1.29-0.94-2.53z"/>
							<path id="&lt;Path&gt;" class="s4" d="m480.21 924.49c-0.65-0.61-1.3-1.08-1.78-1.68-1.62-2.09-3.13-4.25-4.76-6.32-1.05-1.33-1.07-2.01 0.13-2.91 0.6-0.45 1.17-0.5 1.7 0.07 1.34 1.44 2.94 2.65 3.77 4.52 0.16 0.35 0.5 0.6 0.73 0.92 0.24 0.34 0.47 0.7 0.64 1.08 0.26 0.59 0.58 1.19 0.65 1.82 0.06 0.65-0.09 1.34-0.27 1.99-0.06 0.21-0.5 0.32-0.81 0.51z"/>
							<path id="&lt;Path&gt;" class="s4" d="m531.15 921.86c-0.36 1.6-1.11 1.88-2.04 0.87-0.87-0.96-1.59-2.06-2.33-3.12q-1.61-2.28-3.13-4.62c-0.69-1.06-0.5-1.7 0.57-2.34 0.73-0.44 1.46-0.34 2.02 0.4 1.14 1.5 2.3 2.96 3.33 4.56 0.72 1.14 0.78 2.45 1.54 3.51 0.16 0.22 0.04 0.64 0.04 0.74z"/>
							<path id="&lt;Path&gt;" class="s4" d="m497.32 918.85c-0.67-0.64-1.32-1.15-1.81-1.78-1.52-1.95-2.91-3.98-4.45-5.9-1.31-1.63-0.58-2.33 0.8-3.01 0.25-0.12 0.81 0.07 1.04 0.3 1.33 1.37 2.91 2.52 3.68 4.38 0.18 0.43 0.64 0.73 0.92 1.12 0.21 0.29 0.34 0.64 0.47 0.97 0.19 0.48 0.5 0.98 0.51 1.47 0.01 0.63-0.17 1.28-0.38 1.88-0.09 0.24-0.49 0.37-0.78 0.57z"/>
							<path id="&lt;Path&gt;" class="s4" d="m534.98 884.14c-0.67-0.65-1.32-1.16-1.81-1.79-1.51-1.94-2.91-3.98-4.45-5.9-1.31-1.63-0.58-2.33 0.8-3.01 0.25-0.12 0.82 0.07 1.04 0.31 1.33 1.36 2.91 2.52 3.68 4.37 0.18 0.43 0.65 0.73 0.93 1.13 0.2 0.28 0.33 0.63 0.46 0.96 0.19 0.49 0.5 0.98 0.51 1.48 0.01 0.63-0.17 1.28-0.38 1.88-0.09 0.23-0.48 0.36-0.78 0.57z"/>
							<path id="&lt;Path&gt;" class="s4" d="m519.61 882.29c-0.67-0.65-1.33-1.16-1.82-1.79-1.51-1.94-2.91-3.98-4.45-5.9-1.31-1.63-0.57-2.33 0.81-3.01 0.24-0.12 0.81 0.07 1.04 0.31 1.33 1.36 2.91 2.52 3.68 4.37 0.17 0.43 0.64 0.73 0.92 1.13 0.2 0.28 0.33 0.63 0.47 0.96 0.19 0.49 0.49 0.98 0.5 1.48 0.02 0.62-0.16 1.28-0.38 1.87-0.08 0.24-0.48 0.37-0.77 0.58z"/>
							<path id="&lt;Path&gt;" class="s4" d="m476.71 897.95c0.36 0.19 0.65 0.27 0.84 0.45 0.96 0.93 1.92 1.87 2.83 2.85 0.6 0.64 1.13 1.35 1.64 2.05 0.23 0.32 0.37 0.7 0.54 1.06 0.2 0.43 0.51 0.85 0.56 1.3 0.08 0.68 0.11 1.43-0.09 2.07-0.14 0.44-0.6 0.56-1.19 0.2-1.84-1.13-2.74-3.06-4.17-4.53-0.68-0.69-1.25-1.49-1.95-2.16-1.21-1.17-1.22-2.09 0.08-2.97 0.27-0.19 0.65-0.23 0.91-0.32z"/>
							<path id="&lt;Path&gt;" class="s4" d="m511.47 908.67c0.3-1.34 1.73-2.03 2.52-1.33 1.19 1.06 2.21 2.31 3.29 3.49 0.14 0.15 0.17 0.43 0.33 0.54 1.12 0.81 1.33 2.15 1.81 3.29 0.23 0.54-0.04 1.33-0.21 1.98-0.03 0.14-0.65 0.32-0.84 0.21-0.63-0.36-1.29-0.75-1.74-1.29-1.54-1.84-3-3.73-4.46-5.63-0.34-0.44-0.54-0.97-0.7-1.26z"/>
							<path id="&lt;Path&gt;" class="s4" d="m491.68 926.96c-0.4 1.61-0.94 1.75-2 0.99-1.33-0.95-1.74-2.52-2.72-3.7-0.79-0.96-1.43-2.04-2.18-3.04-0.69-0.92-0.79-1.69-0.22-2.19 1.04-0.89 1.89-0.94 2.69 0.05 0.97 1.19 1.79 2.5 2.68 3.76q0.32 0.44 0.66 0.87c0.78 1.06 0.82 2.33 1.09 3.26z"/>
							<path id="&lt;Path&gt;" class="s4" d="m530.24 933.75c-0.43 1.86-0.96 2.1-2.02 1.02-1.14-1.17-2.08-2.52-3.13-3.77-0.66-0.79-1.38-1.54-2.04-2.33-0.85-1.02-0.71-1.85 0.4-2.59 0.55-0.36 1.13-0.42 1.6 0.05q1.59 1.61 3.11 3.29c0.36 0.4 0.65 0.88 0.98 1.31 0.75 0.99 0.8 2.2 1.1 3.02z"/>
							<path id="&lt;Path&gt;" class="s4" d="m530.55 903.35c-0.22 0.25-0.56 0.97-0.9 0.97-0.54 0-1.23-0.36-1.58-0.79-1.18-1.46-2.26-3.01-3.33-4.55-0.49-0.73-0.46-1.46 0.22-2.15 0.86-0.88 1.57-0.91 2.54-0.14 1.82 1.45 2.55 3.46 3.09 5.59 0.06 0.25-0.02 0.54-0.04 1.07z"/>
							<path id="&lt;Path&gt;" class="s4" d="m521.39 892.53c-0.22 0.25-0.56 0.97-0.9 0.97-0.54-0.01-1.23-0.36-1.58-0.79-1.18-1.46-2.26-3.01-3.33-4.56-0.49-0.72-0.46-1.45 0.22-2.14 0.86-0.89 1.57-0.91 2.54-0.14 1.82 1.45 2.54 3.46 3.09 5.59 0.06 0.25-0.02 0.54-0.04 1.07z"/>
							<path id="&lt;Path&gt;" class="s4" d="m531.43 889.46c-0.22 0.25-0.56 0.97-0.89 0.97-0.54-0.01-1.24-0.36-1.59-0.79-1.18-1.46-2.26-3.01-3.32-4.56-0.5-0.72-0.47-1.45 0.21-2.14 0.87-0.88 1.57-0.91 2.54-0.14 1.82 1.45 2.55 3.46 3.09 5.59 0.06 0.25-0.01 0.54-0.04 1.07z"/>
							<path id="&lt;Path&gt;" class="s4" d="m449.64 876.39c-0.22 0.25-0.56 0.97-0.89 0.97-0.54-0.01-1.24-0.36-1.59-0.79-1.18-1.47-2.26-3.01-3.32-4.56-0.5-0.72-0.47-1.45 0.21-2.14 0.87-0.89 1.57-0.91 2.54-0.14 1.82 1.44 2.55 3.46 3.09 5.59 0.07 0.25-0.01 0.54-0.04 1.07z"/>
							<path id="&lt;Path&gt;" class="s4" d="m471.27 882.57c-0.22 0.26-0.57 0.98-0.9 0.97-0.54 0-1.23-0.36-1.58-0.79-1.18-1.46-2.27-3.01-3.33-4.55-0.5-0.73-0.47-1.46 0.21-2.15 0.87-0.88 1.57-0.91 2.55-0.13 1.81 1.44 2.54 3.45 3.09 5.58 0.06 0.25-0.02 0.54-0.04 1.07z"/>
							<path id="&lt;Path&gt;" class="s4" d="m542.39 900.66c-0.22 0.25-0.57 0.97-0.9 0.97-0.54-0.01-1.23-0.36-1.58-0.79-1.18-1.46-2.27-3.01-3.33-4.56-0.5-0.72-0.47-1.45 0.21-2.14 0.87-0.88 1.57-0.91 2.55-0.14 1.81 1.45 2.54 3.46 3.08 5.59 0.07 0.25-0.01 0.54-0.03 1.07z"/>
							<path id="&lt;Path&gt;" class="s4" d="m461.17 892.7c-0.22 0.25-0.56 0.97-0.89 0.97-0.54-0.01-1.24-0.36-1.59-0.79-1.18-1.47-2.26-3.01-3.32-4.56-0.5-0.72-0.47-1.45 0.21-2.14 0.87-0.89 1.57-0.91 2.54-0.14 1.82 1.44 2.55 3.46 3.09 5.59 0.06 0.25-0.01 0.54-0.04 1.07z"/>
							<path id="&lt;Path&gt;" class="s4" d="m483.77 889.94c-0.22 0.25-0.56 0.97-0.89 0.97-0.54-0.01-1.24-0.36-1.59-0.8-1.18-1.46-2.26-3-3.32-4.55-0.5-0.72-0.47-1.45 0.21-2.14 0.87-0.89 1.57-0.91 2.54-0.14 1.82 1.44 2.55 3.46 3.09 5.59 0.07 0.25-0.01 0.54-0.04 1.07z"/>
							<path id="&lt;Path&gt;" class="s4" d="m516.47 937.87c-0.47 0.41-0.91 1.1-1.27 1.06-0.58-0.07-1.25-0.5-1.62-0.99-1.06-1.4-1.98-2.92-2.98-4.37-0.7-1.01-0.73-1.47 0-2.04 1.09-0.85 1.81-0.87 2.53 0.03 0.9 1.13 1.85 2.26 2.57 3.51 0.44 0.77 0.5 1.77 0.77 2.8z"/>
							<path id="&lt;Path&gt;" class="s4" d="m539.93 916.13c-0.47 0.41-0.91 1.1-1.27 1.06-0.58-0.07-1.25-0.5-1.62-0.99-1.06-1.4-1.98-2.92-2.98-4.37-0.7-1.01-0.73-1.47 0-2.04 1.09-0.85 1.81-0.87 2.53 0.03 0.91 1.13 1.85 2.26 2.57 3.51 0.45 0.77 0.5 1.77 0.77 2.8z"/>
							<path id="&lt;Path&gt;" class="s4" d="m515.31 974.67c-0.47 0.42-0.91 1.11-1.27 1.07-0.58-0.08-1.25-0.51-1.62-0.99-1.07-1.4-1.98-2.92-2.98-4.37-0.71-1.01-0.73-1.47 0-2.04 1.09-0.85 1.81-0.87 2.53 0.02 0.9 1.14 1.85 2.27 2.57 3.52 0.44 0.77 0.5 1.77 0.77 2.79z"/>
							<path id="&lt;Path&gt;" class="s4" d="m469.96 908.67c-0.47 0.41-0.91 1.1-1.27 1.06-0.58-0.07-1.25-0.5-1.62-0.99-1.06-1.4-1.98-2.92-2.98-4.37-0.7-1.01-0.73-1.46 0-2.04 1.09-0.85 1.81-0.87 2.53 0.03 0.91 1.13 1.85 2.26 2.57 3.51 0.44 0.78 0.5 1.77 0.77 2.8z"/>
							<path id="&lt;Path&gt;" class="s4" d="m523.14 864.75c-0.46 0.42-0.91 1.11-1.26 1.06-0.58-0.07-1.26-0.5-1.62-0.98-1.07-1.41-1.98-2.92-2.99-4.37-0.7-1.01-0.72-1.47 0.01-2.04 1.09-0.85 1.81-0.88 2.52 0.02 0.91 1.14 1.86 2.27 2.58 3.52 0.44 0.77 0.5 1.76 0.76 2.79z"/>
							<path id="&lt;Path&gt;" class="s4" d="m507.61 903.65c-0.46 0.42-0.91 1.11-1.26 1.06-0.58-0.07-1.26-0.5-1.62-0.98-1.07-1.41-1.98-2.93-2.99-4.37-0.7-1.02-0.72-1.47 0.01-2.04 1.09-0.85 1.81-0.88 2.52 0.02 0.91 1.14 1.86 2.26 2.58 3.52 0.44 0.77 0.5 1.76 0.76 2.79z"/>
							<path id="&lt;Path&gt;" class="s4" d="m524.03 944.91c-0.45-0.5-0.86-0.89-1.18-1.34q-1.14-1.59-2.22-3.22c-0.38-0.57-0.93-1.12-0.16-1.82 1.22-1.11 1.8-1.24 2.6-0.35 0.82 0.91 1.56 1.9 2.27 2.91 0.5 0.7 0.35 2.54-0.23 3.18-0.24 0.26-0.63 0.38-1.08 0.64z"/>
							<path id="&lt;Path&gt;" class="s4" d="m516.47 944.5c0.36 0.27 0.94 0.58 1.35 1.04 1.01 1.11 1.68 2.43 1.31 3.95-0.12 0.5-0.78 1.02-1.31 1.22-0.28 0.11-0.92-0.35-1.21-0.71-0.82-1.03-1.56-2.14-2.31-3.23-0.13-0.19-0.26-0.44-0.26-0.65 0.02-0.73 1.52-1.82 2.43-1.62z"/>
						</g>
					</g>
					<g id="&lt;Group&gt;">
						<path id="&lt;Path&gt;" class="s11" d="m583.26-15.81c-9.5-2.56-20.16-5-28.72-0.16-3.02 1.71-5.5 4.2-7.87 6.72-4.57 4.87-8.93 10.06-11.83 16.08-3.41 7.08-4.65 15.02-5.17 22.86-1.31 19.43 1.93 40.02 13.81 55.44 7.16 9.3 17.11 16.23 27.92 20.82 17.7 7.51 37.96 8.85 56.5 3.73 11.13-3.07 21.51-8.34 31.72-13.72 4.74-2.49 9.51-5.05 13.49-8.62 8.14-7.28 12.19-17.98 15.73-28.3 2.37-6.91 4.66-13.93 5.12-21.21 0.56-8.89-1.62-17.71-4.09-26.26-1.51-5.21-3.16-10.46-6.08-15.02-7.56-11.82-22.09-16.97-35.85-19.72-6.3-1.26-12.98-2.16-19.04 0-4.67 1.66-8.51 4.99-12.66 7.7-11.14 7.27-21.22 2.83-32.98-0.34z"/>
						<path id="&lt;Path&gt;" class="s11" d="m564.53-9.34c-2.04 0.81-3.95 1.99-6.07 2.56-2.12 0.57-4.38 0.52-6.47 1.19-4.78 1.53-7.57 6.39-9.61 10.98-3.16 7.08-5.62 14.48-7.33 22.05-2.24 9.95-3.18 20.34-1.18 30.34 2 10 7.17 19.6 15.38 25.63 4.19 3.07 9.06 5.18 12.93 8.64 2.53 2.26 4.54 5.02 6.93 7.43 4.03 4.06 9.14 7.05 14.65 8.59 5.7 1.59 11.71 1.62 17.62 1.27 18.21-1.1 36.2-5.84 52.58-13.88 6.63-3.25 13.11-7.12 18.03-12.62 4.61-5.16 7.64-11.5 10.61-17.75 3.16-6.65 6.37-13.51 6.85-20.86 0.39-5.84-0.99-11.64-2.39-17.32q-2.07-8.45-4.25-16.87c-0.97-3.74-1.97-7.55-3.99-10.86-1.38-2.28-3.21-4.26-5.1-6.13-7.74-7.66-17.71-14.12-28.59-13.84-3.76 0.09-7.45 0.99-11.11 1.89-2.04 0.5-4.09 1.01-5.99 1.91-2.16 1.04-4.05 2.55-6.07 3.84-7.83 4.96-19.13 7.36-28.37 7.37-10.22 0.02-18.25-7.85-29.06-3.56z"/>
						<path id="&lt;Path&gt;" class="s11" d="m615.7-44.37c-0.41-0.12-0.84-0.23-1.25-0.14-0.52 0.11-0.92 0.53-1.28 0.92-3.87 4.18-7.78 8.44-10.36 13.52-1.76 3.48-2.86 7.31-5.09 10.51-2.22 3.2-6.05 5.75-9.86 4.92 1.67 2.99 5.64 3.6 9.06 3.72 4.81 0.18 9.7 0.04 14.32-1.33 4.62-1.38 8.98-4.09 11.54-8.18q-5.98 0.18-11.91-0.53c3.73-4.61 5.64-10.66 5.22-16.58 3.15 1.9 6.08 4.19 9.37 5.84 4.81 2.4 11.63 4.08 12.8-2.78-8.16-1.96-14.59-7.52-22.56-9.89z"/>
						<path id="&lt;Path&gt;" class="s10" d="m556.84 12.3c0.31 1.78 1.51 3.29 2.96 4.36 1.44 1.07 3.13 1.76 4.8 2.44-0.16-2.11-0.38-4.26-1.32-6.15-1.16-2.35-7.35-5.84-6.44-0.65z"/>
						<path id="&lt;Path&gt;" class="s10" d="m651.63 1.66c1.49-0.9 3.57-0.76 4.88 0.39 1.32 1.16 1.72 3.25 0.88 4.78-0.62 1.12-1.75 1.84-2.84 2.52-2.43 1.51-4.74 3.83-5.46-0.06-0.48-2.59 0.14-6.16 2.54-7.63z"/>
						<path id="&lt;Path&gt;" class="s10" d="m556.49 55.78c-0.01 0.84 0.27 1.76 1 2.19 0.89 0.52 2.02 0.12 2.91-0.38 1.8-1.02 8.72-6.9 4.08-8.29-3.14-0.95-7.94 3.51-7.99 6.48z"/>
						<path id="&lt;Path&gt;" class="s10" d="m567.37 67.71c-1.22-0.72-2.75-1.21-4.05-0.65-1.41 0.62-2.08 2.39-1.75 3.89 0.33 1.51 1.48 2.73 2.81 3.51 1.33 0.78 2.84 1.17 4.33 1.56 0.85 0.22 1.76 0.44 2.58 0.14 3.93-1.45-2.36-7.53-3.92-8.45z"/>
						<path id="&lt;Path&gt;" class="s10" d="m586.89 79.91c-0.15 0.92-0.23 1.87 0.03 2.76 0.26 0.89 0.93 1.72 1.83 1.93 0.94 0.22 1.93-0.26 2.57-0.97 0.65-0.72 1-1.64 1.31-2.55 0.69-2.05 2.42-7.69-1.27-7.76-2.93-0.05-4.11 4.42-4.47 6.59z"/>
						<path id="&lt;Path&gt;" class="s10" d="m664.09 18.52c0.87 0.16 1.8 0.57 2.12 1.39 0.27 0.67 0.05 1.45-0.4 2.02-0.44 0.57-1.08 0.95-1.72 1.28q-0.9 0.46-1.84 0.82c-0.31 0.11-0.64 0.22-0.96 0.16-0.32-0.07-0.58-0.29-0.85-0.47-1.56-1.03-6.42-0.37-4.66-3.11 1.27-1.97 6.28-2.48 8.31-2.09z"/>
						<path id="&lt;Path&gt;" class="s10" d="m633.01 70.44c0.13 2.15 1.51 4.39 3.63 4.75 0.47 0.08 0.99 0.06 1.39-0.21 0.46-0.3 0.67-0.86 0.82-1.39 0.51-1.83 0.54-3.8-0.08-5.59-0.38-1.12-2.15-4.42-3.72-3.99-1.64 0.45-2.12 5.11-2.04 6.43z"/>
						<path id="&lt;Path&gt;" class="s10" d="m654.5 69.06c1.45 1.59 3.93 2.46 5.8 1.4 0.42-0.23 0.81-0.57 0.95-1.03 0.17-0.52-0.02-1.1-0.24-1.6-0.75-1.74-1.97-3.3-3.57-4.3-1.01-0.62-4.46-2.07-5.41-0.75-0.99 1.38 1.57 5.3 2.47 6.28z"/>
						<path id="&lt;Path&gt;" class="s10" d="m659.61 56.91c1.83 1.14 4.2 1.63 5.3 0.65 0.24-0.21 0.41-0.51 0.35-0.88-0.08-0.43-0.46-0.86-0.85-1.24-1.31-1.31-2.94-2.44-4.65-3.1-1.07-0.41-4.47-1.28-4.7-0.17-0.25 1.16 3.43 4.04 4.55 4.74z"/>
						<path id="&lt;Path&gt;" class="s10" d="m559.06 33.42c-2.15-0.14-4.47 0.54-4.98 1.92-0.11 0.3-0.12 0.65 0.11 0.94 0.27 0.34 0.81 0.55 1.33 0.7 1.78 0.53 3.74 0.76 5.56 0.53 1.14-0.14 4.55-0.97 4.23-2.06-0.33-1.14-4.93-1.94-6.25-2.03z"/>
					</g>
					<path id="&lt;Path&gt;" class="s0" d="m654.25 466.1c54.53-19.35 110.56-36.47 168.32-39.96 33.44-2.02 66.99 0.57 100.47-0.52 69.21-2.24 137.86-20.44 199.1-52.76"/>
					<g id="&lt;Group&gt;">
						<path id="&lt;Path&gt;" class="s10" d="m916.18 280.51c-1.3-0.51-3.01-1-4.54-1.83-2.59-1.41-5.05-3.05-7.59-4.55-5.04-2.96-8.78-10.55-7.78-16.3 0.26-1.49 1.09-2.93 1.89-4.26 1.48-2.45 3.2-4.76 4.7-7.2 1.24-2.01 2.72-3.51 5.03-4.41 2.67-1.05 5.11-2.7 7.75-3.85 1.12-0.49 2.5-0.5 3.77-0.53q2.33-0.06 4.64 0.24c1.07 0.15 2.25 0.36 3.12 0.94 2.5 1.66 4.86 3.54 7.31 5.3 2.59 1.88 4.56 4.21 5.72 7.23q1.11 2.86 2.52 5.58c1.17 2.25 1.01 4.55 0.54 6.89-0.29 1.48-0.46 3.03-1.06 4.38-0.44 1-1.32 2.18-2.27 2.5-3.25 1.09-6.02 2.8-8.79 4.8-2.24 1.62-5.05 2.52-7.71 3.44-2.14 0.74-4.44 1.02-7.25 1.63z"/>
						<path id="&lt;Path&gt;" class="s10" d="m817.89 20.75c-1.3-0.51-3.01-1-4.53-1.83-2.6-1.41-5.05-3.06-7.6-4.55-5.03-2.96-8.78-10.55-7.78-16.3 0.26-1.49 1.09-2.94 1.89-4.26 1.48-2.45 3.2-4.76 4.71-7.2 1.23-2.01 2.72-3.51 5.02-4.41 2.67-1.05 5.11-2.7 7.75-3.86 1.13-0.49 2.5-0.5 3.77-0.53q2.33-0.05 4.65 0.25c1.06 0.14 2.24 0.36 3.11 0.94 2.51 1.66 4.87 3.54 7.31 5.3 2.6 1.88 4.56 4.21 5.73 7.23q1.1 2.86 2.52 5.57c1.16 2.25 1 4.56 0.54 6.9-0.3 1.48-0.47 3.03-1.07 4.38-0.44 1-1.32 2.17-2.27 2.49-3.24 1.1-6.02 2.81-8.79 4.81-2.23 1.62-5.05 2.52-7.71 3.44-2.14 0.74-4.44 1.02-7.25 1.63z"/>
						<path id="&lt;Path&gt;" class="s10" d="m1002.48 258.35c0.54-0.65 1.13-1.54 1.89-2.26 1.28-1.23 2.68-2.33 4-3.52 2.63-2.34 7.67-3.08 10.78-1.45 0.8 0.42 1.48 1.16 2.09 1.86 1.13 1.3 2.14 2.72 3.26 4.03 0.93 1.08 1.51 2.2 1.6 3.69 0.11 1.72 0.61 3.42 0.78 5.15 0.08 0.73-0.17 1.52-0.39 2.26q-0.39 1.34-0.99 2.61c-0.28 0.59-0.62 1.22-1.11 1.62-1.42 1.12-2.93 2.13-4.39 3.21-1.55 1.14-3.25 1.83-5.2 1.95q-1.84 0.11-3.65 0.42c-1.51 0.25-2.8-0.27-4.05-0.96-0.8-0.45-1.65-0.83-2.32-1.42-0.49-0.44-1-1.16-1.01-1.76-0.03-2.06-0.5-3.97-1.14-5.92-0.51-1.58-0.51-3.36-0.55-5.05-0.02-1.37 0.24-2.74 0.4-4.46z"/>
						<path id="&lt;Path&gt;" class="s10" d="m941.28 333.25c0.26-0.32 0.56-0.76 0.93-1.12 0.64-0.61 1.33-1.16 1.99-1.75 1.31-1.16 3.81-1.53 5.36-0.72 0.4 0.21 0.73 0.57 1.03 0.92 0.57 0.65 1.07 1.35 1.62 2 0.46 0.54 0.76 1.1 0.8 1.84 0.05 0.85 0.3 1.7 0.39 2.56 0.04 0.36-0.09 0.75-0.19 1.12q-0.2 0.67-0.5 1.3c-0.14 0.29-0.31 0.6-0.55 0.8-0.7 0.56-1.46 1.06-2.18 1.59-0.77 0.57-1.62 0.92-2.58 0.97q-0.92 0.06-1.82 0.21c-0.75 0.13-1.39-0.13-2.01-0.47-0.4-0.22-0.82-0.42-1.15-0.71-0.25-0.21-0.5-0.57-0.51-0.87-0.01-1.03-0.24-1.97-0.56-2.95-0.26-0.78-0.26-1.66-0.27-2.51-0.02-0.67 0.11-1.35 0.2-2.21z"/>
						<g id="&lt;Group&gt;">
							<path id="&lt;Path&gt;" class="s10" d="m1021.09 650.41c-0.27 1.6-0.41 3-0.74 4.36-0.53 2.16-2.13 3.39-3.98 4.43-2.86 1.62-5.69 1.49-8.59 0.17-0.61-0.28-1.23-0.55-1.87-0.73-2.87-0.81-4.96-4.68-4.32-8.25 0.55-3 2.01-5.32 4.69-6.61 2.24-1.08 4.69-1.72 7.26-1.14 0.31 0.07 0.63 0.18 0.94 0.19 2.7 0.06 4.4 1.78 5.67 3.79 0.69 1.08 0.67 2.6 0.94 3.79z"/>
							<path id="&lt;Path&gt;" class="s10" d="m807.2 765.03c-0.15-1.43-0.35-2.66-0.38-3.89-0.05-1.96 1.02-3.39 2.36-4.71 2.06-2.04 4.51-2.59 7.29-2.14 0.58 0.09 1.18 0.18 1.77 0.19 2.64 0.02 5.32 2.83 5.6 6.03 0.23 2.69-0.48 5.01-2.46 6.73-1.66 1.44-3.6 2.56-5.93 2.66-0.28 0.01-0.58-0.01-0.85 0.06-2.31 0.57-4.16-0.5-5.72-1.91-0.83-0.77-1.17-2.07-1.68-3.02z"/>
							<path id="&lt;Path&gt;" class="s10" d="m892.83 42.56c-0.07-0.74-0.18-1.37-0.19-2-0.03-1.01 0.52-1.74 1.21-2.42 1.06-1.05 2.32-1.34 3.75-1.1q0.45 0.08 0.91 0.09c1.35 0.02 2.73 1.46 2.87 3.1 0.13 1.38-0.24 2.58-1.26 3.46-0.85 0.74-1.85 1.32-3.05 1.37-0.14 0.01-0.29-0.01-0.43 0.03-1.19 0.29-2.14-0.25-2.94-0.98-0.43-0.39-0.61-1.07-0.87-1.55z"/>
							<path id="&lt;Path&gt;" class="s10" d="m969.64 40.01c-0.12-1.19-0.3-2.21-0.32-3.24-0.05-1.64 0.85-2.83 1.97-3.93 1.72-1.71 3.77-2.17 6.08-1.79q0.74 0.13 1.48 0.15c2.2 0.03 4.44 2.37 4.68 5.04 0.19 2.25-0.4 4.18-2.06 5.62-1.38 1.2-3 2.14-4.94 2.22-0.24 0.01-0.49-0.01-0.72 0.05-1.93 0.48-3.47-0.41-4.77-1.6-0.7-0.63-0.98-1.72-1.4-2.52z"/>
							<path id="&lt;Path&gt;" class="s10" d="m929.88 918.14c0.73-0.15 1.35-0.31 1.98-0.39 1-0.12 1.78 0.37 2.52 0.99 1.14 0.96 1.54 2.18 1.45 3.62q-0.04 0.46-0.02 0.92c0.12 1.35-1.19 2.86-2.82 3.15-1.36 0.25-2.58 0-3.56-0.93-0.81-0.78-1.48-1.72-1.64-2.9-0.02-0.15-0.02-0.3-0.07-0.44-0.41-1.15 0.05-2.15 0.7-3.02 0.35-0.46 1-0.7 1.46-1z"/>
							<path id="&lt;Path&gt;" class="s10" d="m760.67 287.07c-0.21-1.97-0.49-3.66-0.54-5.36-0.07-2.7 1.42-4.66 3.26-6.49 2.85-2.82 6.22-3.57 10.05-2.95 0.8 0.13 1.62 0.25 2.44 0.26 3.63 0.04 7.33 3.91 7.71 8.32 0.33 3.7-0.66 6.9-3.39 9.27-2.28 1.99-4.96 3.53-8.16 3.67-0.4 0.02-0.8-0.02-1.18 0.07-3.18 0.8-5.74-0.67-7.88-2.63-1.15-1.05-1.62-2.85-2.31-4.16z"/>
							<path id="&lt;Path&gt;" class="s10" d="m817.95 266.7c0.56-0.29 1.04-0.57 1.54-0.78 0.8-0.33 1.56-0.12 2.32 0.22 1.17 0.53 1.79 1.45 2.05 2.67q0.07 0.39 0.21 0.76c0.41 1.09-0.33 2.65-1.6 3.28-1.07 0.52-2.14 0.6-3.17 0.06-0.86-0.46-1.63-1.08-2.05-2.02q-0.06-0.19-0.16-0.35c-0.6-0.86-0.46-1.79-0.12-2.66 0.18-0.47 0.66-0.82 0.98-1.18z"/>
							<path id="&lt;Path&gt;" class="s10" d="m944.39 694.97c-0.08-0.8-0.2-1.48-0.22-2.17-0.03-1.09 0.58-1.88 1.32-2.62 1.15-1.14 2.51-1.45 4.06-1.2q0.49 0.09 0.99 0.11c1.47 0.01 2.96 1.58 3.12 3.36 0.13 1.5-0.27 2.79-1.37 3.75-0.93 0.8-2.01 1.43-3.3 1.49-0.16 0-0.33-0.01-0.48 0.03-1.29 0.32-2.32-0.28-3.19-1.07-0.46-0.42-0.65-1.15-0.93-1.68z"/>
						</g>
					</g>
					<g id="&lt;Group&gt;">
						<path id="&lt;Path&gt;" class="s12" d=""/>
					</g>
				</g>
			</g>
		</g>
	</g>
	<g id="PHOTO">
		<g id="&lt;Group&gt;">
			<g id="&lt;Group&gt;">
				<g id="&lt;Group&gt;">
				</g>
			</g>
			<g id="&lt;Clip Group&gt;" clip-path="url(#cp2)">
			</g>
		</g>
	</g>
	<g id="TEXTS">
		<g id="&lt;Group&gt;">
			<path id="&lt;Path&gt;" class="s13" d="m-431.4 917.57h-245.56c-26.56 0-48.28-21.73-48.28-48.29 0-26.56 21.72-48.28 48.28-48.28h245.56c26.56 0 48.29 21.72 48.29 48.28 0 26.56-21.73 48.29-48.29 48.29z"/>
			<text id="know more
" style="transform: matrix(1,0,0,1,-656.686,878.684)" >
				<tspan x="0" y="0" class="t14">KNOW MORE
</tspan>
			</text>
		</g>
		<text id="Fresh
and organic
food
" style="transform: matrix(1,0,0,1,-729.112,382.389)" >
		</text>
		<text id="Lorem ipsum dolor sit amet, consectetur adipiscing" style="transform: matrix(1,0,0,1,-727.112,616.59)" >
			<tspan x="0" y="26" class="t15">Lorem ipsum dolor sit amet, consectetur </tspan>
			<tspan x="0" y="74.3" class="t15">adipiscing elit, sed do eiusmod tempor 
</tspan>
			<tspan x="0" y="122.6" class="t15">incididunt ut labore et dolore magna aliqua. 
</tspan>
		</text>
		<g id="&lt;Group&gt;">
			<text id="home
" style="transform: matrix(1,0,0,1,-513.587,120.937)" >
				<tspan x="0" y="0" class="t16">HOME
</tspan>
			</text>
			<text id="orders
" style="transform: matrix(1,0,0,1,-377.597,120.937)" >
				<tspan x="0" y="0" class="t16">ORDERS
</tspan>
			</text>
			<text id="Price
" style="transform: matrix(1,0,0,1,-200.221,120.937)" >
				<tspan x="0" y="0" class="t16">PRICE
</tspan>
			</text>
		</g>
		<g id="&lt;Group&gt;">
			<path id="&lt;Path&gt;" class="s2" d="m-704.08 111.68c0 36.99-29.99 66.98-66.98 66.98-36.99 0-66.98-29.99-66.98-66.98 0-36.99 29.99-66.98 66.98-66.98 36.99 0 66.98 29.99 66.98 66.98z"/>
			<g id="&lt;Group&gt;">
				<text id="Market
" style="transform: matrix(1,0,0,1,-713.845,137.747)" >
					<tspan x="-91.7" y="0" class="t17">Market
</tspan>
				</text>
				<text id="Local
" style="transform: matrix(1,0,0,1,-764.629,95.323)" >
					<tspan x="-38.7" y="0" class="t18" dx="0 4 4 4 4 4" >LOCAL
</tspan>
				</text>
			</g>
		</g>
		<g id="&lt;Group&gt;">
			<path id="&lt;Path&gt;" class="s4" d="m-783.18 924.6c0-15.27-12.28-27.65-27.43-27.65-15.15 0-27.43 12.38-27.43 27.65 0 15.27 12.28 27.65 27.43 27.65q0.24 0 0.48-0.01v-21.52h-5.89v-6.92h5.89v-5.1c0-5.91 3.58-9.12 8.81-9.12 2.5 0 4.65 0.19 5.28 0.27v6.17h-3.6c-2.85 0-3.4 1.37-3.4 3.37v4.41h6.8l-0.88 6.92h-5.92v20.46c11.47-3.31 19.86-13.96 19.86-26.58z"/>
			<path id="&lt;Compound Path&gt;" fill-rule="evenodd" class="s4" d="m-783.18 848.64c0 15.27-12.28 27.65-27.43 27.65-15.15 0-27.43-12.38-27.43-27.65 0-15.26 12.28-27.64 27.43-27.64 15.15 0 27.43 12.38 27.43 27.64zm-11.77-9.37q-1.69 0.76-3.61 1c1.3-0.79 2.3-2.03 2.77-3.51q-1.84 1.1-4 1.54c-1.15-1.24-2.79-2.01-4.6-2.01-3.47 0-6.29 2.84-6.29 6.35q0 0.75 0.16 1.44c-5.23-0.26-9.87-2.79-12.98-6.63-0.54 0.94-0.85 2.03-0.85 3.19 0 2.2 1.11 4.15 2.8 5.29-1.03-0.04-2-0.32-2.85-0.8q0 0.04 0 0.08c0 3.08 2.17 5.64 5.05 6.22q-0.79 0.22-1.66 0.23-0.6-0.01-1.18-0.12c0.8 2.52 3.12 4.36 5.88 4.41-2.15 1.7-4.87 2.72-7.82 2.72q-0.76 0-1.5-0.09c2.79 1.8 6.09 2.85 9.65 2.85 11.58 0 17.91-9.67 17.91-18.06q0-0.41-0.02-0.82c1.23-0.89 2.3-2.01 3.14-3.28z"/>
			<g id="&lt;Group&gt;">
				<path id="&lt;Path&gt;" class="s4" d="m-805.36 1000.76c0 2.93-2.35 5.3-5.25 5.3-2.9 0-5.25-2.37-5.25-5.3 0-2.92 2.35-5.29 5.25-5.29 2.9 0 5.25 2.37 5.25 5.29z"/>
				<path id="&lt;Compound Path&gt;" fill-rule="evenodd" class="s4" d="m-797.79 994.35c0.08 1.67 0.09 2.18 0.09 6.41 0 4.24-0.01 4.75-0.09 6.42-0.07 1.55-0.33 2.39-0.54 2.95-0.53 1.38-1.62 2.48-2.99 3.01-0.56 0.22-1.39 0.48-2.93 0.55-1.66 0.07-2.15 0.09-6.36 0.09-4.21 0-4.7-0.02-6.36-0.09-1.54-0.07-2.37-0.33-2.93-0.55q-1.04-0.39-1.81-1.19-0.79-0.78-1.18-1.82c-0.21-0.56-0.47-1.4-0.54-2.95-0.08-1.67-0.09-2.18-0.09-6.42 0-4.23 0.01-4.74 0.09-6.41 0.07-1.55 0.33-2.39 0.54-2.95q0.39-1.04 1.18-1.82 0.77-0.8 1.81-1.19c0.56-0.22 1.39-0.48 2.93-0.55 1.66-0.07 2.15-0.09 6.36-0.09 4.21 0 4.7 0.02 6.36 0.09 1.54 0.07 2.37 0.33 2.93 0.55q1.04 0.39 1.81 1.19 0.79 0.78 1.18 1.82c0.21 0.56 0.47 1.4 0.54 2.95zm-4.73 6.41c0-4.5-3.62-8.15-8.09-8.15-4.47 0-8.09 3.65-8.09 8.15 0 4.51 3.62 8.16 8.09 8.16 4.47 0 8.09-3.65 8.09-8.16zm2.21-8.47c0-1.05-0.85-1.91-1.89-1.91-1.05 0-1.89 0.86-1.89 1.91 0 1.05 0.84 1.91 1.89 1.91 1.04 0 1.89-0.86 1.89-1.91z"/>
				<path id="&lt;Compound Path&gt;" fill-rule="evenodd" class="s4" d="m-783.18 1000.76c0 15.27-12.28 27.65-27.43 27.65-15.15 0-27.43-12.38-27.43-27.65 0-15.26 12.28-27.64 27.43-27.64 15.15 0 27.43 12.38 27.43 27.64zm-11.68 0c0-4.31-0.02-4.85-0.09-6.54-0.08-1.69-0.35-2.84-0.74-3.85-0.39-1.06-1.01-2.02-1.81-2.82-0.79-0.8-1.74-1.43-2.79-1.83-1.01-0.39-2.15-0.66-3.83-0.74-1.68-0.07-2.21-0.09-6.49-0.09-4.28 0-4.81 0.02-6.49 0.09-1.68 0.08-2.82 0.35-3.83 0.74-1.05 0.4-2 1.03-2.79 1.83-0.8 0.8-1.42 1.76-1.81 2.82-0.39 1.01-0.66 2.16-0.73 3.85-0.08 1.69-0.1 2.23-0.1 6.54 0 4.32 0.02 4.86 0.1 6.55 0.07 1.69 0.34 2.84 0.73 3.85 0.39 1.06 1.01 2.02 1.81 2.81 0.79 0.81 1.74 1.44 2.79 1.84 1.01 0.39 2.15 0.66 3.83 0.73 1.68 0.08 2.21 0.1 6.49 0.1 4.28 0 4.81-0.02 6.49-0.1 1.68-0.07 2.83-0.34 3.83-0.73 2.11-0.83 3.78-2.51 4.6-4.65 0.39-1.01 0.66-2.16 0.73-3.85 0.08-1.69 0.1-2.23 0.1-6.55z"/>
			</g>
		</g>
		<g id="&lt;Group&gt;">
			<g id="&lt;Group&gt;">
			</g>
		</g>
	</g>
</svg>