<svg version="1.2" xmlns="http://www.w3.org/2000/svg" viewBox="0 0 1920 576" width="1920" height="576">
	<defs>
		<clipPath clipPathUnits="userSpaceOnUse" id="cp1">
			<path d="m1920 576h-1920v-1080h1920z"/>
		</clipPath>
	</defs>
	<style>
		.s0 { opacity: .9;fill: #ff4d6a } 
		.s1 { opacity: .9;fill: #badb68 } 
		.s2 { opacity: .9;fill: #ffaa00 } 
		.s3 { opacity: .6;fill: #fdd43a } 
		.s4 { fill: #1d1d1b } 
		.s5 { fill: #000000 } 
	</style>
	<g id="BACKGROUND">
	</g>
	<g id="OBJECTS" clip-path="url(#cp1)">
		<path id="&lt;Path&gt;" class="s0" d="m952.37 291.84c4.02 12.55 7.57 25.88 11.68 39.87 13.82 47.02 20.64 93.9 13.62 142.83-12.96 90.54-68.58 171.66-148.96 215.54-46.32 25.3-98.99 37.33-151.65 36.67-106.26 8.57-209.13-46.08-259.04-143.58-27.08-52.91-52.26-118.19-41.81-178.63 9.65-55.82 52.72-103.34 99.06-132.83 77.41-49.28 181.91-76.1 272.61-82.87 47.22-3.52 96.58-1.34 138.85 20 39.97 20.17 54.63 48.67 65.64 83z"/>
		<path id="&lt;Path&gt;" class="s1" d="m1103.96 120.28c330.89-80.72 567.03 490.86 173.26 561.19-67.93 5.51-136.14-19.1-202.43 5.23-42.21 15.45-76.04 47.85-122.36 52.7-77.25 8.07-149.23-76.88-127.48-151.76 12.97-44.67 50.96-72.17 73.74-111 65.45-148.59-12.72-282 205.27-356.36z"/>
		<path id="&lt;Path&gt;" class="s2" d="m1504.49 196.92c173.68-73.05 365.38 26.63 455.71 181.71 41.06 70.52 60.7 160.94 17.74 235.04-37.1 63.97-107.76 105.11-178.65 120.43-87.32 18.88-178.65 4.65-261.5-26.26-73.42-27.39-126.11-90.61-161.06-160.2-5.97-11.88-11.32-24.14-16-36.72-34.07-91.78-19.16-189.5 53.6-256.49 26.49-24.39 57.17-43.63 90.16-57.51z"/>
		<path id="&lt;Path&gt;" class="s2" d="m-23.54 214.78c173.68-73.06 365.38 26.62 455.71 181.71 41.07 70.51 60.7 160.93 17.74 235.03-37.1 63.98-107.75 105.12-178.64 120.44-87.32 18.88-178.66 4.64-261.5-26.26-73.43-27.4-126.11-90.61-161.06-160.21-5.97-11.88-11.33-24.14-16-36.72-34.08-91.78-19.17-189.5 53.59-256.48 26.49-24.39 57.17-43.64 90.16-57.51z"/>
		<path id="&lt;Path&gt;" class="s3" d="m2118.86 22.61c16.87 13.36 30.94 31.51 43.04 51.83 67.63 111.4 43.94 289.88-27.13 431.83-90.8 188.59-256.46 358.83-415.15 422.49-53.32 22.31-112.02 32.13-162.19 14.28-59.4-20.97-100.96-92.25-95.66-162.03 7.75-119.65 111.34-172.91 175.54-247.47 55.54-62.93 103.29-136.26 142.07-215.11 36.03-72.79 49.81-163.39 109.43-231.62 35.08-39.93 85.4-78.6 141.82-86.87 36.06-5.1 64.82 4.07 88.23 22.67z"/>
		<path id="&lt;Path&gt;" class="s3" d="m838.09 944.5c-18.66 10.71-40.73 17.04-64.09 20.74-128.54 21.47-285.5-66.73-390.95-185.39-141.44-154.29-238.09-371.28-238.33-542.27-0.94-57.79 11.72-115.94 46.91-155.91 41.51-47.38 123.12-59.53 185.96-28.73 108.23 51.6 119.26 167.54 164.68 254.83 37.84 74.92 88.22 146.46 147.05 211.73 54.24 60.46 133.26 106.87 174.5 187.55 24.07 47.38 41.31 108.46 28.06 163.93-8.64 35.37-27.82 58.68-53.79 73.52z"/>
		<path id="&lt;Compound Path&gt;" fill-rule="evenodd" class="s4" d="m1699.52 447.84l-0.26 1.76c-0.29 2.06-0.6 4.19-1.09 6.27-1.16 4.88-3.77 9.29-7.97 13.51-4.45 4.45-9.63 7.69-15.37 9.63-2.1 0.71-4.58 1.53-7.1 2.24-6.69 1.9-12.96 2.84-18.97 2.84q-4.4 0-8.64-0.67c-7.87-1.25-14.47-4.94-19.62-10.96-3.58-4.2-6.42-8.99-8.45-14.25-2.22-5.75-3.34-11.58-3.33-17.35 0.01-2.36 0.11-5.14 0.81-7.97 0.63-2.55 1.64-4.98 2.62-7.32l0.33-0.78c0.2-0.48 0.73-0.95 1.27-1.11 0.8-0.23 1.62-0.35 2.32-0.44q2.31-0.29 4.67-0.55l1.96-0.22 0.24 0.21c0.39 0.34 0.82 0.63 1.25 0.93 0.86 0.58 1.75 1.19 2.39 2.15l0.19 0.29-0.1 0.33q-0.2 0.64-0.54 1.05c0.64-0.04 1.31 0.27 1.68 0.85 0.34 0.53 0.6 1.1 0.86 1.69 0.97 2.26 2.03 4.12 3.23 5.69 4.04 5.31 8.41 9.4 13.35 12.5 2.84 1.78 5.59 2.89 8.43 3.39l0.94 0.17q1.08 0.19 2.15 0.37c5.82 0.94 10.6 1.15 15.02 0.67 6.27-0.69 11.24-2.68 15.19-6.08q1.31-1.12 2.81-2.05c0.66-0.41 1.43-0.73 2.43-1.03 0.31-0.1 0.69-0.06 1.04 0.07q0.09-0.44 0.39-0.82 0.33-0.41 0.86-0.45c0.56 0.03 1.11 0.27 1.73 0.88q0.31 0.32 0.61 0.66c0.37 0.44 0.72 0.84 1.09 0.99 1.91 0.78 1.66 2.38 1.58 2.91zm-85.22-19.2c-1.71 4.18-2.52 8.23-2.43 12.36 0.21 10.33 3.7 19.85 10.36 28.3 3.99 5.05 9.13 8.43 15.26 10.03 1.06 0.28 2.16 0.52 3.37 0.73-3.8-1.36-7.49-3.24-11.18-5.69-3.93-2.61-6.94-5.99-8.97-10.05-3.74-7.49-5.94-14.53-6.76-21.52-0.46-3.97-0.28-8.18 0.53-12.51q0.09-0.44 0.16-0.94l0.06-0.34zm7.33-3.41l-0.22-0.19q-0.73 0.1-1.48 0.18c-1.06 0.13-2.14 0.25-3.24 0.47q0.18 0.02 0.4-0.03c1.31-0.21 2.64-0.3 3.94-0.39q0.3-0.02 0.6-0.04zm2.85 4.17c-0.03-0.35 0.07-0.66 0.19-0.94-0.3 0.11-0.57 0.19-0.73 0.22-1.24 0.27-2.48 0.5-3.82 0.74l-1.23 0.23-0.4 2.59c-0.65 4.26-0.62 8.39 0.1 12.27 0.86 4.68 2.47 9.55 5.07 15.35 2.2 4.88 5.61 8.6 10.43 11.4 7.8 4.53 15.36 6.56 23.11 6.2 4.49-0.21 9.05-0.94 13.57-2.16 5.47-1.48 10.33-4.07 14.43-7.68 6.84-6.03 8.66-10.98 9.79-17.26l-0.49 0.88c-2.14 3.84-4.28 7.69-6.49 11.5-0.62 1.07-1.49 1.97-2.32 2.84-0.78 0.8-1.57 1.47-2.34 2.12l-0.45 0.38c-1.33 1.13-3.41 2.64-6.23 2.64q-0.1 0-0.22 0-1.95 0-3.73 1.15-0.7 0.46-1.44 0.83c-3.75 1.86-7.33 2.77-10.92 2.77q-0.33 0-0.66-0.01c-1.74-0.06-3.53-0.47-5.48-1.26-2.66-1.07-5.22-1.71-7.82-1.94-3.62-0.31-6.86-1.64-9.62-3.93-2.67-2.21-5.36-4.04-8.23-5.59-3.31-1.78-5.36-4.52-6.1-8.14-0.82-4-1.62-7.23-2.53-10.15q-0.63-2.04-0.35-3.45c0.32-1.56 0.14-3.01-0.56-4.56-0.19-0.41-0.32-0.87-0.43-1.46-0.06-0.35 0.07-0.63 0.15-0.82l0.23-0.69 0.73 0.11c0.33 0.07 0.67 0.14 0.87 0.48l0.46 0.79c0.49 0.85 1 1.72 1.38 2.65 0.31 0.77 0.31 1.81-0.01 2.53-0.61 1.37-0.3 2.58 0.24 4.29 0.62 1.96 1.16 3.9 1.74 6.06q0.62 2.28 1.16 4.59c0.33 1.46 1.12 2.64 2.41 3.62 0.56 0.43 1.14 0.88 1.75 1.22 2.45 1.35 4.88 3.06 7.63 5.39 2.95 2.49 6.22 3.89 9.74 4.17 2.31 0.18 4.64 0.78 7.37 1.88 3.01 1.22 6.17 1.35 9.66 0.39 2.68-0.74 4.91-1.68 6.81-2.88 1.81-1.14 3.57-1.65 5.52-1.57 1.74 0.11 3.51-0.53 5.12-1.8l0.23-0.18q0.44-0.39 0.94-0.69c1.93-1.14 3.45-2.82 4.78-5.3q2.92-5.45 5.88-10.87 0.06-0.11 0.1-0.23c0.13-0.34 0.39-0.92 1.07-1.2q-0.29-0.44-0.57-0.9c-0.31 0.55-0.72 1.01-1.19 1.51q-0.43 0.45-0.88 0.88-0.52 0.49-1.01 1.02c-3.4 3.82-7.87 6.33-13.66 7.7q-4.4 1.04-8.83 1.04-1.16 0-2.31-0.07c-3.51-0.04-6.99-0.62-10.36-1.18l-1.96-0.33c-3.9-0.63-7.65-2.18-11.8-4.87-5.69-3.68-10.45-8.65-14.55-15.19-0.8-1.29-1.39-2.7-1.95-4.07q-0.31-0.76-0.64-1.51-0.29-0.67-0.35-1.55z"/>
		<path id="&lt;Compound Path&gt;" fill-rule="evenodd" class="s4" d="m1734.46 505.75c0.32-0.23 0.57-0.71 0.82-1.22q0.21-0.41 0.43-0.79c0.46-0.74 0.93-1.11 1.47-1.27q0.52-0.09 0.95 0.23 0.37 0.3 0.57 0.7c0.31-0.2 0.67-0.34 0.99-0.32 1.04 0.05 1.87 0.19 2.6 0.42q1.69 0.54 3.22 1.32c4.66 2.36 9.96 3.1 16.22 2.27 4.4-0.6 8.99-1.94 14.41-4.25q1-0.43 2-0.88l0.87-0.39c2.64-1.16 5.05-2.9 7.38-5.31 4.05-4.19 7.31-9.2 9.97-15.33 0.78-1.81 1.36-3.87 1.77-6.3 0.11-0.63 0.22-1.25 0.43-1.85 0.22-0.65 0.79-1.11 1.43-1.22-0.28-0.23-0.56-0.51-0.78-0.9l-0.18-0.29 0.12-0.33c0.39-1.09 1.11-1.88 1.8-2.66 0.35-0.39 0.7-0.77 0.99-1.2l0.19-0.26 1.95-0.25q2.36-0.32 4.67-0.59c0.7-0.08 1.52-0.16 2.36-0.13 0.56 0.03 1.19 0.36 1.5 0.78l0.5 0.68c1.51 2.03 3.08 4.15 4.3 6.47 1.36 2.58 2.12 5.26 2.69 7.54 1.39 5.6 1.71 11.54 0.93 17.65-0.71 5.59-2.32 10.92-4.79 15.86-3.56 7.08-9.08 12.24-16.42 15.34q-3.96 1.67-8.23 2.72c-5.84 1.44-12.15 2.03-19.1 1.79-2.62-0.09-5.22-0.29-7.43-0.48-6.04-0.51-11.84-2.42-17.23-5.67-5.09-3.09-8.68-6.75-10.98-11.21-0.97-1.89-1.78-3.89-2.56-5.82l-0.67-1.65c-0.2-0.49-0.83-1.99 0.84-3.2zm77.01-35.39l0.13 0.31q0.19 0.47 0.38 0.88c1.83 4 3.01 8.04 3.51 12.01 0.88 6.98 0.43 14.35-1.41 22.52-0.99 4.43-3.11 8.43-6.29 11.9-3 3.26-6.13 5.97-9.5 8.21 1.12-0.5 2.13-0.99 3.1-1.52 5.57-3.02 9.74-7.53 12.41-13.4 4.45-9.79 5.55-19.87 3.29-29.96-0.91-4.02-2.66-7.77-5.33-11.41zm-7.06-2.12c1.28-0.22 2.59-0.46 3.92-0.56q0.22-0.01 0.39-0.07c-1.12 0.05-2.2 0.19-3.26 0.32q-0.74 0.1-1.48 0.18l-0.17 0.24q0.3-0.05 0.6-0.11zm-2.33 6.42q-0.14 0.81-0.26 1.62c-0.22 1.47-0.45 2.98-0.92 4.42-2.41 7.33-5.84 13.3-10.48 18.24-3.4 3.61-6.66 6.01-10.3 7.55l-1.83 0.79c-3.13 1.35-6.37 2.76-9.77 3.63q-1.1 0.34-2.22 0.62-4.31 1.06-8.82 1.11c-5.96 0.06-10.9-1.32-15.11-4.21q-0.6-0.39-1.23-0.75-0.54-0.31-1.06-0.64c-0.58-0.37-1.08-0.72-1.52-1.18q-0.16 0.51-0.34 1.01c0.73 0.11 1.12 0.61 1.33 0.91q0.07 0.11 0.15 0.2 4.18 4.55 8.31 9.14c1.88 2.09 3.76 3.36 5.92 4q0.55 0.18 1.08 0.44l0.26 0.12c1.86 0.86 3.74 1.05 5.4 0.53 1.87-0.55 3.71-0.47 5.73 0.2 2.14 0.71 4.53 1.09 7.31 1.16 3.61 0.1 6.65-0.78 9.29-2.69 2.37-1.72 4.5-2.86 6.69-3.58 3.36-1.12 6.2-3.27 8.46-6.39 2.12-2.92 4.06-5.17 6.12-7.06 0.51-0.47 0.97-1.05 1.41-1.6 1.01-1.27 1.5-2.6 1.48-4.09q-0.04-2.38 0.01-4.74c0.05-2.23 0.11-4.24 0.25-6.31 0.11-1.78 0.12-3.03-0.8-4.21-0.48-0.63-0.73-1.63-0.62-2.45 0.15-1 0.44-1.97 0.71-2.91l0.26-0.88c0.11-0.37 0.42-0.52 0.73-0.67l0.68-0.28 0.39 0.61c0.13 0.17 0.32 0.41 0.34 0.76 0.04 0.6 0.02 1.08-0.06 1.52-0.31 1.67-0.14 3.12 0.54 4.56q0.61 1.31 0.49 3.43c-0.19 3.06-0.19 6.39-0.02 10.47 0.15 3.69-1.19 6.84-3.98 9.36-2.42 2.2-4.59 4.62-6.65 7.4-2.13 2.89-4.96 4.95-8.4 6.12-2.47 0.85-4.8 2.08-7.12 3.76-1.71 1.23-3.35 2.06-5.02 2.53q-0.32 0.09-0.65 0.17c-3.48 0.86-7.17 0.83-11.26-0.08q-0.81-0.18-1.59-0.45-2.02-0.7-3.91-0.23-0.11 0.03-0.2 0.05c-2.75 0.68-5.13-0.28-6.69-1.06l-0.53-0.27c-0.89-0.45-1.82-0.91-2.77-1.5-1.03-0.64-2.08-1.3-2.94-2.2-3.06-3.16-6.06-6.39-9.06-9.61l-0.68-0.73c2.6 5.82 5.56 10.2 13.63 14.4 4.86 2.53 10.19 3.88 15.86 4.01 4.67 0.1 9.28-0.29 13.69-1.16 7.61-1.5 14.46-5.28 20.96-11.55 4-3.87 6.42-8.31 7.38-13.57 1.14-6.25 1.54-11.37 1.26-16.11-0.24-3.94-1.19-7.96-2.84-11.94l-1.01-2.42-1.26 0.08c-1.36 0.08-2.62 0.16-3.88 0.19-0.16 0-0.44 0-0.76-0.04 0.19 0.25 0.35 0.52 0.41 0.87q0.15 0.86 0.03 1.58z"/>
		<path id="&lt;Compound Path&gt;" fill-rule="evenodd" class="s4" d="m999.29 437.98c0.32-0.24 0.56-0.72 0.82-1.23q0.2-0.4 0.43-0.78c0.45-0.75 0.93-1.12 1.47-1.28q0.52-0.09 0.94 0.23 0.38 0.3 0.57 0.71c0.31-0.21 0.68-0.34 1-0.32 1.04 0.05 1.87 0.18 2.6 0.42q1.69 0.54 3.22 1.32c4.65 2.36 9.96 3.1 16.22 2.26 4.4-0.59 8.99-1.94 14.41-4.25q1-0.43 2-0.87l0.87-0.39c2.64-1.17 5.05-2.91 7.38-5.31 4.05-4.19 7.31-9.21 9.96-15.33 0.79-1.81 1.37-3.87 1.78-6.3 0.11-0.64 0.22-1.26 0.43-1.86 0.22-0.65 0.79-1.1 1.43-1.22-0.28-0.22-0.56-0.5-0.78-0.89l-0.18-0.3 0.12-0.32c0.39-1.09 1.11-1.89 1.8-2.66 0.35-0.39 0.7-0.78 0.99-1.2l0.19-0.27 1.95-0.25q2.36-0.31 4.67-0.58c0.69-0.09 1.52-0.17 2.36-0.13 0.55 0.02 1.19 0.35 1.49 0.77l0.51 0.68c1.51 2.04 3.08 4.15 4.31 6.48 1.35 2.58 2.11 5.26 2.68 7.54 1.39 5.6 1.71 11.53 0.93 17.65-0.71 5.58-2.32 10.92-4.8 15.85-3.55 7.08-9.07 12.24-16.41 15.34q-3.96 1.67-8.24 2.73c-5.83 1.44-12.15 2.02-19.1 1.78-2.61-0.09-5.22-0.29-7.42-0.48-6.05-0.51-11.84-2.41-17.23-5.67-5.09-3.08-8.68-6.74-10.98-11.21-0.97-1.89-1.78-3.89-2.56-5.82l-0.67-1.64c-0.2-0.5-0.83-2 0.84-3.2zm77-35.4l0.14 0.31q0.19 0.47 0.38 0.88c1.83 4.01 3.01 8.05 3.51 12.02 0.88 6.98 0.43 14.34-1.41 22.51-0.99 4.43-3.11 8.43-6.3 11.9-2.99 3.26-6.12 5.97-9.49 8.21 1.12-0.49 2.13-0.99 3.1-1.52 5.57-3.02 9.74-7.53 12.41-13.39 4.44-9.8 5.55-19.88 3.28-29.96-0.9-4.03-2.66-7.77-5.32-11.42zm-7.06-2.11c1.28-0.23 2.59-0.46 3.92-0.57q0.23-0.01 0.39-0.06c-1.12 0.04-2.2 0.18-3.26 0.32q-0.74 0.1-1.48 0.18l-0.16 0.23q0.29-0.05 0.59-0.1zm-2.33 6.42q-0.14 0.8-0.26 1.62c-0.22 1.46-0.45 2.98-0.92 4.41-2.41 7.34-5.84 13.3-10.48 18.25-3.39 3.6-6.66 6-10.3 7.55l-1.82 0.78c-3.14 1.36-6.38 2.76-9.77 3.63q-1.1 0.35-2.23 0.62-4.31 1.07-8.82 1.11c-5.95 0.06-10.9-1.32-15.11-4.2q-0.6-0.4-1.23-0.75-0.53-0.31-1.06-0.64c-0.57-0.38-1.08-0.73-1.52-1.19q-0.16 0.51-0.34 1.01c0.73 0.11 1.12 0.61 1.33 0.91q0.07 0.11 0.15 0.2 4.18 4.55 8.32 9.15c1.87 2.09 3.76 3.36 5.91 4q0.55 0.17 1.08 0.44l0.26 0.12c1.87 0.85 3.74 1.04 5.4 0.52 1.87-0.55 3.71-0.47 5.73 0.2 2.14 0.71 4.53 1.09 7.31 1.17 3.61 0.1 6.66-0.78 9.29-2.69 2.38-1.72 4.51-2.86 6.69-3.59 3.36-1.11 6.2-3.26 8.47-6.39 2.11-2.92 4.06-5.16 6.11-7.06 0.51-0.47 0.97-1.04 1.41-1.6 1.02-1.26 1.5-2.6 1.48-4.09q-0.04-2.37 0.01-4.74c0.06-2.23 0.11-4.24 0.25-6.3 0.11-1.78 0.12-3.04-0.8-4.22-0.48-0.62-0.73-1.63-0.61-2.45 0.14-1 0.43-1.96 0.7-2.9l0.26-0.88c0.11-0.38 0.43-0.52 0.73-0.68l0.69-0.28 0.38 0.62c0.13 0.16 0.33 0.41 0.34 0.76 0.04 0.59 0.02 1.07-0.06 1.52-0.31 1.67-0.14 3.12 0.54 4.56q0.62 1.3 0.49 3.43c-0.18 3.05-0.19 6.38-0.02 10.46 0.15 3.7-1.19 6.85-3.97 9.37-2.43 2.19-4.6 4.61-6.66 7.4-2.13 2.88-4.95 4.94-8.4 6.12-2.47 0.85-4.8 2.07-7.12 3.75-1.71 1.24-3.35 2.07-5.02 2.53q-0.32 0.09-0.65 0.17c-3.48 0.86-7.17 0.84-11.26-0.07q-0.81-0.19-1.59-0.46-2.01-0.69-3.91-0.23-0.11 0.03-0.2 0.05c-2.75 0.68-5.13-0.28-6.69-1.06l-0.53-0.27c-0.89-0.44-1.82-0.9-2.77-1.5-1.02-0.64-2.08-1.3-2.94-2.19-3.06-3.17-6.06-6.39-9.06-9.62l-0.68-0.73c2.6 5.82 5.56 10.2 13.64 14.41 4.85 2.53 10.19 3.87 15.85 4 4.68 0.11 9.28-0.28 13.69-1.16 7.61-1.5 14.47-5.28 20.96-11.54 4.01-3.87 6.42-8.31 7.38-13.57 1.15-6.25 1.54-11.37 1.26-16.12-0.23-3.93-1.19-7.95-2.84-11.94l-1.01-2.41-1.25 0.07c-1.36 0.08-2.63 0.16-3.89 0.2-0.16 0-0.44-0.01-0.76-0.04 0.19 0.24 0.35 0.51 0.41 0.86q0.15 0.87 0.03 1.59z"/>
		<g id="&lt;Group&gt;">
			<path id="&lt;Path&gt;" class="s4" d="m941.49 306.05c-0.12 0.04-0.29 0.14-0.33 0.11-0.1-0.1-0.14-0.26-0.21-0.39q0.26-0.08 0.51-0.16 0.01 0.22 0.03 0.44z"/>
			<path id="&lt;Path&gt;" class="s4" d="m943.97 310.31q-0.15-0.46-0.28-0.91c-0.04-0.15-0.03-0.31-0.04-0.47 0.19 0.16 0.53 0.3 0.54 0.47 0.02 0.31-0.15 0.63-0.26 0.97-0.02 0.02 0.04-0.06 0.04-0.06z"/>
			<path id="&lt;Path&gt;" class="s4" d="m947.68 315.47q-0.07-1.87-0.12-3.76c0.01-0.02-0.05 0.03-0.03 0q0.08 1.87 0.14 3.76 0 0 0.01 0z"/>
			<path id="&lt;Path&gt;" class="s4" d="m952.64 318.92q0.63 1.05 1.24 2.14c-0.02 0.02 0.09-0.1 0.09-0.1-1.63 0.04-1.8-0.24-1.27-2.11 0.02-0.02-0.06 0.07-0.06 0.07z"/>
			<path id="&lt;Path&gt;" class="s4" d="m955.18 323.09c-1.5 0-1.69-0.32-1.23-2.11 0.02-0.02-0.09 0.1-0.07 0.08q0.63 1.05 1.2 2.16c-0.01 0.01 0.1-0.13 0.1-0.13z"/>
			<path id="&lt;Path&gt;" class="s4" d="m956.59 325.04c-1.51 0.07-1.69-0.17-1.42-1.94 0.01-0.01-0.1 0.13-0.09 0.12q0.73 0.94 1.42 1.93c-0.02 0.02 0.09-0.11 0.09-0.11z"/>
			<path id="&lt;Path&gt;" class="s4" d="m957.58 327.5c-1.52-0.31-1.49-1.28-1-2.45 0.01-0.01-0.1 0.12-0.08 0.1q0.5 1.22 0.98 2.46c0 0 0.1-0.11 0.1-0.11z"/>
		</g>
		<g id="&lt;Group&gt;">
			<path id="&lt;Compound Path&gt;" fill-rule="evenodd" class="s4" d="m562.27 437.53c-1.11-5.12-0.11-9.82 2.9-14.1 2.17-3.09 4.77-5.77 7.94-7.84 6.72-4.39 13.97-7.25 22.14-7.28q2.21-0.01 4.41-0.16c8.45-0.53 16.7-2 24.61-5.12 5.22-2.06 10.49-3.93 16.04-4.95 11.78-2.16 23.45-1.37 35.03 1.2 12 2.66 23.04 7.69 33.6 13.87 14 8.19 27.05 17.69 39.35 28.24 3.86 3.31 7.76 6.55 11.65 9.82 5.11 4.3 10.96 7.11 17.45 8.61 1.57 0.37 3.14 0.69 4.67 1.16 0.88 0.27 1.76 0.68 2.48 1.24 1.22 0.93 0.85 3.13-0.6 3.63-0.86 0.31-1.82 0.44-2.74 0.47-3.45 0.08-6.87 0.16-10.31 0.6-4.11 0.53-8.25 0.73-12.27 1.8-2.41 0.63-4.77 0.61-7.08-0.32-3.77-1.52-7.32-0.92-10.76 1.03-5.93 3.36-11.91 6.64-17.8 10.07-7.27 4.25-14.45 8.66-21.71 12.92-4.85 2.83-9.69 5.68-14.91 7.81-13.87 5.67-28.12 7.24-42.81 3.91-7.74-1.75-14.99-4.81-22.06-8.38-12.59-6.36-24.02-14.47-35.05-23.17-7.33-5.79-12.92-13.1-17.99-20.29-2.95-4.88-5.07-9.61-6.18-14.77zm185 14.37c-6.96-6.04-13.8-12.23-21.27-17.65-10.17-7.4-20.78-14.12-31.74-20.26-9.61-5.38-19.74-9.52-30.62-11.59-9.83-1.87-19.65-2.2-29.41 0.39-2.57 0.68-5.15 1.45-7.62 2.44-7.1 2.84-14.51 4.59-21.9 6.36-3.09 0.74-6.36 0.87-9.55 0.96-8.25 0.21-15.27 3.46-21.67 8.37-0.63 0.49-1.19 1.07-1.75 1.64-4.84 4.92-5.89 10.42-3.11 16.87 2.05 4.76 5.02 8.82 8.29 12.7q7.54 8.92 17.3 15.41c10.92 7.26 22.05 14.12 33.81 19.95 6.37 3.15 12.92 5.81 19.79 7.66 13.15 3.55 26.19 3.04 39.05-1.41 5.56-1.93 10.77-4.69 15.93-7.52 9.38-5.13 18.72-10.34 28.16-15.35 3.29-1.75 6.8-3.12 10.28-4.5 3.21-1.26 6.56-1.38 9.81-0.2 2.65 0.97 5.17 0.97 7.83 0.1 1.99-0.65 4.08-1.02 6.12-1.52-6.83-3.37-12.29-8.11-17.73-12.85z"/>
			<path id="&lt;Path&gt;" class="s4" d="m660.6 417.74c-0.35 1.59 0.54 2.79 1.28 4.04q2.65 4.49 5.26 8.99c0.38 0.66 0.65 1.38 0.9 1.92-0.61 1.06-1.33 0.74-1.92 0.61-7.67-1.64-15.4-1.64-23.13-0.64-9.56 1.22-19.14 1.56-28.78 1.15-4.92-0.21-9.87 0.11-14.81 0.24-1.15 0.03-2.4 0-3.18 1.59 0.91 0.19 1.64 0.45 2.39 0.49 7.19 0.4 14.39 0.86 21.6 1.11 6.13 0.22 12.28 0.24 18.42 0.25 4.95 0.02 9.89 0.13 14.75 1.19 1.28 0.28 2.53 0.68 4.25 1.15-0.72 0.79-1.05 1.33-1.54 1.66q-8.98 6.02-18 12c-1.1 0.73-2.24 1.39-3.25 2.02 0.13 1.22 0.83 1.29 1.47 1.13 1.15-0.28 2.33-0.57 3.4-1.08 7.46-3.63 14.59-7.82 21.07-13.06 0.41-0.33 0.86-0.6 1.52-1.06 6.9 2.39 13.13 6.09 19.39 10.6-2.69 2.34-5.06 4.47-7.49 6.53-4.49 3.8-9.02 7.54-13.49 11.34-0.8 0.68-1.49 1.52-2.13 2.37-0.47 0.63 0.19 1.76 1.02 1.71 0.9-0.06 1.87-0.18 2.67-0.55 1.2-0.57 2.33-1.33 3.4-2.12 6.72-5.05 13.63-9.89 19.3-16.19 0.16-0.18 0.45-0.26 0.89-0.49 0.94 0.46 2.01 0.97 3.06 1.5 15.54 7.95 31.78 9.63 48.67 5.52 1.16-0.29 2.35-0.61 3.42-1.13 2.54-1.25 2.69-4.34 0.19-5.72-1.24-0.69-2.75-1.08-4.17-1.24-2.25-0.24-4.54-0.15-6.8-0.26-4.8-0.21-9.62-0.3-14.4-0.73-7.41-0.66-14.38-2.94-20.94-6.42-2.83-1.5-5.58-3.17-8.41-4.66-3.32-1.73-6.64-3.44-10.05-4.97-1.55-0.7-2.57-1.6-3.38-3.13q-2.81-5.32-6.07-10.37c-1.07-1.66-2.53-3.08-3.86-4.57-0.46-0.52-0.8-0.54-2.52-0.72z"/>
			<path id="&lt;Path&gt;" class="s4" d="m606.01 454.97c0.4 0.26 0.8 0.7 1.21 0.72 0.77 0.04 1.6-0.04 2.31-0.3 2.23-0.84 4.47-1.66 6.58-2.74 1-0.51 1.78-1.52 2.51-2.44 0.21-0.26-0.01-1.01-0.24-1.42-0.13-0.25-0.66-0.37-1.02-0.39-0.38-0.02-0.82 0.06-1.14 0.24q-4.84 2.73-9.65 5.52c-0.2 0.11-0.29 0.41-0.56 0.81z"/>
			<path id="&lt;Path&gt;" class="s4" d="m641.86 476.31c1.48-1.12 2.81-2.01 3.99-3.09 0.54-0.49 0.83-1.3 1.11-2.02 0.21-0.55-0.66-1.36-1.23-1.22-0.38 0.1-0.81 0.17-1.11 0.4q-3.62 2.81-7.21 5.66c-0.1 0.07-0.21 0.21-0.22 0.32-0.03 0.49-0.22 1.14 0.02 1.43 0.25 0.3 0.98 0.44 1.4 0.32 0.75-0.22 1.45-0.66 2.14-1.05 0.46-0.26 0.88-0.59 1.11-0.75z"/>
			<path id="&lt;Path&gt;" class="s4" d="m697.29 434.62c0.36-0.94 0.84-1.61 0.86-2.3 0.08-2.8-0.52-5.5-1.55-8.11-0.09-0.23-0.28-0.49-0.49-0.59-0.33-0.16-0.76-0.33-1.07-0.24-0.29 0.1-0.59 0.49-0.68 0.81-0.11 0.36-0.04 0.79 0.06 1.17q0.99 4.03 2.06 8.04c0.09 0.34 0.4 0.62 0.81 1.22z"/>
		</g>
		<g id="&lt;Group&gt;">
			<path id="&lt;Compound Path&gt;" fill-rule="evenodd" class="s5" d="m139.48 290.06c7.12-4.67 14.76-9.26 23.42-11.86 13.04-3.91 26.22-7.14 39.82-8.39 7.64-0.69 15.26-0.86 22.85 0.32 14.42 2.23 26.68 8.73 37.16 18.77 3.94 3.78 7.29 8.06 10.64 12.34 5.03 6.42 9.92 12.96 14.96 19.37 4.07 5.19 8.29 10.27 12.43 15.41 2.41 2.98 5.39 4.78 9.32 4.76 2.42-0.01 4.55 0.8 6.49 2.24 3.25 2.38 6.9 4.04 10.41 5.98 2.95 1.62 6 2.92 9.07 4.22 0.82 0.35 1.64 0.81 2.31 1.39 1.12 0.97 0.67 3.08-0.76 3.49-0.85 0.24-1.79 0.3-2.67 0.23-1.55-0.12-3.08-0.39-4.62-0.62-6.38-0.96-12.65-0.51-18.78 1.54-4.67 1.56-9.34 3.09-13.99 4.69-14.83 5.12-29.97 9.03-45.49 11.42-11.71 1.8-23.45 2.4-35.2 0.52-11.35-1.82-22.14-5.26-31.97-11.39-4.64-2.9-8.72-6.46-12.69-10.18-6.01-5.62-12.92-9.9-20.33-13.38q-1.93-0.91-3.91-1.71c-7.35-2.94-12.87-8.09-17.35-14.45-2.11-2.98-3.51-6.33-4.36-9.89-1.18-4.92-0.41-9.5 2.41-13.72 2.83-4.25 6.43-7.76 10.83-11.1zm181.43 58.8c-1.67-1.17-3.41-2.25-4.97-3.55-2.08-1.73-4.36-2.63-7.08-2.7-3.35-0.09-6.33-1.4-8.77-3.68-2.64-2.47-5.31-4.95-7.65-7.7-6.72-7.88-13.28-15.9-19.89-23.86-3.64-4.39-7.35-8.72-11.68-12.44-9.98-8.59-21.55-13.69-34.66-15.19-6.84-0.78-13.69-0.72-20.55-0.14-12.66 1.06-25.13 3.27-37.55 5.92q-11.09 2.36-21.06 7.71c-4.34 2.32-8.45 4.93-11.99 8.48-4.81 4.82-5.82 10.15-3.21 16.3 0.3 0.72 0.6 1.44 0.99 2.1 4.02 6.7 9.18 12.13 16.53 15.26 2.85 1.22 5.74 2.5 8.25 4.26 6.03 4.24 12.09 8.45 17.47 13.53 1.87 1.78 3.91 3.39 5.99 4.92 7.87 5.8 16.82 9.01 26.34 10.82 10.54 2.02 21.13 1.89 31.7 0.47 12.06-1.62 24.01-3.9 35.8-6.93 8.67-2.23 17.03-5.36 25.44-8.33 6.6-2.33 13.19-4.65 20.55-5.25z"/>
			<path id="&lt;Compound Path&gt;" fill-rule="evenodd" class="s5" d="m129.15 422.18c7.51-5.2 15.36-9.67 23.98-12.7 7.6-2.68 15.4-3.44 23.34-2.14 3.32 0.54 6.6 1.33 9.84 2.22 4.5 1.22 8.94 2.65 13.41 3.97 2.11 0.62 4.25 1.14 6.36 1.78 6.86 2.08 13.75 2.03 20.72 0.53 4.29-0.93 8.64-1.64 12.95-2.49 1.78-0.36 3.52-0.85 4.87-2.22 0.34-0.35 0.85-0.6 1.32-0.78 1.39-0.51 3.02 0.38 3.23 1.87 0.13 0.87 0.12 1.83-0.1 2.67-0.41 1.49-0.92 2.98-1.57 4.38-4.17 8.93-10.11 16.53-17.55 22.95-2.87 2.48-6.18 4.25-9.65 5.74-3.68 1.58-7.39 3.11-11.01 4.83-7.77 3.71-14.65 8.76-21.04 14.49-6.37 5.69-12.44 11.72-19.21 16.96-9.69 7.51-20.13 13.66-31.8 17.55-2.45 0.81-4.98 1.42-7.5 1.96-4.47 0.95-8.77 0.32-12.83-1.75-6.71-3.41-12.29-8.13-16.29-14.57-2.75-4.43-3.88-9.31-3.35-14.49 0.91-8.87 3.33-17.26 8.06-24.91 3.9-6.31 8.59-11.99 13.96-17.09 3.19-3.02 6.56-5.85 9.86-8.76zm112.23-8.07c-7.37 1.8-13.92 3.3-20.4 5.03-3.19 0.86-6.35 1.18-9.58 0.63-5.23-0.88-10.44-1.87-15.67-2.77-5.47-0.94-10.93-2.09-16.45-2.69-8.51-0.92-16.74 0.51-24.66 3.82-13.58 5.67-25.33 13.94-35.38 24.66-4.62 4.92-8.68 10.26-11.77 16.3-2.43 4.76-4.16 9.75-4.85 15.07-0.49 3.82 0.01 7.51 2.01 10.86 3.38 5.67 8 10.1 13.79 13.3 3.29 1.81 6.81 2.48 10.5 1.8 2.54-0.48 5.09-1 7.54-1.81 13.44-4.48 25.39-11.59 35.78-21.18 5.32-4.91 10.28-10.19 15.4-15.31 6.05-6.05 12.36-11.79 19.78-16.17q4.01-2.35 8.11-4.56 5.5-2.98 9.96-7.35c5.37-5.26 10.14-11.04 14.45-17.2 0.36-0.5 0.64-1.07 1.44-2.43z"/>
			<path id="&lt;Path&gt;" class="s5" d="m210.15 354.01c0.25-1.56 1.48-2.33 2.59-3.19q3.99-3.09 7.94-6.22c0.58-0.46 1.08-1.01 1.5-1.4-0.18-1.18-0.94-1.15-1.51-1.24-7.5-1.26-14.45-4.01-21.06-7.66-8.18-4.51-16.68-8.23-25.51-11.29-4.51-1.57-8.85-3.62-13.25-5.49-1.03-0.43-2.16-0.86-2.3-2.56 0.89 0.15 1.64 0.18 2.32 0.4 6.63 2.21 13.27 4.36 19.85 6.69 5.61 1.99 11.15 4.17 16.68 6.34 4.47 1.75 8.95 3.41 13.71 4.19 1.25 0.2 2.51 0.29 4.23 0.48-0.36-0.97-0.47-1.58-0.79-2.05q-5.94-8.63-11.94-17.22c-0.73-1.05-1.52-2.05-2.21-2.98 0.56-1.04 1.21-0.86 1.73-0.49 0.94 0.67 1.9 1.35 2.67 2.19 5.44 5.93 10.36 12.24 14.33 19.26 0.25 0.44 0.56 0.85 0.99 1.5 7.06 0.3 13.99-0.81 21.23-2.64-1.58-3.07-2.95-5.83-4.41-8.55-2.68-5.02-5.44-10-8.11-15.02-0.48-0.9-0.8-1.9-1.07-2.88-0.2-0.74 0.8-1.53 1.52-1.18 0.8 0.38 1.63 0.82 2.22 1.45 0.87 0.94 1.62 2.02 2.3 3.12 4.25 6.94 8.75 13.75 11.61 21.45 0.09 0.22 0.32 0.39 0.63 0.75 1.01-0.08 2.16-0.15 3.3-0.26 16.81-1.62 32.04 2.65 45.79 12.37 0.94 0.67 1.9 1.38 2.67 2.24 1.84 2.03 0.87 4.86-1.86 5.21-1.37 0.18-2.86 0-4.2-0.37-2.12-0.58-4.14-1.47-6.22-2.19-4.4-1.52-8.76-3.15-13.22-4.47-6.91-2.04-14-2.47-21.15-1.67-3.08 0.34-6.15 0.86-9.23 1.19-3.6 0.38-7.21 0.74-10.82 0.9-1.64 0.08-2.88 0.53-4.16 1.62q-4.42 3.78-9.16 7.17c-1.55 1.12-3.38 1.88-5.11 2.75-0.6 0.3-0.91 0.2-2.52-0.25z"/>
			<path id="&lt;Path&gt;" class="s5" d="m174.25 301.03c0.46-0.09 0.97-0.34 1.35-0.21 0.7 0.24 1.43 0.6 1.97 1.09 1.71 1.55 3.44 3.09 4.95 4.81 0.72 0.82 1.07 2.01 1.39 3.09 0.1 0.31-0.36 0.91-0.71 1.2-0.22 0.17-0.74 0.09-1.07-0.02-0.35-0.11-0.71-0.34-0.94-0.62q-3.39-4.18-6.72-8.4c-0.14-0.17-0.12-0.48-0.22-0.94z"/>
			<path id="&lt;Path&gt;" class="s5" d="m214.14 294.58c0.93 1.54 1.81 2.82 2.49 4.21 0.31 0.63 0.29 1.47 0.28 2.22-0.01 0.57-1.08 0.98-1.54 0.65-0.31-0.22-0.67-0.44-0.86-0.75q-2.26-3.81-4.48-7.66c-0.06-0.11-0.12-0.27-0.08-0.37 0.15-0.45 0.21-1.11 0.52-1.28 0.34-0.18 1.04-0.05 1.38 0.21 0.6 0.46 1.07 1.11 1.55 1.7 0.33 0.4 0.59 0.85 0.74 1.07z"/>
			<path id="&lt;Path&gt;" class="s5" d="m249.2 351.87c-0.01 0.98 0.18 1.75-0.05 2.38-0.92 2.55-2.42 4.77-4.28 6.75-0.16 0.17-0.42 0.34-0.65 0.36-0.35 0.02-0.8 0.03-1.04-0.17-0.24-0.19-0.36-0.65-0.33-0.97 0.03-0.36 0.25-0.73 0.46-1.03q2.33-3.27 4.72-6.51c0.2-0.27 0.59-0.41 1.17-0.81z"/>
			<path id="&lt;Path&gt;" class="s5" d="m215.43 430.38c-0.56 0.73-0.78 1.21-1.15 1.46-1.38 0.96-2.74 1.97-4.23 2.73-9.6 4.9-19.8 8.25-30.15 11.11-2.84 0.79-5.85 1.23-8.8 1.34-5.86 0.23-10.72 2.59-15.18 6.35 0.11 8.31-3.25 15.55-7.48 22.45-1.89 3.08-3.98 6.04-6.04 9.02-0.55 0.79-1.35 1.21-2.45 0.14 0.51-1.64 1.86-2.91 2.67-4.46 0.78-1.49 1.74-2.88 2.56-4.35 0.89-1.57 1.76-3.16 2.55-4.79q1.19-2.44 2.21-4.96c0.64-1.55 1.25-3.13 1.71-4.74 0.48-1.66 1.26-3.31 0.97-5.6-0.97 0.63-1.6 0.98-2.17 1.42-2.16 1.66-4.25 3.39-6.43 5.01-1.24 0.92-2.58 1.72-3.92 2.5-0.55 0.32-1.19 0.53-1.81 0.65-1.46 0.25-2.61-1.01-2.08-2.38 0.41-1.07 1.06-2.06 1.65-3.06 0.57-0.97 1.2-1.91 2.09-3.31-1.77 0.25-3.01 0.42-4.25 0.6-4.73 0.69-9.46 1.41-14.2 2.04-0.99 0.13-2.04 0-3.02-0.22-0.36-0.08-0.78-0.74-0.82-1.17-0.04-0.41 0.3-0.93 0.61-1.28 0.23-0.28 0.65-0.43 1.01-0.53 5.25-1.38 10.41-3.2 15.85-3.67 2.83-0.25 5.67-0.27 9.08-0.41 0.82-0.77 2.01-1.94 3.25-3.05 2.22-1.98 4.41-4 6.72-5.86 2.12-1.71 4.44-3.13 7.04-4.05 0.56-0.19 1.09-0.51 2.09-0.98-1.14-0.57-1.8-0.93-2.48-1.23-2.02-0.87-4.06-1.68-6.06-2.59-0.94-0.43-1.85-0.94-2.67-1.56-0.71-0.54-1.37-1.25-1.06-2.3 0.23-0.78 1.41-1.22 2.71-0.81 4.8 1.54 9.59 3.11 14.34 4.79 1.19 0.42 2.39 1.13 3.25 2.02 1.03 1.08 2.15 1.36 3.48 1.23q4.05-0.4 8.09-0.91c4.35-0.56 8.69-1.35 13.07-1.7 5.38-0.41 10.4-1.89 15.25-4.13 1.15-0.53 2.23-1.33 4.2-0.76z"/>
			<path id="&lt;Path&gt;" class="s5" d="m127.89 475.04c0.13 0.86 0.44 1.54 0.27 2.06q-1.3 4.03-2.84 7.98c-0.2 0.54-0.82 0.96-1.32 1.33-0.59 0.42-1.69-0.14-1.82-0.86-0.04-0.25-0.15-0.54-0.08-0.76 1.05-3.18 2.19-6.32 4.27-9 0.26-0.33 0.84-0.43 1.52-0.75z"/>
			<path id="&lt;Path&gt;" class="s5" d="m169.03 470.3c-1.1-2.19-1.78-4.24-1.46-6.5 0.04-0.29 0.44-0.68 0.74-0.74 0.3-0.07 0.88 0.11 0.99 0.34 0.83 1.88 1.66 3.77 2.32 5.71 0.19 0.54-0.13 1.39-0.9 1.48-0.56 0.07-1.17-0.19-1.69-0.29z"/>
			<path id="&lt;Path&gt;" class="s5" d="m133.91 440.43c0.81-0.6 1.16-1.04 1.59-1.15 1.78-0.47 3.55-0.19 5.26 0.38 0.84 0.29 1.17 0.96 1.05 1.82-0.13 0.88-0.73 1.43-1.56 1.37-2.17-0.14-4.21-0.69-6.34-2.42z"/>
			<path id="&lt;Path&gt;" class="s5" d="m123.23 470.04c-0.18 0.56-0.18 1.2-0.49 1.44-1.63 1.27-3.44 2.24-5.53 2.53-0.12 0.02-0.28 0.02-0.37-0.04-0.31-0.21-0.71-0.4-0.85-0.7-0.13-0.3-0.11-0.81 0.08-1.06 0.28-0.41 0.7-0.82 1.16-0.98 1.87-0.65 3.62-2.03 6-1.19z"/>
			<path id="&lt;Path&gt;" class="s5" d="m179.06 420.11c1.69 0.43 2.92 0.69 4.11 1.06 0.26 0.09 0.53 0.58 0.53 0.89 0 0.31-0.25 0.71-0.51 0.93-0.27 0.22-0.69 0.37-1.04 0.37-1.61-0.01-2.18-0.57-3.09-3.25z"/>
		</g>
		<g id="&lt;Group&gt;">
			<path id="&lt;Compound Path&gt;" fill-rule="evenodd" class="s5" d="m1319.17 159.9c3.41 7.81 6.64 16.12 7.74 25.09 1.66 13.51 2.62 27.04 1.55 40.67-0.59 7.64-1.71 15.18-4.15 22.47-4.64 13.83-13.11 24.82-24.77 33.46-4.39 3.24-9.18 5.82-13.96 8.4-7.18 3.88-14.45 7.59-21.62 11.48-5.8 3.14-11.52 6.44-17.28 9.66-3.35 1.86-5.63 4.5-6.27 8.38-0.39 2.39-1.56 4.35-3.29 6.02-2.91 2.79-5.16 6.12-7.66 9.25-2.09 2.63-3.88 5.42-5.69 8.23-0.48 0.75-1.07 1.48-1.76 2.04-1.15 0.94-3.15 0.14-3.31-1.34-0.09-0.87 0.01-1.81 0.22-2.67 0.38-1.5 0.91-2.97 1.39-4.44 2.02-6.14 2.64-12.39 1.66-18.78-0.75-4.86-1.48-9.72-2.27-14.57-2.55-15.49-3.85-31.08-3.58-46.78 0.19-11.84 1.58-23.51 5.42-34.78 3.7-10.87 8.91-20.93 16.62-29.59 3.63-4.08 7.83-7.5 12.17-10.79 6.56-4.97 11.93-11.06 16.61-17.78q1.23-1.76 2.35-3.57c4.14-6.75 10.15-11.32 17.17-14.67 3.3-1.57 6.83-2.38 10.48-2.62 5.05-0.34 9.44 1.2 13.12 4.69 3.71 3.51 6.56 7.64 9.11 12.54zm-88.55 168.92c1.44-1.44 2.8-2.98 4.34-4.3 2.06-1.76 3.33-3.85 3.86-6.52 0.65-3.29 2.44-6.01 5.1-8.03 2.88-2.19 5.78-4.4 8.88-6.24 8.9-5.29 17.91-10.4 26.88-15.58 4.93-2.85 9.83-5.78 14.23-9.41 10.15-8.4 17.13-18.94 20.81-31.61 1.92-6.61 3.01-13.37 3.61-20.23 1.09-12.66 1.01-25.32 0.49-38.01q-0.45-11.34-4.04-22.06c-1.57-4.67-3.44-9.16-6.35-13.25-3.94-5.55-9.01-7.45-15.52-5.91-0.76 0.18-1.52 0.35-2.24 0.62-7.28 2.83-13.5 7.01-17.83 13.72-1.67 2.6-3.43 5.24-5.59 7.42-5.19 5.22-10.36 10.49-16.28 14.93-2.06 1.55-4 3.29-5.86 5.08-7.04 6.77-11.71 15.06-15.11 24.14-3.76 10.05-5.42 20.5-5.8 31.17-0.44 12.16-0.21 24.31 0.79 36.45 0.74 8.92 2.42 17.69 3.92 26.48 1.18 6.89 2.36 13.79 1.71 21.14z"/>
			<path id="&lt;Path&gt;" class="s5" d="m1244.23 218.78c1.49 0.51 2.04 1.84 2.7 3.09q2.37 4.45 4.79 8.88c0.36 0.64 0.82 1.23 1.13 1.71 1.19 0.02 1.29-0.73 1.48-1.29 2.5-7.17 6.39-13.56 11.09-19.46 5.83-7.3 10.93-15.05 15.44-23.23 2.3-4.19 5.06-8.12 7.64-12.15 0.6-0.93 1.21-1.98 2.92-1.83-0.3 0.85-0.46 1.59-0.79 2.22-3.29 6.16-6.54 12.35-9.95 18.44-2.9 5.19-5.98 10.28-9.06 15.37-2.47 4.11-4.87 8.25-6.43 12.81-0.41 1.19-0.71 2.43-1.19 4.09 1.02-0.2 1.64-0.2 2.15-0.44q9.51-4.4 18.99-8.86c1.15-0.54 2.27-1.15 3.3-1.68 0.94 0.73 0.65 1.34 0.2 1.79-0.81 0.81-1.65 1.65-2.61 2.27-6.76 4.35-13.81 8.14-21.4 10.87-0.48 0.17-0.94 0.41-1.64 0.73-1.49 6.9-1.56 13.92-0.99 21.36 3.3-1.03 6.25-1.93 9.18-2.9 5.4-1.8 10.77-3.67 16.17-5.46 0.97-0.32 2.01-0.47 3.02-0.57 0.76-0.08 1.37 1.04 0.91 1.7-0.51 0.72-1.09 1.46-1.81 1.94-1.07 0.7-2.26 1.26-3.45 1.74-7.56 3.02-15.04 6.31-23.11 7.83-0.23 0.04-0.44 0.25-0.85 0.5-0.09 1-0.21 2.14-0.3 3.28-1.23 16.85-8.01 31.14-19.91 43.05-0.82 0.82-1.68 1.64-2.65 2.26-2.32 1.48-4.94 0.04-4.83-2.72 0.05-1.37 0.49-2.81 1.07-4.07 0.93-1.99 2.15-3.83 3.21-5.76 2.24-4.08 4.58-8.11 6.63-12.28 3.18-6.47 4.8-13.38 5.22-20.56 0.18-3.1 0.18-6.21 0.38-9.31 0.23-3.61 0.49-7.22 0.93-10.81 0.21-1.63-0.03-2.93-0.89-4.37q-2.98-5-5.52-10.24c-0.84-1.72-1.28-3.64-1.85-5.5-0.19-0.64-0.04-0.93 0.68-2.44z"/>
			<path id="&lt;Path&gt;" class="s5" d="m1302.5 192.33c0 0.46 0.17 1.01-0.02 1.36-0.35 0.65-0.83 1.31-1.41 1.76-1.81 1.42-3.62 2.87-5.58 4.07-0.92 0.57-2.15 0.71-3.27 0.85-0.33 0.04-0.84-0.51-1.06-0.91-0.14-0.24 0.02-0.74 0.19-1.05 0.17-0.32 0.46-0.64 0.77-0.82q4.69-2.63 9.42-5.21c0.19-0.11 0.48-0.03 0.96-0.05z"/>
			<path id="&lt;Path&gt;" class="s5" d="m1302.13 232.73c-1.67 0.66-3.09 1.31-4.57 1.75-0.68 0.2-1.5 0.03-2.23-0.11-0.56-0.1-0.79-1.22-0.39-1.62 0.27-0.27 0.55-0.59 0.88-0.72q4.15-1.58 8.31-3.12c0.12-0.04 0.28-0.07 0.38-0.02 0.42 0.22 1.06 0.39 1.17 0.73 0.13 0.36-0.13 1.03-0.44 1.32-0.55 0.52-1.27 0.87-1.93 1.25-0.45 0.25-0.94 0.43-1.19 0.54z"/>
			<path id="&lt;Path&gt;" class="s5" d="m1239.75 257.63c-0.97-0.17-1.76-0.12-2.34-0.45-2.36-1.34-4.3-3.19-5.93-5.35-0.15-0.2-0.27-0.48-0.25-0.7 0.04-0.36 0.11-0.8 0.34-1.01 0.23-0.2 0.71-0.24 1.02-0.16 0.35 0.09 0.67 0.37 0.94 0.63q2.83 2.85 5.61 5.75c0.24 0.25 0.31 0.65 0.61 1.29z"/>
		</g>
	</g>
</svg>